STARTFONT 2.3
FONT -FontForge-Roboto-Book-R-Normal--24-240-72-72-P-134-ISO10646-1
SIZE 24 72 72  4
FONTBOUNDINGBOX 46 32 -18 -7
COMMENT "Generated by fontforge, http://fontforge.sourceforge.net"
COMMENT "Copyright 2011 Google Inc. All Rights Reserved."
STARTPROPERTIES 42
FOUNDRY "FontForge"
FAMILY_NAME "Roboto"
WEIGHT_NAME "Book"
SLANT "R"
SETWIDTH_NAME "Normal"
ADD_STYLE_NAME ""
PIXEL_SIZE 24
POINT_SIZE 240
RESOLUTION_X 72
RESOLUTION_Y 72
SPACING "P"
AVERAGE_WIDTH 134
CHARSET_REGISTRY "ISO10646"
CHARSET_ENCODING "1"
FONTNAME_REGISTRY ""
CHARSET_COLLECTIONS "ISO8859-2 ISO8859-5 ISO8859-7 ISO8859-9 ISO8859-4 ISO10646-1"
BITS_PER_PIXEL 4
FONT_NAME "Roboto-Regular"
FACE_NAME "Roboto"
COPYRIGHT "Copyright 2011 Google Inc. All Rights Reserved."
FONT_VERSION "2.137; 2017"
FONT_ASCENT 18
FONT_DESCENT 6
UNDERLINE_POSITION -2
UNDERLINE_THICKNESS 2
X_HEIGHT 12
CAP_HEIGHT 16
DEFAULT_CHAR 1
RAW_ASCENT 750
RAW_DESCENT 250
NORM_SPACE 6
RELATIVE_WEIGHT 40
RELATIVE_SETWIDTH 50
SUPERSCRIPT_X 0
SUPERSCRIPT_Y 11
SUPERSCRIPT_SIZE 15
SUBSCRIPT_X 0
SUBSCRIPT_Y 3
SUBSCRIPT_SIZE 15
FIGURE_WIDTH 13
AVG_LOWERCASE_WIDTH 131
AVG_UPPERCASE_WIDTH 158
ENDPROPERTIES
CHARS 1296
STARTCHAR glyph1.dup1
ENCODING 0
SWIDTH 0 0
DWIDTH 0 0
BBX 1 1 0 0
BITMAP
00
ENDCHAR
STARTCHAR uni0002
ENCODING 2
SWIDTH 0 0
DWIDTH 0 0
BBX 1 1 0 0
BITMAP
00
ENDCHAR
STARTCHAR uni000D
ENCODING 13
SWIDTH 247 0
DWIDTH 6 0
BBX 1 1 0 0
BITMAP
00
ENDCHAR
STARTCHAR space
ENCODING 32
SWIDTH 247 0
DWIDTH 6 0
BBX 1 1 0 0
BITMAP
00
ENDCHAR
STARTCHAR exclam
ENCODING 33
SWIDTH 257 0
DWIDTH 6 0
BBX 4 17 1 0
BITMAP
1FF3
0FF3
0FF3
0FF3
0FF3
0FF2
0FF2
0EF2
0EF2
0EF1
0EF1
0EF1
0110
0000
0460
1FF5
0CE3
ENDCHAR
STARTCHAR quotedbl
ENCODING 34
SWIDTH 319 0
DWIDTH 8 0
BBX 6 6 1 12
BITMAP
6F44F6
6F44F6
6F34F5
6F14F4
6F04F3
6E04F2
ENDCHAR
STARTCHAR numbersign
ENCODING 35
SWIDTH 615 0
DWIDTH 15 0
BBX 14 17 1 0
BITMAP
000008F200BE00
00000CE000FA00
00001FA004F700
00004F6007F300
0BFFFFFFFFFFF7
0799DF999FE994
0000DC001F9000
0001FA004F6000
0003F7007F3000
0006F400AF1000
9FFFFFFFFFFF90
699EE99AFD9950
000EB003F80000
002F8005F50000
005F6008F20000
007F300BF00000
00AF000DC00000
ENDCHAR
STARTCHAR dollar
ENCODING 36
SWIDTH 561 0
DWIDTH 13 0
BBX 12 23 1 -3
BITMAP
000007800000
00000DD00000
00000DD00000
0018CFFD7000
01DFFEEFFB00
09FD3005FF70
0EF500008FC0
0FF200004FF0
0EF500001770
09FE50000000
01CFFC710000
0018EFFF9100
000016BFFD20
00000004DFB0
242000004FF1
AF8000000FF3
7FD000003FF1
2FF91003DFB0
06FFFDEFFD20
003AEFFC8100
00001FA00000
00001FA00000
000004200000
ENDCHAR
STARTCHAR percent
ENCODING 37
SWIDTH 732 0
DWIDTH 18 0
BBX 16 17 1 0
BITMAP
04CFE80000000000
2ED7AF8000000000
9F200AF1001C3000
BD0006F3009F2000
BD0006F304F70000
9F200AF10DC00000
2FD79F907F300000
03BED802F9000000
0000000BE1000000
0000006F519EEA10
000001EB0CF88ED0
00000AE24F6005F5
00004F706F3002F7
0000DC006F3002F8
0008F3004F6005F5
000880000CE87ED0
00000000019EEA10
ENDCHAR
STARTCHAR ampersand
ENCODING 38
SWIDTH 621 0
DWIDTH 15 0
BBX 14 17 1 0
BITMAP
0007CFDA200000
009FFDEFF30000
02FF5008FB0000
06FC0002FD0000
05FD0005FB0000
01FF404EF40000
008FD9FF500000
000CFFD3000000
007FFFA0000000
08FE6EF8002DB0
4FE303EF604FB0
AF80005FF58F80
CF600006FEEF30
AFA000008FFA00
4FF70002BFFC10
08FFECDFFDDFA0
004AEFEB612EF7
ENDCHAR
STARTCHAR quotesingle
ENCODING 39
SWIDTH 174 0
DWIDTH 4 0
BBX 2 6 1 12
BITMAP
CF
CE
CE
CD
CC
CB
ENDCHAR
STARTCHAR parenleft
ENCODING 40
SWIDTH 341 0
DWIDTH 8 0
BBX 7 25 1 -6
BITMAP
00000760
00008F80
0005FA00
001EE100
009F6000
01FE0000
06FA0000
0CF50000
0FF10000
3FE00000
5FD00000
6FB00000
6FB00000
6FC00000
5FC00000
3FE00000
0FF10000
0CF50000
06F90000
01FE0000
009F6000
001EE100
0005FA00
00008F80
00000770
ENDCHAR
STARTCHAR parenright
ENCODING 41
SWIDTH 347 0
DWIDTH 8 0
BBX 7 25 0 -6
BITMAP
49000000
5FB00000
07F80000
00CF3000
004FC000
000CF400
0007F900
0002FE00
0000EF30
0000BF60
0000AF80
00009F90
00008F90
00009F90
00009F80
0000BF60
0000DF30
0002FE00
0006F900
000BF400
003FC000
00BF3000
06F80000
5FB00000
49000000
ENDCHAR
STARTCHAR asterisk
ENCODING 42
SWIDTH 430 0
DWIDTH 10 0
BBX 10 10 0 7
BITMAP
0000AF1000
0000AF1000
1100AF0001
6FA5AF38EA
5CFFFFFFD9
0018FFB300
001DEDE200
009F63FC00
04FB008F70
0052001800
ENDCHAR
STARTCHAR plus
ENCODING 43
SWIDTH 566 0
DWIDTH 14 0
BBX 13 13 0 1
BITMAP
000005FD000000
000005FD000000
000005FD000000
000005FD000000
000005FD000000
1FFFFFFFFFFF90
1FFFFFFFFFFF90
011115FD111100
000005FD000000
000005FD000000
000005FD000000
000005FD000000
00000276000000
ENDCHAR
STARTCHAR comma
ENCODING 44
SWIDTH 196 0
DWIDTH 5 0
BBX 4 6 0 -3
BITMAP
0485
08F9
08F8
0BF5
3FC0
4C30
ENDCHAR
STARTCHAR hyphen
ENCODING 45
SWIDTH 275 0
DWIDTH 7 0
BBX 7 2 0 6
BITMAP
8FFFFF20
6CCCCC20
ENDCHAR
STARTCHAR period
ENCODING 46
SWIDTH 263 0
DWIDTH 6 0
BBX 4 3 1 0
BITMAP
0770
4FF5
2DD2
ENDCHAR
STARTCHAR slash
ENCODING 47
SWIDTH 412 0
DWIDTH 10 0
BBX 10 18 0 -1
BITMAP
0000000DE1
0000004F90
000000AF30
000001FC00
000007F600
00000DE100
00003F9000
00009F3000
0001EC0000
0006F70000
000CF10000
003FA00000
009F400000
01ED000000
06F7000000
0CF1000000
3FA0000000
9F40000000
ENDCHAR
STARTCHAR zero
ENCODING 48
SWIDTH 561 0
DWIDTH 13 0
BBX 12 17 1 0
BITMAP
0029DFEB5000
02EFECDFF800
0BFB1005FF30
2FF100009F90
6FB000004FD0
8F9000002FF0
9F8000001FF1
AF8000001FF2
AF8000001FF2
AF8000001FF2
9F8000001FF1
8F9000002FF0
6FB000004FD0
2FF200009F90
0BFB1005FF30
02EFECDFF800
0019DFEB5000
ENDCHAR
STARTCHAR one
ENCODING 49
SWIDTH 561 0
DWIDTH 13 0
BBX 7 17 2 0
BITMAP
00027C80
27CFFF80
FFFCDF80
C720AF80
0000AF80
0000AF80
0000AF80
0000AF80
0000AF80
0000AF80
0000AF80
0000AF80
0000AF80
0000AF80
0000AF80
0000AF80
0000AF80
ENDCHAR
STARTCHAR two
ENCODING 50
SWIDTH 561 0
DWIDTH 13 0
BBX 12 17 1 0
BITMAP
003ADFEB5000
06FFECEFFA00
3FF70006FF50
9FA00000AFA0
DF6000006FC0
441000007FA0
00000000CF50
00000007FC00
0000004FF300
000003EF5000
00002EF70000
0001DF800000
001CF9000000
00BFA0000000
0AFB00000000
7FFCCCCCCCC7
9FFFFFFFFFF9
ENDCHAR
STARTCHAR three
ENCODING 51
SWIDTH 561 0
DWIDTH 13 0
BBX 11 17 1 0
BITMAP
003AEFEB5000
06FFECEFF900
3FF70005FF40
9FB00000AF80
8B5000008F90
00000000CF60
0000013AFC00
0006FFFF9100
0005CCEFD500
00000007FF30
000000009FA0
000000005FD0
9B4000005FD0
BF9000009FA0
5FF60005FF40
08FFECEFF800
004BEFEA4000
ENDCHAR
STARTCHAR four
ENCODING 52
SWIDTH 561 0
DWIDTH 13 0
BBX 13 17 0 0
BITMAP
00000002EF9000
0000000BFF9000
0000006FFF9000
000002EEBF9000
00000BF69F9000
00006FB09F9000
0002EE209F9000
000BF6009F9000
006FB0009F9000
02EE20009F9000
0BF600009F9000
4FFFFFFFFFFFE0
4CCCCCCCEFECB0
000000009F9000
000000009F9000
000000009F9000
000000009F9000
ENDCHAR
STARTCHAR five
ENCODING 53
SWIDTH 561 0
DWIDTH 13 0
BBX 12 17 1 0
BITMAP
00CFFFFFFFF0
00DFFFFFFFF0
00FF10000000
01FE00000000
03FD00000000
04FB00000000
06FC9DFD9200
07FFFFFFFE30
05DB3015EFC0
000000004FF4
000000000CF7
000000000AF8
1BA000000CF7
0EF400002FF4
08FD3001BFC0
01BFFDDFFE30
0006CEFD9200
ENDCHAR
STARTCHAR six
ENCODING 54
SWIDTH 561 0
DWIDTH 13 0
BBX 12 17 1 0
BITMAP
000017BDE000
0006EFFEC000
006FFA300000
02EF70000000
09FA00000000
0EF300000000
2FE2AEFD8100
5FEEFEDFFD10
6FFD3003DFA0
7FE100005FF1
7FB000000EF4
6FC000000DF5
3FE000000EF3
0DF600004FF1
06FE4002DF90
009FFDDFFC10
0005BEEC7000
ENDCHAR
STARTCHAR seven
ENCODING 55
SWIDTH 561 0
DWIDTH 13 0
BBX 13 17 0 0
BITMAP
1FFFFFFFFFFF70
1CCCCCCCCCFF40
0000000003FD00
000000000AF600
000000002FE100
000000009F8000
00000001EF1000
00000008F90000
0000001EF30000
0000007FB00000
000000DF400000
000005FC000000
00000CF6000000
00004FE0000000
0000BF70000000
0003FE10000000
000AF900000000
ENDCHAR
STARTCHAR eight
ENCODING 56
SWIDTH 561 0
DWIDTH 13 0
BBX 12 17 1 0
BITMAP
0029DFEB6000
04EFFCEFFA00
0DFB1005FF50
3FF100009FA0
4FE000007FB0
1FF20000AF80
08FD4128FE10
007FFFFFC200
01BFFDEFE500
0CFA1005EF40
5FD000006FC0
9F9000001FF1
AF8000001FF2
7FC000005FE0
2FF80003DF90
05FFECDFFB10
003ADFEC6000
ENDCHAR
STARTCHAR nine
ENCODING 57
SWIDTH 561 0
DWIDTH 13 0
BBX 11 17 1 0
BITMAP
003ADFD91000
05FFEDFFE200
1EF8001AFC00
7FC00001EF50
BF7000008F90
CF5000005FC0
BF7000004FD0
8FC000008FE0
2FF80018FFD0
06FFECEFBFC0
004BEEB46FA0
000000009F70
00000001EF20
0000000AFB00
000004CFE200
005DFFFC2000
006EDA500000
ENDCHAR
STARTCHAR colon
ENCODING 58
SWIDTH 242 0
DWIDTH 6 0
BBX 4 13 1 0
BITMAP
2ED1
6FF3
1760
0000
0000
0000
0000
0000
0000
0000
1760
6FF3
3ED1
ENDCHAR
STARTCHAR semicolon
ENCODING 59
SWIDTH 211 0
DWIDTH 5 0
BBX 4 16 0 -3
BITMAP
06EA
0AFE
0284
0000
0000
0000
0000
0000
0000
0000
0386
06FB
06FA
09F7
2EE1
3C40
ENDCHAR
STARTCHAR less
ENCODING 60
SWIDTH 508 0
DWIDTH 12 0
BBX 11 11 0 2
BITMAP
000000001860
00000029FF70
000029FFFC30
003AFFFA3000
1BFFE8100000
2FFA00000000
1BFFD7100000
003AFFF93000
000029FFFC30
00000029FF70
000000001860
ENDCHAR
STARTCHAR equal
ENCODING 61
SWIDTH 548 0
DWIDTH 13 0
BBX 11 7 1 5
BITMAP
3FFFFFFFFF80
3DDDDDDDDD80
000000000000
000000000000
000000000000
3FFFFFFFFF80
3DDDDDDDDD70
ENDCHAR
STARTCHAR greater
ENCODING 62
SWIDTH 522 0
DWIDTH 13 0
BBX 11 11 1 2
BITMAP
692000000000
6FFA30000000
3AFFFB400000
0028DFFC5000
000005BFFD50
00000005EF90
000006CFFD50
0028EFFC5000
3BFFFB400000
6FFA30000000
692000000000
ENDCHAR
STARTCHAR question
ENCODING 63
SWIDTH 472 0
DWIDTH 11 0
BBX 11 17 0 0
BITMAP
0019DFEB4000
02EFFEFFF600
0BFC2019FE10
1FF30000EF50
04400000CF50
00000001FF30
0000000AFC00
0000008FE300
000008FE4000
00004FF40000
00009FA00000
0000CF700000
000012100000
000000000000
000036100000
0000DF900000
00009E600000
ENDCHAR
STARTCHAR at
ENCODING 64
SWIDTH 897 0
DWIDTH 22 0
BBX 20 22 1 -5
BITMAP
00000038CEFEC8200000
00001AFFB99ACFF90000
0002DF810000019FB100
001DE40000000005F900
00AF4000000000007F30
03F900004CEE92000E90
0AF20006FD89FD0009E0
1EB0003FB100EC0005F2
4F7000AF2000FB0003F4
7F4001FC0002FA0002F5
8F2005F80003F80002F6
9F1007F60004F70003F5
9F2008F50006F50006F2
8F3008F6000AF5000BE0
6F5005FB005FF7003F70
3F9001DFDBF7EE78EC00
0DE1003CFD504CFD8100
06F80000000000000000
00CF6000000000000000
002DF810000012000000
0001AFFB879BEA000000
0000039CEFEC82000000
ENDCHAR
STARTCHAR A
ENCODING 65
SWIDTH 652 0
DWIDTH 16 0
BBX 16 17 0 0
BITMAP
0000005FE1000000
000000BFF6000000
000002FFFC000000
000008F9EF200000
00000DF38F800000
00004FD03FE00000
0000AF800DF50000
0001FF2008FA0000
0006FC0002FF1000
000CF70000CF7000
003FF200007FD000
009FFFFFFFFFF300
00EFDDDDDDDEF900
05FE10000005FE10
0BF900000000EF60
2FF3000000008FC0
7FD0000000002FF2
ENDCHAR
STARTCHAR B
ENCODING 66
SWIDTH 622 0
DWIDTH 15 0
BBX 12 17 2 0
BITMAP
FFFFFFEC8100
FFDDDDEFFE30
FF400003DFB0
FF4000005FF1
FF4000003FF2
FF4000007FE0
FF400027FF50
FFFFFFFFE400
FFDCCCDFFC20
FF400001AFD0
FF4000001EF5
FF4000000BF8
FF4000000BF8
FF4000001EF6
FF400003CFE1
FFDDDDEFFE40
FFFFFFFD9200
ENDCHAR
STARTCHAR C
ENCODING 67
SWIDTH 650 0
DWIDTH 16 0
BBX 14 17 1 0
BITMAP
00016CEFDA4000
002DFFEEFFF800
01EFC30017FF60
0AFC1000007FE0
1FF40000001FF5
5FE000000009B5
7FB00000000000
9FA00000000000
9FA00000000000
9FA00000000000
8FB00000000000
6FE000000008A5
2FF30000001FF4
0AFC0000007FE0
02EFB20017FF60
003EFFEEFFF800
00018CEFDA3000
ENDCHAR
STARTCHAR D
ENCODING 68
SWIDTH 655 0
DWIDTH 16 0
BBX 13 17 2 0
BITMAP
FFFFFEC8200000
FFDDDEFFF60000
FF400028FF7000
FF4000005FF300
FF4000000AFA00
FF40000004FE10
FF40000001FF30
FF40000000EF40
FF40000000EF50
FF40000000EF40
FF40000001FF30
FF40000004FE10
FF4000000AFA00
FF4000006FF300
FF400028FF7000
FFDDDEFFF60000
FFFFFEC7200000
ENDCHAR
STARTCHAR E
ENCODING 69
SWIDTH 568 0
DWIDTH 14 0
BBX 11 17 2 0
BITMAP
FFFFFFFFFFB0
FFDDDDDDDD90
FF4000000000
FF4000000000
FF4000000000
FF4000000000
FF4000000000
FFFFFFFFF900
FFDDDDDDD800
FF4000000000
FF4000000000
FF4000000000
FF4000000000
FF4000000000
FF4000000000
FFDDDDDDDDA0
FFFFFFFFFFC0
ENDCHAR
STARTCHAR F
ENCODING 70
SWIDTH 552 0
DWIDTH 13 0
BBX 11 17 2 0
BITMAP
FFFFFFFFFF80
FFDDDDDDDD70
FF4000000000
FF4000000000
FF4000000000
FF4000000000
FF4000000000
FF4000000000
FFFFFFFFF600
FFDDDDDDD500
FF4000000000
FF4000000000
FF4000000000
FF4000000000
FF4000000000
FF4000000000
FF4000000000
ENDCHAR
STARTCHAR G
ENCODING 71
SWIDTH 681 0
DWIDTH 16 0
BBX 14 17 1 0
BITMAP
00017CEFEA4000
003EFFEDFFFA00
02EFB30017EF80
0AFC0000006FF2
1FF40000000EF6
5FE00000000242
7FC00000000000
8FB00000000000
8FA00000000000
8FB00009FFFFF9
7FC00008CCCEF9
4FF00000000AF9
0EF60000000AF9
08FE2000000AF9
01DFD500016EF8
001CFFEDDFFFB1
00005BDFED9400
ENDCHAR
STARTCHAR H
ENCODING 72
SWIDTH 712 0
DWIDTH 17 0
BBX 14 17 2 0
BITMAP
FF400000003FF1
FF400000003FF1
FF400000003FF1
FF400000003FF1
FF400000003FF1
FF400000003FF1
FF400000003FF1
FFFFFFFFFFFFF1
FFDDDDDDDDDFF1
FF400000003FF1
FF400000003FF1
FF400000003FF1
FF400000003FF1
FF400000003FF1
FF400000003FF1
FF400000003FF1
FF400000003FF1
ENDCHAR
STARTCHAR I
ENCODING 73
SWIDTH 271 0
DWIDTH 7 0
BBX 3 17 2 0
BITMAP
DF60
DF60
DF60
DF60
DF60
DF60
DF60
DF60
DF60
DF60
DF60
DF60
DF60
DF60
DF60
DF60
DF60
ENDCHAR
STARTCHAR J
ENCODING 74
SWIDTH 551 0
DWIDTH 13 0
BBX 12 17 0 0
BITMAP
000000000DF6
000000000DF6
000000000DF6
000000000DF6
000000000DF6
000000000DF6
000000000DF6
000000000DF6
000000000DF6
000000000DF6
000000000DF6
000000000DF6
5EE000000FF5
3FF300004FF2
0CFC3003DFC0
03EFFEEFFD20
0029DFFD8100
ENDCHAR
STARTCHAR K
ENCODING 75
SWIDTH 626 0
DWIDTH 15 0
BBX 13 17 2 0
BITMAP
FF4000000AFE20
FF4000008FE300
FF400007FF5000
FF40005FF60000
FF4004FF700000
FF403EF9000000
FF42EFA0000000
FF5DFE10000000
FFEFFF90000000
FFFD7FF5000000
FFD109FE200000
FF4000CFC10000
FF40002EF90000
FF400005FF6000
FF4000008FF300
FF4000000CFD10
FF40000002EFA0
ENDCHAR
STARTCHAR L
ENCODING 76
SWIDTH 538 0
DWIDTH 13 0
BBX 11 17 2 0
BITMAP
FF4000000000
FF4000000000
FF4000000000
FF4000000000
FF4000000000
FF4000000000
FF4000000000
FF4000000000
FF4000000000
FF4000000000
FF4000000000
FF4000000000
FF4000000000
FF4000000000
FF4000000000
FFDDDDDDDD40
FFFFFFFFFF50
ENDCHAR
STARTCHAR M
ENCODING 77
SWIDTH 873 0
DWIDTH 21 0
BBX 17 17 2 0
BITMAP
FFF20000000002FFF0
FFF70000000008FFF0
FFFD000000000EFFF0
FFDF400000005FDFF0
FF8FA0000000BF8FF0
FF3FF2000002FE3FF0
FF2AF8000009F93FF0
FF24FD00001EF33FF0
FF30DF50006FC03FF0
FF307FB000CF604FF0
FF301FF203FE104FF0
FF400AF809F8004FF0
FF4004FD1EF2004FF0
FF4000CFAFB0004FF0
FF40006FFF50004FF0
FF40001EFE00004FF0
FF400009F800004FF0
ENDCHAR
STARTCHAR N
ENCODING 78
SWIDTH 712 0
DWIDTH 17 0
BBX 14 17 2 0
BITMAP
FF900000002FF1
FFF40000002FF1
FFFD0000002FF1
FFFF8000002FF1
FF9FF300002FF1
FF4BFC00002FF1
FF42EF80002FF1
FF406FF3002FF1
FF400BFC002FF1
FF4002EF702FF1
FF40006FF22FF1
FF40000CFB2FF1
FF400002FF9FF1
FF4000007FFFF1
FF4000000CFFF1
FF40000003FFF1
FF400000008FF1
ENDCHAR
STARTCHAR O
ENCODING 79
SWIDTH 687 0
DWIDTH 17 0
BBX 15 17 1 0
BITMAP
00016BEED9300000
002DFFFFFFF70000
01DFD40028FF7000
09FD1000006FE200
1EF40000000CF800
5FE000000006FC00
7FB000000003FF00
8FA000000002FF10
9F9000000002FF20
9FA000000002FF10
7FB000000004FF00
5FE000000006FC00
1EF40000000CF800
09FD1000005FF200
01DFC40017FF7000
002DFFFEFFF80000
00016BEED9300000
ENDCHAR
STARTCHAR P
ENCODING 80
SWIDTH 630 0
DWIDTH 15 0
BBX 13 17 2 0
BITMAP
FFFFFFFEA40000
FFDDDDDFFF9000
FF4000018FF700
FF40000009FE00
FF40000002FF20
FF40000001FF30
FF40000002FF20
FF40000009FE00
FF4000139FF700
FFFFFFFFFF8000
FFDDDDCB830000
FF400000000000
FF400000000000
FF400000000000
FF400000000000
FF400000000000
FF400000000000
ENDCHAR
STARTCHAR Q
ENCODING 81
SWIDTH 687 0
DWIDTH 17 0
BBX 14 20 1 -3
BITMAP
00017CEEC92000
003DFFFFFFF600
02EFC40029FF50
0AFC1000007FE1
2FF30000000DF6
6FD000000008FB
9FA000000005FD
AF8000000004FF
BF8000000004FF
AF8000000004FF
9FA000000005FD
7FD000000008FB
2FF30000000DF6
0AFC0000007FE1
02EFC30028FF60
003DFFFEFFF700
00017CEEDFFB10
0000000004EFD3
00000000002CFB
00000000000170
ENDCHAR
STARTCHAR R
ENCODING 82
SWIDTH 615 0
DWIDTH 15 0
BBX 13 17 2 0
BITMAP
FFFFFFEC820000
FFDDDDFFFE4000
FF400003CFE100
FF4000001EF600
FF4000000BF900
FF4000000BF800
FF4000003FF500
FF400026DFC000
FFFFFFFFFB1000
FFDDDDEF900000
FF40006FE10000
FF40000DF70000
FF400006FE1000
FF400000DF8000
FF4000005FF200
FF4000000CF900
FF40000005FF30
ENDCHAR
STARTCHAR S
ENCODING 83
SWIDTH 593 0
DWIDTH 14 0
BBX 13 17 1 0
BITMAP
0017CEFD930000
03EFFEEFFF8000
1EFB30017EF700
6FE1000006FE10
7FC0000001FF30
6FF20000002310
1DFD5000000000
03DFFE95100000
0017DFFFE81000
0000048DFFD200
000000005DFC00
3310000003FF30
EF40000000FF50
BFA0000003FF30
3FFA30004DFC00
04EFFEDEFFD200
0017BEFEB71000
ENDCHAR
STARTCHAR T
ENCODING 84
SWIDTH 596 0
DWIDTH 14 0
BBX 14 17 0 0
BITMAP
6FFFFFFFFFFFFC
5DDDDDFFEDDDDA
000000EF400000
000000EF400000
000000EF400000
000000EF400000
000000EF400000
000000EF400000
000000EF400000
000000EF400000
000000EF400000
000000EF400000
000000EF400000
000000EF400000
000000EF400000
000000EF400000
000000EF400000
ENDCHAR
STARTCHAR U
ENCODING 85
SWIDTH 648 0
DWIDTH 16 0
BBX 13 17 1 0
BITMAP
5FD00000004FF0
5FD00000004FF0
5FD00000004FF0
5FD00000004FF0
5FD00000004FF0
5FD00000004FF0
5FD00000004FF0
5FD00000004FF0
5FD00000004FF0
5FD00000004FF0
5FD00000004FF0
5FD00000004FF0
4FF10000006FD0
1EF6000000CF90
07FF71002BFE20
009FFFDEFFE400
0004ADFEC81000
ENDCHAR
STARTCHAR V
ENCODING 86
SWIDTH 636 0
DWIDTH 15 0
BBX 15 17 0 0
BITMAP
7FE000000000AFC0
2FF400000001FF60
0BFA00000006FF10
06FE1000000BFA00
01EF5000001FF400
009FA000006FE000
004FF10000BF8000
000DF60002FF3000
0008FB0007FC0000
0002FF100CF60000
0000CF602FF10000
00006FB08FA00000
00001FF2DF500000
00000AFAFE000000
000004FFF9000000
000000EFF3000000
0000008FC0000000
ENDCHAR
STARTCHAR W
ENCODING 87
SWIDTH 887 0
DWIDTH 21 0
BBX 21 17 0 0
BITMAP
2FF1000004FD0000009FA0
0EF5000009FF200000CF60
0AF800000DFF700001FF30
07FC00002FEFB00004FE00
03FF00007F8EE00008FA00
00EF4000BF4AF4000BF700
00BF7001FE06F8000EF300
007FA004FA02FC003FE000
003FE009F600CF206FB000
000EF20DF1008F60AF7000
000BF62FC0004FA0DF3000
0007F96F80000EE2FE0000
0004FCAF30000AF7FB0000
0000FEEE000006FDF70000
0000CFF9000002FFF40000
00008FF5000000DFF00000
00004FF10000008FB00000
ENDCHAR
STARTCHAR X
ENCODING 88
SWIDTH 626 0
DWIDTH 15 0
BBX 15 17 0 0
BITMAP
0DFB0000000AFE10
04FF6000005FF500
009FE10001DFA000
001EFA0008FE2000
0005FF403FF60000
0000AFD1CFB00000
00001EFDFF200000
000006FFF7000000
000000EFF1000000
000007FFF9000000
00002FFBFF300000
0000CFC0BFD00000
0006FF302FF80000
002EF80007FF3000
00BFD10000CFC000
05FF4000003FF700
1EFA00000009FE20
ENDCHAR
STARTCHAR Y
ENCODING 89
SWIDTH 600 0
DWIDTH 14 0
BBX 14 17 0 0
BITMAP
8FE100000009FD
1EF80000002FF5
07FE100000AFC0
00DF900003FF40
005FF2000BFB00
000CF9003FF200
0004FF20BF9000
0000AFA4FE1000
00002FFDF70000
000009FFE10000
000001FF600000
000000EF500000
000000EF500000
000000EF500000
000000EF500000
000000EF500000
000000EF500000
ENDCHAR
STARTCHAR Z
ENCODING 90
SWIDTH 598 0
DWIDTH 14 0
BBX 13 17 1 0
BITMAP
DFFFFFFFFFFF10
BDDDDDDDDEFF10
000000002EF700
00000000CFC000
00000007FE2000
0000003FF60000
000000DFA00000
000008FE100000
00004FF5000000
0001DF90000000
000AFD10000000
005FF300000000
02EF8000000000
0BFC0000000000
6FE20000000000
EFEDDDDDDDDD60
FFFFFFFFFFFF70
ENDCHAR
STARTCHAR bracketleft
ENCODING 91
SWIDTH 265 0
DWIDTH 6 0
BBX 6 24 1 -4
BITMAP
4FFFF2
4FFCC1
4FD000
4FD000
4FD000
4FD000
4FD000
4FD000
4FD000
4FD000
4FD000
4FD000
4FD000
4FD000
4FD000
4FD000
4FD000
4FD000
4FD000
4FD000
4FD000
4FD000
4FFCC1
4FFFF2
ENDCHAR
STARTCHAR backslash
ENCODING 92
SWIDTH 410 0
DWIDTH 10 0
BBX 10 18 0 -1
BITMAP
5FB0000000
0EF2000000
08F8000000
02FE000000
00BF500000
005FB00000
000EF20000
0008F70000
0003FD0000
0000CF4000
00006FA000
00001EF100
000009F700
000003FD00
000000CF40
0000006FA0
0000001EF1
00000009F7
ENDCHAR
STARTCHAR bracketright
ENCODING 93
SWIDTH 265 0
DWIDTH 6 0
BBX 5 24 0 -4
BITMAP
DFFF80
ACEF80
009F80
009F80
009F80
009F80
009F80
009F80
009F80
009F80
009F80
009F80
009F80
009F80
009F80
009F80
009F80
009F80
009F80
009F80
009F80
009F80
ACEF80
DFFF80
ENDCHAR
STARTCHAR asciicircum
ENCODING 94
SWIDTH 417 0
DWIDTH 10 0
BBX 10 8 0 9
BITMAP
0001EE1000
0006FF6000
000DFFD000
004FBBF400
00BF44FB00
02FD00DF20
09F6006F90
1EE1001EE1
ENDCHAR
STARTCHAR underscore
ENCODING 95
SWIDTH 451 0
DWIDTH 11 0
BBX 11 2 0 -2
BITMAP
EFFFFFFFFFC0
BCCCCCCCCC90
ENDCHAR
STARTCHAR grave
ENCODING 96
SWIDTH 309 0
DWIDTH 7 0
BBX 6 3 0 15
BITMAP
1CFB00
01CFA0
001BC3
ENDCHAR
STARTCHAR a
ENCODING 97
SWIDTH 543 0
DWIDTH 13 0
BBX 11 13 1 0
BITMAP
003ADFEB4000
07FFDCEFF500
3FF50008FE00
49700000EF30
00000000DF40
004ADFFFFF40
09FFB988EF40
5FE30000DF40
AF800000DF40
AF900002FF40
7FE4005DFF50
1DFFEFFEEF60
019DFD91AFA0
ENDCHAR
STARTCHAR b
ENCODING 98
SWIDTH 561 0
DWIDTH 13 0
BBX 12 18 1 0
BITMAP
5FC000000000
5FC000000000
5FC000000000
5FC000000000
5FC000000000
5FC29EFD8100
5FEEFDEFFC00
5FFC2004EF80
5FE100007FE0
5FC000001FF3
5FC000000EF5
5FC000000CF5
5FC000000DF5
5FC000001FF3
5FE100006FE0
5FFC2004EF70
5FDEFDEFFC00
5FA29EFD8100
ENDCHAR
STARTCHAR c
ENCODING 99
SWIDTH 523 0
DWIDTH 13 0
BBX 11 13 1 0
BITMAP
0028DEEB4000
03EFECEFF700
1DF91006FF30
6FC000009F90
BF7000003960
DF4000000000
EF4000000000
DF5000000000
BF7000001430
6FD000008F90
1DF91005FF30
03EFECDFF600
0029DFEA3000
ENDCHAR
STARTCHAR d
ENCODING 100
SWIDTH 563 0
DWIDTH 14 0
BBX 11 18 1 0
BITMAP
000000005FC0
000000005FC0
000000005FC0
000000005FC0
000000005FC0
003AEFC65FC0
04FFFDEFDFC0
1EFB1006FFC0
6FD100007FC0
AF8000005FC0
DF5000005FC0
DF4000005FC0
CF6000005FC0
AF8000005FC0
6FE100008FC0
1EFA1006FFC0
04FFFDEFCFC0
003AEEC63FC0
ENDCHAR
STARTCHAR e
ENCODING 101
SWIDTH 529 0
DWIDTH 13 0
BBX 11 13 1 0
BITMAP
0017CEEB4000
02CFFCEFF600
0CFA1006FF20
5FC00000AF80
AF7000006FB0
CFFFFFFFFFC0
DFDCCCCCCCA0
DF6000000000
BF9000000000
6FE200000300
1DFC20019F60
03DFFCCFFC10
0018DFEC7000
ENDCHAR
STARTCHAR f
ENCODING 102
SWIDTH 347 0
DWIDTH 8 0
BBX 9 18 0 0
BITMAP
00006CEE40
0009FFED40
002FF70000
004FE00000
004FD00000
4FFFFFF900
3ACFEAA600
004FD00000
004FD00000
004FD00000
004FD00000
004FD00000
004FD00000
004FD00000
004FD00000
004FD00000
004FD00000
004FD00000
ENDCHAR
STARTCHAR g
ENCODING 103
SWIDTH 561 0
DWIDTH 13 0
BBX 11 18 1 -5
BITMAP
003BEEC63FD0
04FFFDEFCFD0
1EFB1006FFD0
6FE100007FD0
AF9000005FD0
CF6000005FD0
DF5000005FD0
CF6000005FD0
AF9000005FD0
6FE100007FD0
1EFA1006FFD0
04FFFDEFDFD0
003BEFC65FD0
000000007FC0
04200000CF80
1ED40008FF20
07FFDCEFF600
003ADFEA3000
ENDCHAR
STARTCHAR h
ENCODING 104
SWIDTH 550 0
DWIDTH 13 0
BBX 11 18 1 0
BITMAP
5FC000000000
5FC000000000
5FC000000000
5FC000000000
5FC000000000
5FC18DFE9100
5FDCFEEFFC00
5FFD3005FF40
5FE20000BF80
5FC000009F90
5FC000008F90
5FC000008F90
5FC000008F90
5FC000008F90
5FC000008F90
5FC000008F90
5FC000008F90
5FC000008F90
ENDCHAR
STARTCHAR i
ENCODING 105
SWIDTH 242 0
DWIDTH 6 0
BBX 4 18 1 0
BITMAP
0650
4FF2
2ED1
0000
0000
3FF0
3FF0
3FF0
3FF0
3FF0
3FF0
3FF0
3FF0
3FF0
3FF0
3FF0
3FF0
3FF0
ENDCHAR
STARTCHAR j
ENCODING 106
SWIDTH 238 0
DWIDTH 6 0
BBX 5 23 -1 -5
BITMAP
001640
007FE0
004EB0
000000
000000
004FD0
004FD0
004FD0
004FD0
004FD0
004FD0
004FD0
004FD0
004FD0
004FD0
004FD0
004FD0
004FD0
004FD0
005FD0
009FB0
BEFF50
AED700
ENDCHAR
STARTCHAR k
ENCODING 107
SWIDTH 506 0
DWIDTH 12 0
BBX 11 18 1 0
BITMAP
5FC000000000
5FC000000000
5FC000000000
5FC000000000
5FC000000000
5FC00008FE30
5FC0007FF400
5FC006FF5000
5FC05FF60000
5FC3FF700000
5FDEFD000000
5FFFFF600000
5FFA7FE30000
5FD00BFC1000
5FC001DF9000
5FC0004FF500
5FC00008FE20
5FC00000BFB0
ENDCHAR
STARTCHAR l
ENCODING 108
SWIDTH 242 0
DWIDTH 6 0
BBX 3 18 1 0
BITMAP
3FF0
3FF0
3FF0
3FF0
3FF0
3FF0
3FF0
3FF0
3FF0
3FF0
3FF0
3FF0
3FF0
3FF0
3FF0
3FF0
3FF0
3FF0
ENDCHAR
STARTCHAR m
ENCODING 109
SWIDTH 876 0
DWIDTH 21 0
BBX 19 13 1 0
BITMAP
6FB29DFD8104BEFD7000
6FDEFDEFFB6FFDFFF900
6FFA1006FFFA1008FF10
6FE00000CFD00000EF50
6FC000009FA00000CF60
6FC000009F900000CF60
6FC000009F900000CF60
6FC000009F900000CF60
6FC000009F900000CF60
6FC000009F900000CF60
6FC000009F900000CF60
6FC000009F900000CF60
6FC000009F900000CF60
ENDCHAR
STARTCHAR n
ENCODING 110
SWIDTH 551 0
DWIDTH 13 0
BBX 11 13 1 0
BITMAP
5FB18DFE9100
5FCCFEEFFC00
5FFD3005FF40
5FE20000BF80
5FC000009F90
5FC000008F90
5FC000008F90
5FC000008F90
5FC000008F90
5FC000008F90
5FC000008F90
5FC000008F90
5FC000008F90
ENDCHAR
STARTCHAR o
ENCODING 111
SWIDTH 570 0
DWIDTH 14 0
BBX 12 13 1 0
BITMAP
0017CEEB5000
02DFFCDFFA00
0CFB1004EF80
5FE100005FF1
AF8000000DF5
DF5000000AF8
EF40000009F9
DF5000000AF8
BF8000000DF6
6FE100004FF1
0DFB1003DF80
02DFFCDFFA00
0018DFEB5000
ENDCHAR
STARTCHAR p
ENCODING 112
SWIDTH 561 0
DWIDTH 13 0
BBX 12 18 1 -5
BITMAP
5FA2AEFD8100
5FDEFDEFFC00
5FFB2006FF70
5FD000008FE0
5FC000001FF3
5FC000000EF5
5FC000000DF5
5FC000000DF5
5FC000001FF3
5FD000007FE0
5FF91004EF70
5FEEECDFFB00
5FC2AEFD8100
5FC000000000
5FC000000000
5FC000000000
5FC000000000
5FC000000000
ENDCHAR
STARTCHAR q
ENCODING 113
SWIDTH 568 0
DWIDTH 14 0
BBX 11 18 1 -5
BITMAP
003BEFC73FC0
05FFFCDFDFC0
1EFA1005EFC0
7FD100007FC0
BF8000005FC0
DF5000005FC0
DF4000005FC0
DF6000005FC0
AF8000005FC0
6FE100007FC0
1EFA1005EFC0
04FFECDFEFC0
003BEFC76FC0
000000005FC0
000000005FC0
000000005FC0
000000005FC0
000000005FC0
ENDCHAR
STARTCHAR r
ENCODING 114
SWIDTH 338 0
DWIDTH 8 0
BBX 7 13 1 0
BITMAP
5FB3BEB0
5FDEFFC0
5FFD5220
5FE20000
5FC00000
5FC00000
5FC00000
5FC00000
5FC00000
5FC00000
5FC00000
5FC00000
5FC00000
ENDCHAR
STARTCHAR s
ENCODING 115
SWIDTH 515 0
DWIDTH 12 0
BBX 11 13 1 0
BITMAP
005BEFD92000
08FFDCFFE200
3FF4002CFB00
6FC00003FE00
5FE300000000
0BFFC8400000
007DFFFD7000
000026AFF900
22100005FF10
CF700000FF20
7FE40008FE00
0BFFDCEFF500
006BEFDA3000
ENDCHAR
STARTCHAR t
ENCODING 116
SWIDTH 326 0
DWIDTH 8 0
BBX 7 16 0 0
BITMAP
009F9000
009F9000
009F9000
DFFFFFE0
9ADFDAA0
009F9000
009F9000
009F9000
009F9000
009F9000
009F9000
009F9000
009F9000
007FC000
003FFEE0
0005DED0
ENDCHAR
STARTCHAR u
ENCODING 117
SWIDTH 551 0
DWIDTH 13 0
BBX 11 13 1 0
BITMAP
6FC000009F90
6FC000009F90
6FC000009F90
6FC000009F90
6FC000009F90
6FC000009F90
6FC000009F90
6FC000009F90
6FC000009F90
5FE00000BF90
1FF80019FF90
08FFEDFFDF90
007DFEB48F90
ENDCHAR
STARTCHAR v
ENCODING 118
SWIDTH 484 0
DWIDTH 12 0
BBX 12 13 0 0
BITMAP
7FC000003FE1
1FF100008FA0
0BF60000CF50
06FB0002FE00
01FF1007F900
00AF600BF400
005FB01FE000
000EF16F8000
0009F5BF3000
0004FBFD0000
0000DFF80000
00008FF20000
00003FC00000
ENDCHAR
STARTCHAR w
ENCODING 119
SWIDTH 751 0
DWIDTH 18 0
BBX 18 13 0 0
BITMAP
5FC00001FF10000CF5
1FF10005FF50001FF1
0CF4000AFF90005FB0
08F8000EDEE0008F70
03FC004F8AF300CF30
00EF108F35F801FE00
00AF50DE01FC04F900
006F93F900AF28F500
001FD7F5006F7CF100
000CFDE1001FCFC000
0008FFA0000BFF7000
0004FF600007FF3000
0000EF100002FE0000
ENDCHAR
STARTCHAR x
ENCODING 120
SWIDTH 495 0
DWIDTH 12 0
BBX 12 13 0 0
BITMAP
2EF600009FD1
06FE1003FF40
00CF900CF900
002FF36FE100
0007FBEF5000
0000CFFA0000
00006FF40000
0001DFFC0000
0009FBCF7000
004FF24FE200
00DF800AFB00
08FD1001EF60
3FF500007FE2
ENDCHAR
STARTCHAR y
ENCODING 121
SWIDTH 473 0
DWIDTH 11 0
BBX 11 18 0 -5
BITMAP
8FC000006FD0
3FF20000BF80
0DF70001FF30
07FC0005FD00
02FF200AF800
00CF700EF300
006FC04FC000
001FF28F7000
000BF6DF2000
0005FDFC0000
0001EFF70000
00009FF20000
00005FB00000
00008F600000
0000EF100000
0019F9000000
0EFFE2000000
0EEB20000000
ENDCHAR
STARTCHAR z
ENCODING 122
SWIDTH 495 0
DWIDTH 12 0
BBX 11 13 1 0
BITMAP
DFFFFFFFFB00
ACCCCCCFFA00
0000007FE200
000003FF5000
00001DF90000
0000AFC00000
0006FE300000
002EF6000000
00CFA0000000
09FD10000000
5FF400000000
EFECCCCCCC10
FFFFFFFFFF10
ENDCHAR
STARTCHAR braceleft
ENCODING 123
SWIDTH 338 0
DWIDTH 8 0
BBX 8 23 0 -4
BITMAP
000002A8
00004EF8
0001EF50
0006FC00
0009F800
000BF600
000CF600
000CF600
000CF500
001EF300
02AFC000
4FFC2000
3CFE5000
006FE100
000EF400
000CF600
000CF600
000BF600
000BF700
0008FA00
0002FF30
00006FE6
000003A8
ENDCHAR
STARTCHAR bar
ENCODING 124
SWIDTH 243 0
DWIDTH 6 0
BBX 2 20 2 -3
BITMAP
EC
EC
EC
EC
EC
EC
EC
EC
EC
EC
EC
EC
EC
EC
EC
EC
EC
EC
EC
EC
ENDCHAR
STARTCHAR braceright
ENCODING 125
SWIDTH 338 0
DWIDTH 8 0
BBX 8 23 0 -4
BITMAP
7A300000
6EF50000
04FF2000
00AF8000
006FC000
005FD000
005FD000
005FD000
004FE000
002FF200
000AFB20
0001AFF5
0003DFD4
000DF700
003FF000
005FD000
005FD000
005FD000
006FC000
009F9000
02EF3000
6EF60000
7A300000
ENDCHAR
STARTCHAR asciitilde
ENCODING 126
SWIDTH 680 0
DWIDTH 16 0
BBX 14 5 1 4
BITMAP
007DFC400000A8
08FFEFF80003FA
2FE205EFA22CF5
6F80003DFFFFB0
383000019DD810
ENDCHAR
STARTCHAR uni00A0
ENCODING 160
SWIDTH 247 0
DWIDTH 6 0
BBX 1 1 0 0
BITMAP
00
ENDCHAR
STARTCHAR exclamdown
ENCODING 161
SWIDTH 243 0
DWIDTH 6 0
BBX 4 17 1 -4
BITMAP
2EC1
5FF2
0650
0000
0220
0FF0
0FF0
1FF0
1FF0
1FF0
1FF0
1FF1
1FF1
2FF1
2FF1
2FF1
2FF2
ENDCHAR
STARTCHAR cent
ENCODING 162
SWIDTH 546 0
DWIDTH 13 0
BBX 11 19 1 -3
BITMAP
000039800000
00005FD00000
00005FD00000
0019EFFC6000
02EFEBCFF900
0CFA1003EF60
4FE100006FB0
9F9000001870
BF7000000000
BF6000000000
BF7000000000
9F9000000220
5FE100005FC0
0CFA0002DF70
03EFEABFFA00
0029EFFC6000
00005FD00000
00005FD00000
00004BA00000
ENDCHAR
STARTCHAR sterling
ENCODING 163
SWIDTH 581 0
DWIDTH 14 0
BBX 13 17 1 0
BITMAP
00007CEEC70000
001CFFEEFFB000
008FE4005FF700
00EF700009FB00
02FF3000038700
02FF2000000000
02FF2000000000
01FF3000000000
EFFFFFFE000000
CDFFDDDC000000
00FF4000000000
00EF5000000000
00EF5000000000
00FF3000000000
05FD0000000000
BFFEDDDDDDDD30
DFFFFFFFFFFF30
ENDCHAR
STARTCHAR currency
ENCODING 164
SWIDTH 712 0
DWIDTH 17 0
BBX 15 16 1 0
BITMAP
0200000000000200
2E803ADFEB505F50
7FFCFFFFFFFCFFB0
09FFF93127EFFC10
04FF4000002EF800
0CF700000004FE10
2FE100000000CF50
4FB0000000008F80
5FA0000000007F90
4FB0000000008F80
2FE100000000CF50
0CF700000004FE10
05FF4000002EF900
1CFFF93127EFFE30
8FFAFFFFFFFBDFC0
1B503ADFEB502C20
ENDCHAR
STARTCHAR yen
ENCODING 165
SWIDTH 524 0
DWIDTH 13 0
BBX 13 17 0 0
BITMAP
9FE0000005FF30
2FF600000CFB00
09FD00004FF300
02FF5000BFB000
00AFC003FF4000
003FF40AFC0000
000BFB2FF50000
0004FFBFD00000
0000BFFF500000
09FFFFFFFFF300
04777EFA777100
00000DF6000000
09FFFFFFFFF300
04777EFA777100
00000DF6000000
00000DF6000000
00000DF6000000
ENDCHAR
STARTCHAR brokenbar
ENCODING 166
SWIDTH 239 0
DWIDTH 6 0
BBX 3 20 1 -3
BITMAP
4FE0
4FE0
4FE0
4FE0
4FE0
4FE0
4FE0
4FE0
4FE0
0000
0000
4FE0
4FE0
4FE0
4FE0
4FE0
4FE0
4FE0
4FE0
4FE0
ENDCHAR
STARTCHAR section
ENCODING 167
SWIDTH 613 0
DWIDTH 15 0
BBX 13 23 1 -6
BITMAP
0018CEFEB50000
03EFFDCEFFB000
0DFB20006EF800
4FF1000007FE00
5FD0000002FF20
3FF30000001100
0BFE8200000000
02EFFFD8300000
1DFCBEFFFD5000
9FB0015AFFF700
CF5000001AFF20
CF60000000EF50
8FE4000000CF60
1DFFC72004FF20
019FFFFDAFF700
00026BFFFF9000
00000016DFF400
110000000BFB00
DF40000005FD00
BF90000007FC00
4FF810006FF700
07FFFDCEFFA000
0039DEFEB50000
ENDCHAR
STARTCHAR dieresis
ENCODING 168
SWIDTH 417 0
DWIDTH 10 0
BBX 8 3 1 15
BITMAP
26200262
BFA00BFB
8E7007E7
ENDCHAR
STARTCHAR copyright
ENCODING 169
SWIDTH 785 0
DWIDTH 19 0
BBX 17 17 1 0
BITMAP
000017CEFEB6000000
0005EFB878CFD30000
007FA2000003CE4000
04F7019EFD600AE200
1EA00CFB8DF701DB00
6F206F8000DE005F20
BB00AF10008D100E70
D800CE000000000C90
E700CD000000000AA0
D800CE000000000C90
AB00AF10009D100E70
6F206F7000DE005F20
1EA00CFA8CF701DB00
04F7019EEC600AE200
007FA1000003CE4000
0005EFA868BFD30000
000017CEFEB6000000
ENDCHAR
STARTCHAR ordfeminine
ENCODING 170
SWIDTH 446 0
DWIDTH 11 0
BBX 9 9 1 8
BITMAP
018DED7000
0AFDAEF600
0DD003FB00
000001FD00
03AEFFFD00
1EF855FD00
3FB001FD00
1EFAAEFE00
04CED6BC10
ENDCHAR
STARTCHAR guillemotleft
ENCODING 171
SWIDTH 469 0
DWIDTH 11 0
BBX 9 9 1 2
BITMAP
000BD11CC0
008F40AF30
05F907F800
2ED14FC000
AF70CF5000
2ED14FC000
05F907F700
008F40AF30
000BD11CC0
ENDCHAR
STARTCHAR logicalnot
ENCODING 172
SWIDTH 553 0
DWIDTH 13 0
BBX 11 5 1 4
BITMAP
8FFFFFFFFF40
7DDDDDDDFF40
00000000EF40
00000000EF40
00000000EF40
ENDCHAR
STARTCHAR uni00AD
ENCODING 173
SWIDTH 275 0
DWIDTH 7 0
BBX 7 2 0 6
BITMAP
8FFFFF20
6CCCCC20
ENDCHAR
STARTCHAR registered
ENCODING 174
SWIDTH 786 0
DWIDTH 19 0
BBX 17 17 1 0
BITMAP
000017CEFEB5000000
0005EFA878CFD30000
007FA2000003CE4000
05F7000000000AE200
1EA00FFFFD8101DB00
6F200FC78AFA005F20
BB000FA000BE000E70
D8000FA003EC000C90
E7000FFFFFD2000AA0
D8000FC88AF8000C90
AB000FA000CE000E70
6F200FA000BE005F20
1EA00FA000AF11DA00
04F7000000000AE200
007F91000003CE4000
0005EFA868BFD30000
000017CEFEB6000000
ENDCHAR
STARTCHAR macron
ENCODING 175
SWIDTH 458 0
DWIDTH 11 0
BBX 9 2 1 15
BITMAP
5FFFFFFF80
3AAAAAAA60
ENDCHAR
STARTCHAR degree
ENCODING 176
SWIDTH 373 0
DWIDTH 9 0
BBX 7 7 1 10
BITMAP
02BEB200
1DD8DD10
5F303F50
6F000F60
3F817F30
08FFF800
00474000
ENDCHAR
STARTCHAR plusminus
ENCODING 177
SWIDTH 534 0
DWIDTH 13 0
BBX 11 15 1 0
BITMAP
00004C800000
00005F900000
00005F900000
00005F900000
00005F900000
DFFFFFFFFFD0
ACCCDFECCCA0
00005F900000
00005F900000
00005F900000
00005F900000
000039600000
000000000000
5CCCCCCCCC40
6FFFFFFFFF60
ENDCHAR
STARTCHAR uni00B2
ENCODING 178
SWIDTH 366 0
DWIDTH 9 0
BBX 8 9 0 8
BITMAP
018DEC50
0BFB8DF4
2FB004F9
011008F6
00006FC0
0008FB10
009F9000
0BFC8888
0FFFFFFF
ENDCHAR
STARTCHAR uni00B3
ENCODING 179
SWIDTH 366 0
DWIDTH 9 0
BBX 8 9 0 8
BITMAP
02AEEC60
0DFA8DF5
175004F9
000019F6
000DFF90
00056BF6
296001FB
1DFA8CF8
02AEED70
ENDCHAR
STARTCHAR acute
ENCODING 180
SWIDTH 313 0
DWIDTH 8 0
BBX 6 3 1 15
BITMAP
00BFB1
0AFB10
3CA000
ENDCHAR
STARTCHAR mu
ENCODING 181
SWIDTH 566 0
DWIDTH 14 0
BBX 11 18 1 -5
BITMAP
3FF000006FC0
3FF000006FC0
3FF000006FC0
3FF000006FC0
3FF000006FC0
3FF000006FC0
3FF000006FC0
3FF000006FC0
3FF100006FC0
3FF400007FC0
3FFC1004EFC0
3FFFECDFDFC0
3FF7DFD83B90
3FF000000000
3FF000000000
3FF000000000
3FF000000000
3FF000000000
ENDCHAR
STARTCHAR paragraph
ENCODING 182
SWIDTH 488 0
DWIDTH 12 0
BBX 10 17 0 0
BITMAP
0004BEFFFB
009FFFFFFB
07FFFFFFFB
0DFFFFFFFB
2FFFFFFFFB
3FFFFFFFFB
2FFFFFFFFB
0DFFFFFFFB
06FFFFFFFB
008FFFFFFB
00049DEEFB
00000006FB
00000006FB
00000006FB
00000006FB
00000006FB
00000006FB
ENDCHAR
STARTCHAR periodcentered
ENCODING 183
SWIDTH 260 0
DWIDTH 6 0
BBX 4 3 1 7
BITMAP
1DE2
3FF6
0781
ENDCHAR
STARTCHAR cedilla
ENCODING 184
SWIDTH 247 0
DWIDTH 6 0
BBX 4 5 1 -5
BITMAP
5F70
5BFA
00CE
37EB
9D91
ENDCHAR
STARTCHAR uni00B9
ENCODING 185
SWIDTH 366 0
DWIDTH 9 0
BBX 5 9 1 8
BITMAP
147BB0
8FFFC0
441FC0
000FC0
000FC0
000FC0
000FC0
000FC0
000FC0
ENDCHAR
STARTCHAR ordmasculine
ENCODING 186
SWIDTH 454 0
DWIDTH 11 0
BBX 9 9 1 8
BITMAP
018DFD7000
0BFDAEFA00
4FC001DF30
8F60008F60
8F50007F70
8F60008F60
4FC001DF30
0BFDADFA00
018DFD8000
ENDCHAR
STARTCHAR guillemotright
ENCODING 187
SWIDTH 468 0
DWIDTH 11 0
BBX 10 9 1 2
BITMAP
7F406F5000
0CE20AE300
02FC01ED10
007F905FB0
000EF30DF4
007F905FB0
02FC01ED10
0CE20AE300
7F406F5000
ENDCHAR
STARTCHAR onequarter
ENCODING 188
SWIDTH 732 0
DWIDTH 18 0
BBX 16 17 1 0
BITMAP
259D500000000000
FFEF500000000000
627F5000001C3000
007F500000AE2000
007F500004F70000
007F50000DC00000
007F50008F300000
007F5003F8000000
007F500CD100CF70
0000006F4007FF70
000002EA003FDF70
00000AE101DC6F70
00005F6009E26F70
0001DB004F506F70
0009F200CFFFFFFB
000870006888BFB6
0000000000006F70
ENDCHAR
STARTCHAR onehalf
ENCODING 189
SWIDTH 775 0
DWIDTH 19 0
BBX 18 17 0 0
BITMAP
0269D4000000000000
1FFEF4000000000000
0518F4000008800000
0008F400003F800000
0008F40000CD100000
0008F40006F4000000
0008F4001EA0000000
0008F400AE10000000
0008F405F605CED910
0000001DB05FD8BFA0
0000008F20BF200EE0
000003F80011003FC0
00000CD0000003DE30
00007F4000004EE400
0002E9000005FC2000
0003C100006FE88883
0000000000AFFFFFF5
ENDCHAR
STARTCHAR threequarters
ENCODING 190
SWIDTH 777 0
DWIDTH 19 0
BBX 17 17 1 0
BITMAP
06CEEB400000000000
5FD99EF10000000000
12101CF20000880000
005FFE400003F80000
00258ED1000CD10000
000008F5006F400000
8E4009F401EA000000
4FE89FD10AE1000000
05CEEA205F600BF800
00000001DB006FF800
00000008F202EDF800
0000003F800CD5F800
000000CD007F35F800
000007F403F705F800
00002E900BFFFFFFC0
00003C1006888AFC60
00000000000005F800
ENDCHAR
STARTCHAR questiondown
ENCODING 191
SWIDTH 473 0
DWIDTH 11 0
BBX 11 18 0 -5
BITMAP
00004EA00000
00008FE00000
000016300000
000000000000
000000000000
00005EC00000
00007FB00000
0000DF700000
000AFD100000
009FE3000000
04FF40000000
0CF800000000
1FF200000000
3FF000003420
1FF30000EF50
0CFB2019FE10
03EFFEFFF500
002AEFEA3000
ENDCHAR
STARTCHAR Agrave
ENCODING 192
SWIDTH 652 0
DWIDTH 16 0
BBX 16 21 0 0
BITMAP
00004FF500000000
000004FF40000000
0000004D90000000
0000000000000000
0000005FE1000000
000000BFF6000000
000002FFFC000000
000008F9EF200000
00000DF38F800000
00004FD03FE00000
0000AF800DF50000
0001FF2008FA0000
0006FC0002FF1000
000CF70000CF7000
003FF200007FD000
009FFFFFFFFFF300
00EFDDDDDDDEF900
05FE10000005FE10
0BF900000000EF60
2FF3000000008FC0
7FD0000000002FF2
ENDCHAR
STARTCHAR Aacute
ENCODING 193
SWIDTH 652 0
DWIDTH 16 0
BBX 16 21 0 0
BITMAP
000000008FD20000
00000006FD200000
0000001BC2000000
0000000000000000
0000005FE1000000
000000BFF6000000
000002FFFC000000
000008F9EF200000
00000DF38F800000
00004FD03FE00000
0000AF800DF50000
0001FF2008FA0000
0006FC0002FF1000
000CF70000CF7000
003FF200007FD000
009FFFFFFFFFF300
00EFDDDDDDDEF900
05FE10000005FE10
0BF900000000EF60
2FF3000000008FC0
7FD0000000002FF2
ENDCHAR
STARTCHAR Acircumflex
ENCODING 194
SWIDTH 652 0
DWIDTH 16 0
BBX 16 21 0 0
BITMAP
0000006FE3000000
000009F9CF600000
00004C901CB20000
0000000000000000
0000005FE1000000
000000BFF6000000
000002FFFC000000
000008F9EF200000
00000DF38F800000
00004FD03FE00000
0000AF800DF50000
0001FF2008FA0000
0006FC0002FF1000
000CF70000CF7000
003FF200007FD000
009FFFFFFFFFF300
00EFDDDDDDDEF900
05FE10000005FE10
0BF900000000EF60
2FF3000000008FC0
7FD0000000002FF2
ENDCHAR
STARTCHAR Atilde
ENCODING 195
SWIDTH 652 0
DWIDTH 16 0
BBX 16 21 0 0
BITMAP
00001895007C0000
0000CFFFDBFB0000
0002F715CEB20000
0000000000000000
0000005FE1000000
000000BFF6000000
000002FFFC000000
000008F9EF200000
00000DF38F800000
00004FD03FE00000
0000AF800DF50000
0001FF2008FA0000
0006FC0002FF1000
000CF70000CF7000
003FF200007FD000
009FFFFFFFFFF300
00EFDDDDDDDEF900
05FE10000005FE10
0BF900000000EF60
2FF3000000008FC0
7FD0000000002FF2
ENDCHAR
STARTCHAR Adieresis
ENCODING 196
SWIDTH 652 0
DWIDTH 16 0
BBX 16 21 0 0
BITMAP
0000361002610000
0000CF900CFA0000
00009E6008E60000
0000000000000000
0000005FE1000000
000000BFF6000000
000002FFFC000000
000008F9EF200000
00000DF38F800000
00004FD03FE00000
0000AF800DF50000
0001FF2008FA0000
0006FC0002FF1000
000CF70000CF7000
003FF200007FD000
009FFFFFFFFFF300
00EFDDDDDDDEF900
05FE10000005FE10
0BF900000000EF60
2FF3000000008FC0
7FD0000000002FF2
ENDCHAR
STARTCHAR Aring
ENCODING 197
SWIDTH 652 0
DWIDTH 16 0
BBX 16 23 0 0
BITMAP
0000008ED5000000
000006D34E200000
000009800C500000
000006D24E200000
0000008ED6000000
0000000000000000
0000005FE1000000
000000BFF6000000
000002FFFC000000
000008F9EF200000
00000DF38F800000
00004FD03FE00000
0000AF800DF50000
0001FF2008FA0000
0006FC0002FF1000
000CF70000CF7000
003FF200007FD000
009FFFFFFFFFF300
00EFDDDDDDDEF900
05FE10000005FE10
0BF900000000EF60
2FF3000000008FC0
7FD0000000002FF2
ENDCHAR
STARTCHAR AE
ENCODING 198
SWIDTH 934 0
DWIDTH 22 0
BBX 22 17 0 0
BITMAP
0000000003FFFFFFFFFFF4
000000000BFFFCCCCCCCC3
000000005FDEF400000000
00000001EF5EF400000000
00000009FC0DF500000000
0000003FF30CF600000000
000000CFA00CF600000000
000006FE200BFFFFFFFF50
00001EF8000AFDCCCCCC40
00009FD1000AF800000000
0003FF500009F900000000
000CFFFFFFFFF900000000
007FFFFFFFFFFA00000000
01EF91111118FA00000000
0AFE10000007FB00000000
4FF600000006FECCCCCCCC
DFC000000005FFFFFFFFFF
ENDCHAR
STARTCHAR Ccedilla
ENCODING 199
SWIDTH 650 0
DWIDTH 16 0
BBX 14 22 1 -5
BITMAP
00016CEFDA4000
002DFFEEFFF800
01EFC30017FF60
0AFC1000007FE0
1FF40000001FF5
5FE000000009B5
7FB00000000000
9FA00000000000
9FA00000000000
9FA00000000000
8FB00000000000
6FE000000008A5
2FF30000001FF4
0AFC0000007FE0
02EFB20017FF60
003EFFEEFFF800
00018CEFDA3000
000000DC200000
000000AEE30000
00000004F60000
0000015BF30000
000002EC500000
ENDCHAR
STARTCHAR Egrave
ENCODING 200
SWIDTH 568 0
DWIDTH 14 0
BBX 11 21 2 0
BITMAP
01CFA0000000
001CF9000000
0001CC300000
000000000000
FFFFFFFFFFB0
FFDDDDDDDD90
FF4000000000
FF4000000000
FF4000000000
FF4000000000
FF4000000000
FFFFFFFFF900
FFDDDDDDD800
FF4000000000
FF4000000000
FF4000000000
FF4000000000
FF4000000000
FF4000000000
FFDDDDDDDDA0
FFFFFFFFFFC0
ENDCHAR
STARTCHAR Eacute
ENCODING 201
SWIDTH 568 0
DWIDTH 14 0
BBX 11 21 2 0
BITMAP
000003EF7000
00002EF60000
00007D500000
000000000000
FFFFFFFFFFB0
FFDDDDDDDD90
FF4000000000
FF4000000000
FF4000000000
FF4000000000
FF4000000000
FFFFFFFFF900
FFDDDDDDD800
FF4000000000
FF4000000000
FF4000000000
FF4000000000
FF4000000000
FF4000000000
FFDDDDDDDDA0
FFFFFFFFFFC0
ENDCHAR
STARTCHAR Ecircumflex
ENCODING 202
SWIDTH 568 0
DWIDTH 14 0
BBX 11 21 2 0
BITMAP
0002DF800000
004ED8FA1000
01BD207D6000
000000000000
FFFFFFFFFFB0
FFDDDDDDDD90
FF4000000000
FF4000000000
FF4000000000
FF4000000000
FF4000000000
FFFFFFFFF900
FFDDDDDDD800
FF4000000000
FF4000000000
FF4000000000
FF4000000000
FF4000000000
FF4000000000
FFDDDDDDDDA0
FFFFFFFFFFC0
ENDCHAR
STARTCHAR Edieresis
ENCODING 203
SWIDTH 568 0
DWIDTH 14 0
BBX 11 21 2 0
BITMAP
016300064000
07FE006FF100
04EB003EC000
000000000000
FFFFFFFFFFB0
FFDDDDDDDD90
FF4000000000
FF4000000000
FF4000000000
FF4000000000
FF4000000000
FFFFFFFFF900
FFDDDDDDD800
FF4000000000
FF4000000000
FF4000000000
FF4000000000
FF4000000000
FF4000000000
FFDDDDDDDDA0
FFFFFFFFFFC0
ENDCHAR
STARTCHAR Igrave
ENCODING 204
SWIDTH 271 0
DWIDTH 7 0
BBX 6 21 -1 0
BITMAP
1CFA00
01CF90
001CC3
000000
000DF6
000DF6
000DF6
000DF6
000DF6
000DF6
000DF6
000DF6
000DF6
000DF6
000DF6
000DF6
000DF6
000DF6
000DF6
000DF6
000DF6
ENDCHAR
STARTCHAR Iacute
ENCODING 205
SWIDTH 271 0
DWIDTH 7 0
BBX 5 21 2 0
BITMAP
03EF70
2EF600
7D5000
000000
DF6000
DF6000
DF6000
DF6000
DF6000
DF6000
DF6000
DF6000
DF6000
DF6000
DF6000
DF6000
DF6000
DF6000
DF6000
DF6000
DF6000
ENDCHAR
STARTCHAR Icircumflex
ENCODING 206
SWIDTH 271 0
DWIDTH 7 0
BBX 8 21 -1 0
BITMAP
002DF800
04ED8FA1
1AD207D6
00000000
000DF600
000DF600
000DF600
000DF600
000DF600
000DF600
000DF600
000DF600
000DF600
000DF600
000DF600
000DF600
000DF600
000DF600
000DF600
000DF600
000DF600
ENDCHAR
STARTCHAR Idieresis
ENCODING 207
SWIDTH 271 0
DWIDTH 7 0
BBX 9 21 -1 0
BITMAP
1640006400
6FF006FF10
4EB003EC00
0000000000
000DF60000
000DF60000
000DF60000
000DF60000
000DF60000
000DF60000
000DF60000
000DF60000
000DF60000
000DF60000
000DF60000
000DF60000
000DF60000
000DF60000
000DF60000
000DF60000
000DF60000
ENDCHAR
STARTCHAR Eth
ENCODING 208
SWIDTH 670 0
DWIDTH 16 0
BBX 15 17 0 0
BITMAP
00AFFFFEDA400000
00AFEDDDFFFA1000
00AF900015DFC000
00AF9000001DF800
00AF90000004FE10
00AF90000000DF50
00AF90000000AF80
EFFFFFF800009F90
BCEFECC600008FA0
00AF900000009F90
00AF90000000AF80
00AF90000000DF50
00AF90000005FE10
00AF9000002DF800
00AF900016EFC000
00AFEDDDFFFA1000
00AFFFFED9400000
ENDCHAR
STARTCHAR Ntilde
ENCODING 209
SWIDTH 712 0
DWIDTH 17 0
BBX 14 21 2 0
BITMAP
000398200B7000
003FFFFBCF6000
008E218EE80000
00000000000000
FF900000002FF1
FFF40000002FF1
FFFD0000002FF1
FFFF8000002FF1
FF9FF300002FF1
FF4BFC00002FF1
FF42EF80002FF1
FF406FF3002FF1
FF400BFC002FF1
FF4002EF702FF1
FF40006FF22FF1
FF40000CFB2FF1
FF400002FF9FF1
FF4000007FFFF1
FF4000000CFFF1
FF40000003FFF1
FF400000008FF1
ENDCHAR
STARTCHAR Ograve
ENCODING 210
SWIDTH 687 0
DWIDTH 17 0
BBX 15 21 1 0
BITMAP
0001CFA000000000
00001CF900000000
000001CC30000000
0000000000000000
00016BEED9300000
002DFFFFFFF70000
01DFD40028FF7000
09FD1000006FE200
1EF40000000CF800
5FE000000006FC00
7FB000000003FF00
8FA000000002FF10
9F9000000002FF20
9FA000000002FF10
7FB000000004FF00
5FE000000006FC00
1EF40000000CF800
09FD1000005FF200
01DFC40017FF7000
002DFFFEFFF80000
00016BEED9300000
ENDCHAR
STARTCHAR Oacute
ENCODING 211
SWIDTH 687 0
DWIDTH 17 0
BBX 15 21 1 0
BITMAP
00000003EF700000
0000002DF6000000
0000007D50000000
0000000000000000
00016BEED9300000
002DFFFFFFF70000
01DFD40028FF7000
09FD1000006FE200
1EF40000000CF800
5FE000000006FC00
7FB000000003FF00
8FA000000002FF10
9F9000000002FF20
9FA000000002FF10
7FB000000004FF00
5FE000000006FC00
1EF40000000CF800
09FD1000005FF200
01DFC40017FF7000
002DFFFEFFF80000
00016BEED9300000
ENDCHAR
STARTCHAR Ocircumflex
ENCODING 212
SWIDTH 687 0
DWIDTH 17 0
BBX 15 21 1 0
BITMAP
000002DF80000000
00004ED8FA100000
0001AD207D600000
0000000000000000
00016BEED9300000
002DFFFFFFF70000
01DFD40028FF7000
09FD1000006FE200
1EF40000000CF800
5FE000000006FC00
7FB000000003FF00
8FA000000002FF10
9F9000000002FF20
9FA000000002FF10
7FB000000004FF00
5FE000000006FC00
1EF40000000CF800
09FD1000005FF200
01DFC40017FF7000
002DFFFEFFF80000
00016BEED9300000
ENDCHAR
STARTCHAR Otilde
ENCODING 213
SWIDTH 687 0
DWIDTH 17 0
BBX 15 21 1 0
BITMAP
0000597102C40000
0006FFFEBDF20000
000BC129ED600000
0000000000000000
00016BEED9300000
002DFFFFFFF70000
01DFD40028FF7000
09FD1000006FE200
1EF40000000CF800
5FE000000006FC00
7FB000000003FF00
8FA000000002FF10
9F9000000002FF20
9FA000000002FF10
7FB000000004FF00
5FE000000006FC00
1EF40000000CF800
09FD1000005FF200
01DFC40017FF7000
002DFFFEFFF80000
00016BEED9300000
ENDCHAR
STARTCHAR Odieresis
ENCODING 214
SWIDTH 687 0
DWIDTH 17 0
BBX 15 21 1 0
BITMAP
0001640006400000
0006FF006FF10000
0004EB003EC00000
0000000000000000
00016BEED9300000
002DFFFFFFF70000
01DFD40028FF7000
09FD1000006FE200
1EF40000000CF800
5FE000000006FC00
7FB000000003FF00
8FA000000002FF10
9F9000000002FF20
9FA000000002FF10
7FB000000004FF00
5FE000000006FC00
1EF40000000CF800
09FD1000005FF200
01DFC40017FF7000
002DFFFEFFF80000
00016BEED9300000
ENDCHAR
STARTCHAR multiply
ENCODING 215
SWIDTH 533 0
DWIDTH 13 0
BBX 11 11 1 2
BITMAP
2B1000005900
AFC10004FF50
1DFC104FF900
02DFC4EF9000
002DFFFA0000
0005FFE10000
002EFFFA0000
02DFB4EFA000
2DFC104EF900
BFC10004FF50
2B1000005A00
ENDCHAR
STARTCHAR Oslash
ENCODING 216
SWIDTH 687 0
DWIDTH 17 0
BBX 15 19 1 -1
BITMAP
0000000000003710
00016BEFDA31DB00
002DFFFEFFFCE200
01DFD40017FFA000
09FD100000DFF200
1EF5000008FDF800
5FE000003F87FC00
7FB00000CD04FF00
8FA00007F402FF10
9F90002E9002FF20
9FA000BD1002FF10
7FB006F50004FF00
5FE01EA00006FC00
1FF4AE10000CF800
09FEF600006FF200
01DFE40017FF7000
009FFFFEFFF80000
03F76BEED9300000
0AB0000000000000
ENDCHAR
STARTCHAR Ugrave
ENCODING 217
SWIDTH 648 0
DWIDTH 16 0
BBX 13 21 1 0
BITMAP
0005FF40000000
00005FE3000000
000005D9000000
00000000000000
5FD00000004FF0
5FD00000004FF0
5FD00000004FF0
5FD00000004FF0
5FD00000004FF0
5FD00000004FF0
5FD00000004FF0
5FD00000004FF0
5FD00000004FF0
5FD00000004FF0
5FD00000004FF0
5FD00000004FF0
4FF10000006FD0
1EF6000000CF90
07FF71002BFE20
009FFFDEFFE400
0004ADFEC81000
ENDCHAR
STARTCHAR Uacute
ENCODING 218
SWIDTH 648 0
DWIDTH 16 0
BBX 13 21 1 0
BITMAP
00000008FD2000
0000007FD20000
000001BC100000
00000000000000
5FD00000004FF0
5FD00000004FF0
5FD00000004FF0
5FD00000004FF0
5FD00000004FF0
5FD00000004FF0
5FD00000004FF0
5FD00000004FF0
5FD00000004FF0
5FD00000004FF0
5FD00000004FF0
5FD00000004FF0
4FF10000006FD0
1EF6000000CF90
07FF71002BFE20
009FFFDEFFE400
0004ADFEC81000
ENDCHAR
STARTCHAR Ucircumflex
ENCODING 219
SWIDTH 648 0
DWIDTH 16 0
BBX 13 21 1 0
BITMAP
000007FD300000
00009F8CE50000
0005D801CB2000
00000000000000
5FD00000004FF0
5FD00000004FF0
5FD00000004FF0
5FD00000004FF0
5FD00000004FF0
5FD00000004FF0
5FD00000004FF0
5FD00000004FF0
5FD00000004FF0
5FD00000004FF0
5FD00000004FF0
5FD00000004FF0
4FF10000006FD0
1EF6000000CF90
07FF71002BFE20
009FFFDEFFE400
0004ADFEC81000
ENDCHAR
STARTCHAR Udieresis
ENCODING 220
SWIDTH 648 0
DWIDTH 16 0
BBX 13 21 1 0
BITMAP
00036100261000
000DF800DF9000
000AE5009E6000
00000000000000
5FD00000004FF0
5FD00000004FF0
5FD00000004FF0
5FD00000004FF0
5FD00000004FF0
5FD00000004FF0
5FD00000004FF0
5FD00000004FF0
5FD00000004FF0
5FD00000004FF0
5FD00000004FF0
5FD00000004FF0
4FF10000006FD0
1EF6000000CF90
07FF71002BFE20
009FFFDEFFE400
0004ADFEC81000
ENDCHAR
STARTCHAR Yacute
ENCODING 221
SWIDTH 600 0
DWIDTH 14 0
BBX 14 21 0 0
BITMAP
00000003EF6000
0000002EF50000
0000008D500000
00000000000000
8FE100000009FD
1EF80000002FF5
07FE100000AFC0
00DF900003FF40
005FF2000BFB00
000CF9003FF200
0004FF20BF9000
0000AFA4FE1000
00002FFDF70000
000009FFE10000
000001FF600000
000000EF500000
000000EF500000
000000EF500000
000000EF500000
000000EF500000
000000EF500000
ENDCHAR
STARTCHAR Thorn
ENCODING 222
SWIDTH 590 0
DWIDTH 14 0
BBX 13 17 1 0
BITMAP
1FF20000000000
1FF20000000000
1FF20000000000
1FFFFFFDA40000
1FFCCCCEFF8000
1FF200006FF500
1FF2000009FB00
1FF2000004FF00
1FF2000002FF10
1FF2000004FF00
1FF200000BFB00
1FF20003AFF300
1FFFFFFFFE5000
1FFCCCCA710000
1FF20000000000
1FF20000000000
1FF20000000000
ENDCHAR
STARTCHAR germandbls
ENCODING 223
SWIDTH 594 0
DWIDTH 14 0
BBX 13 18 1 0
BITMAP
003BEFD9100000
04FFECFFD10000
0DFA002DF60000
3FF10007F90000
5FD00007F90000
6FC0000CF50000
6FC0006FD00000
6FC000DF600000
6FC000FF300000
6FC000CF900000
6FC0003FF90000
6FC00004EFB100
6FC000002DFA00
6FC0000002FF20
6FC0000000FF30
6FC0340007FF10
6FC09FECEFF700
6FC04ADFEB5000
ENDCHAR
STARTCHAR agrave
ENCODING 224
SWIDTH 543 0
DWIDTH 13 0
BBX 11 18 1 0
BITMAP
005FF4000000
0005FE300000
00005D900000
000000000000
000000000000
003ADFEB4000
07FFDCEFF500
3FF50008FE00
49700000EF30
00000000DF40
004ADFFFFF40
09FFB988EF40
5FE30000DF40
AF800000DF40
AF900002FF40
7FE4005DFF50
1DFFEFFEEF60
019DFD91AFA0
ENDCHAR
STARTCHAR aacute
ENCODING 225
SWIDTH 543 0
DWIDTH 13 0
BBX 11 18 1 0
BITMAP
0000009FD200
000007FC1000
00002BC10000
000000000000
000000000000
003ADFEB4000
07FFDCEFF500
3FF50008FE00
49700000EF30
00000000DF40
004ADFFFFF40
09FFB988EF40
5FE30000DF40
AF800000DF40
AF900002FF40
7FE4005DFF50
1DFFEFFEEF60
019DFD91AFA0
ENDCHAR
STARTCHAR acircumflex
ENCODING 226
SWIDTH 543 0
DWIDTH 13 0
BBX 11 18 1 0
BITMAP
00007FD30000
0009F8CE5000
005D801CB200
000000000000
000000000000
003ADFEB4000
07FFDCEFF500
3FF50008FE00
49700000EF30
00000000DF40
004ADFFFFF40
09FFB988EF40
5FE30000DF40
AF800000DF40
AF900002FF40
7FE4005DFF50
1DFFEFFEEF60
019DFD91AFA0
ENDCHAR
STARTCHAR atilde
ENCODING 227
SWIDTH 543 0
DWIDTH 13 0
BBX 11 18 1 0
BITMAP
001894008B00
00DFFFDBFA00
03F615CEB200
000000000000
000000000000
003ADFEB4000
07FFDCEFF500
3FF50008FE00
49700000EF30
00000000DF40
004ADFFFFF40
09FFB988EF40
5FE30000DF40
AF800000DF40
AF900002FF40
7FE4005DFF50
1DFFEFFEEF60
019DFD91AFA0
ENDCHAR
STARTCHAR adieresis
ENCODING 228
SWIDTH 543 0
DWIDTH 13 0
BBX 11 18 1 0
BITMAP
003610026100
00DF800DF900
00AE5009E600
000000000000
000000000000
003ADFEB4000
07FFDCEFF500
3FF50008FE00
49700000EF30
00000000DF40
004ADFFFFF40
09FFB988EF40
5FE30000DF40
AF800000DF40
AF900002FF40
7FE4005DFF50
1DFFEFFEEF60
019DFD91AFA0
ENDCHAR
STARTCHAR aring
ENCODING 229
SWIDTH 543 0
DWIDTH 13 0
BBX 11 19 1 0
BITMAP
00009ED50000
0007D25E1000
000A700D4000
0007C25E2000
00009ED50000
000000000000
003ADFEB4000
07FFDCEFF500
3FF50008FE00
49700000EF30
00000000DF40
004ADFFFFF40
09FFB988EF40
5FE30000DF40
AF800000DF40
AF900002FF40
7FE4005DFF50
1DFFEFFEEF60
019DFD91AFA0
ENDCHAR
STARTCHAR ae
ENCODING 230
SWIDTH 844 0
DWIDTH 20 0
BBX 20 13 0 0
BITMAP
0016CEFD8103AEFD9200
01DFFDCFFD6FFECEFE30
08FE3001CFFF60019FC0
059500005FF800000EF3
000000003FF200000BF6
0029DEFFFFFFFFFFFFF7
03EFEBAABFFAAAAAAAA5
0CFC10003FF100000000
0FF300003FF400000000
1FF300004FFB00000000
0DFA0006EFFF800017A0
05FFECEFF85FFECDFFE1
005CEFD930029DFEC820
ENDCHAR
STARTCHAR ccedilla
ENCODING 231
SWIDTH 523 0
DWIDTH 13 0
BBX 11 18 1 -5
BITMAP
0028DEEB4000
03EFECEFF700
1DF91006FF30
6FC000009F90
BF7000003960
DF4000000000
EF4000000000
DF5000000000
BF7000001430
6FD000008F90
1DF91005FF30
03EFECDFF600
0029DFEA3000
00009F300000
00007DF60000
000001FA0000
000049F70000
0000CD700000
ENDCHAR
STARTCHAR egrave
ENCODING 232
SWIDTH 529 0
DWIDTH 13 0
BBX 11 18 1 0
BITMAP
008FE2000000
0008FD100000
00008D600000
000000000000
000000000000
0017CEEB4000
02CFFCEFF600
0CFA1006FF20
5FC00000AF80
AF7000006FB0
CFFFFFFFFFC0
DFDCCCCCCCA0
DF6000000000
BF9000000000
6FE200000300
1DFC20019F60
03DFFCCFFC10
0018DFEC7000
ENDCHAR
STARTCHAR eacute
ENCODING 233
SWIDTH 529 0
DWIDTH 13 0
BBX 11 18 1 0
BITMAP
000000BFB100
00000AFB0000
00003CA00000
000000000000
000000000000
0017CEEB4000
02CFFCEFF600
0CFA1006FF20
5FC00000AF80
AF7000006FB0
CFFFFFFFFFC0
DFDCCCCCCCA0
DF6000000000
BF9000000000
6FE200000300
1DFC20019F60
03DFFCCFFC10
0018DFEC7000
ENDCHAR
STARTCHAR ecircumflex
ENCODING 234
SWIDTH 529 0
DWIDTH 13 0
BBX 11 18 1 0
BITMAP
00009FC10000
001BF7ED3000
007D603DA100
000000000000
000000000000
0017CEEB4000
02CFFCEFF600
0CFA1006FF20
5FC00000AF80
AF7000006FB0
CFFFFFFFFFC0
DFDCCCCCCCA0
DF6000000000
BF9000000000
6FE200000300
1DFC20019F60
03DFFCCFFC10
0018DFEC7000
ENDCHAR
STARTCHAR edieresis
ENCODING 235
SWIDTH 529 0
DWIDTH 13 0
BBX 11 18 1 0
BITMAP
004600046000
01FF501FF600
00CE300CE300
000000000000
000000000000
0017CEEB4000
02CFFCEFF600
0CFA1006FF20
5FC00000AF80
AF7000006FB0
CFFFFFFFFFC0
DFDCCCCCCCA0
DF6000000000
BF9000000000
6FE200000300
1DFC20019F60
03DFFCCFFC10
0018DFEC7000
ENDCHAR
STARTCHAR igrave
ENCODING 236
SWIDTH 247 0
DWIDTH 6 0
BBX 5 18 -1 0
BITMAP
3EF600
03EF50
003DA0
000000
000000
003FF0
003FF0
003FF0
003FF0
003FF0
003FF0
003FF0
003FF0
003FF0
003FF0
003FF0
003FF0
003FF0
ENDCHAR
STARTCHAR iacute
ENCODING 237
SWIDTH 247 0
DWIDTH 6 0
BBX 6 18 1 0
BITMAP
007FE3
05FE30
1AD200
000000
000000
3FF000
3FF000
3FF000
3FF000
3FF000
3FF000
3FF000
3FF000
3FF000
3FF000
3FF000
3FF000
3FF000
ENDCHAR
STARTCHAR icircumflex
ENCODING 238
SWIDTH 247 0
DWIDTH 6 0
BBX 8 18 -1 0
BITMAP
005EE400
08FABF60
4CA01BC3
00000000
00000000
003FF000
003FF000
003FF000
003FF000
003FF000
003FF000
003FF000
003FF000
003FF000
003FF000
003FF000
003FF000
003FF000
ENDCHAR
STARTCHAR idieresis
ENCODING 239
SWIDTH 247 0
DWIDTH 6 0
BBX 8 18 -1 0
BITMAP
26200262
BFA00BFB
8E7007E7
00000000
00000000
003FF000
003FF000
003FF000
003FF000
003FF000
003FF000
003FF000
003FF000
003FF000
003FF000
003FF000
003FF000
003FF000
ENDCHAR
STARTCHAR eth
ENCODING 240
SWIDTH 585 0
DWIDTH 14 0
BBX 12 18 1 0
BITMAP
008B61000100
00CFFE607F40
0004BFFEF810
00000BFFD100
0003DF8DFA00
0002B303FF40
000000008FB0
0017DEEB6FF1
01CFFDCEFFF5
0AFD30006FF6
2FF300000AF8
6FC000000AF8
7FA000000BF7
6FC000000DF5
2FF300004FE1
0AFD3002DF70
01CFFDCFFA00
0006CEEC5000
ENDCHAR
STARTCHAR ntilde
ENCODING 241
SWIDTH 551 0
DWIDTH 13 0
BBX 11 18 1 0
BITMAP
002894009900
01EFFFCBF900
05F416DEA100
000000000000
000000000000
5FB18DFE9100
5FCCFEEFFC00
5FFD3005FF40
5FE20000BF80
5FC000009F90
5FC000008F90
5FC000008F90
5FC000008F90
5FC000008F90
5FC000008F90
5FC000008F90
5FC000008F90
5FC000008F90
ENDCHAR
STARTCHAR ograve
ENCODING 242
SWIDTH 570 0
DWIDTH 14 0
BBX 12 18 1 0
BITMAP
006FE3000000
0006FE200000
00006D800000
000000000000
000000000000
0017CEEB5000
02DFFCDFFA00
0CFB1004EF80
5FE100005FF1
AF8000000DF5
DF5000000AF8
EF40000009F9
DF5000000AF8
BF8000000DF6
6FE100004FF1
0DFB1003DF80
02DFFCDFFA00
0018DFEB5000
ENDCHAR
STARTCHAR oacute
ENCODING 243
SWIDTH 570 0
DWIDTH 14 0
BBX 12 18 1 0
BITMAP
000000AFC100
000008FC1000
00002CB10000
000000000000
000000000000
0017CEEB5000
02DFFCDFFA00
0CFB1004EF80
5FE100005FF1
AF8000000DF5
DF5000000AF8
EF40000009F9
DF5000000AF8
BF8000000DF6
6FE100004FF1
0DFB1003DF80
02DFFCDFFA00
0018DFEB5000
ENDCHAR
STARTCHAR ocircumflex
ENCODING 244
SWIDTH 570 0
DWIDTH 14 0
BBX 12 18 1 0
BITMAP
00008FD20000
001AF8DE4000
006D702DB100
000000000000
000000000000
0017CEEB5000
02DFFCDFFA00
0CFB1004EF80
5FE100005FF1
AF8000000DF5
DF5000000AF8
EF40000009F9
DF5000000AF8
BF8000000DF6
6FE100004FF1
0DFB1003DF80
02DFFCDFFA00
0018DFEB5000
ENDCHAR
STARTCHAR otilde
ENCODING 245
SWIDTH 570 0
DWIDTH 14 0
BBX 12 18 1 0
BITMAP
002894009A00
01EFFFCBF900
04F516DEA100
000000000000
000000000000
0017CEEB5000
02DFFCDFFA00
0CFB1004EF80
5FE100005FF1
AF8000000DF5
DF5000000AF8
EF40000009F9
DF5000000AF8
BF8000000DF6
6FE100004FF1
0DFB1003DF80
02DFFCDFFA00
0018DFEB5000
ENDCHAR
STARTCHAR odieresis
ENCODING 246
SWIDTH 570 0
DWIDTH 14 0
BBX 12 18 1 0
BITMAP
003610036100
00EF700EF700
00BE400AE500
000000000000
000000000000
0017CEEB5000
02DFFCDFFA00
0CFB1004EF80
5FE100005FF1
AF8000000DF5
DF5000000AF8
EF40000009F9
DF5000000AF8
BF8000000DF6
6FE100004FF1
0DFB1003DF80
02DFFCDFFA00
0018DFEB5000
ENDCHAR
STARTCHAR divide
ENCODING 247
SWIDTH 570 0
DWIDTH 14 0
BBX 13 13 0 1
BITMAP
000004EB000000
000008FF100000
00000285000000
00000000000000
00000000000000
3FFFFFFFFFFF80
3FFFFFFFFFFF80
02222222222210
00000000000000
00000153000000
000007FE100000
000006FD000000
00000021000000
ENDCHAR
STARTCHAR oslash
ENCODING 248
SWIDTH 566 0
DWIDTH 14 0
BBX 12 17 1 -2
BITMAP
000000000320
000000005F20
0017CEEBDA00
02DFFCDFFA00
0CFB100CFF80
5FD1004F7FF1
AF8000CA0DF5
DF5004F30AF8
EF400CA009F9
DF404F200AF8
AF80CA000DF5
6FD5F2005FF1
0DFFA003EF70
02DFFCDFFA00
00CCDFEB5000
04F300000000
034000000000
ENDCHAR
STARTCHAR ugrave
ENCODING 249
SWIDTH 551 0
DWIDTH 13 0
BBX 11 18 1 0
BITMAP
008FE2000000
0007FD200000
00007D700000
000000000000
000000000000
6FC000009F90
6FC000009F90
6FC000009F90
6FC000009F90
6FC000009F90
6FC000009F90
6FC000009F90
6FC000009F90
6FC000009F90
5FE00000BF90
1FF80019FF90
08FFEDFFDF90
007DFEB48F90
ENDCHAR
STARTCHAR uacute
ENCODING 250
SWIDTH 551 0
DWIDTH 13 0
BBX 11 18 1 0
BITMAP
000000BFB100
00000AFB1000
00003CA00000
000000000000
000000000000
6FC000009F90
6FC000009F90
6FC000009F90
6FC000009F90
6FC000009F90
6FC000009F90
6FC000009F90
6FC000009F90
6FC000009F90
5FE00000BF90
1FF80019FF90
08FFEDFFDF90
007DFEB48F90
ENDCHAR
STARTCHAR ucircumflex
ENCODING 251
SWIDTH 551 0
DWIDTH 13 0
BBX 11 18 1 0
BITMAP
00009FC20000
001BF7ED3000
007D603DA100
000000000000
000000000000
6FC000009F90
6FC000009F90
6FC000009F90
6FC000009F90
6FC000009F90
6FC000009F90
6FC000009F90
6FC000009F90
6FC000009F90
5FE00000BF90
1FF80019FF90
08FFEDFFDF90
007DFEB48F90
ENDCHAR
STARTCHAR udieresis
ENCODING 252
SWIDTH 551 0
DWIDTH 13 0
BBX 11 18 1 0
BITMAP
004600046000
01FF501FF600
00CE300CE300
000000000000
000000000000
6FC000009F90
6FC000009F90
6FC000009F90
6FC000009F90
6FC000009F90
6FC000009F90
6FC000009F90
6FC000009F90
6FC000009F90
5FE00000BF90
1FF80019FF90
08FFEDFFDF90
007DFEB48F90
ENDCHAR
STARTCHAR yacute
ENCODING 253
SWIDTH 473 0
DWIDTH 11 0
BBX 11 23 0 -5
BITMAP
0000007FE300
000005FE3000
00001AD20000
000000000000
000000000000
8FC000006FD0
3FF20000BF80
0DF70001FF30
07FC0005FD00
02FF200AF800
00CF700EF300
006FC04FC000
001FF28F7000
000BF6DF2000
0005FDFC0000
0001EFF70000
00009FF20000
00005FB00000
00008F600000
0000EF100000
0019F9000000
0EFFE2000000
0EEB20000000
ENDCHAR
STARTCHAR thorn
ENCODING 254
SWIDTH 576 0
DWIDTH 14 0
BBX 12 23 1 -5
BITMAP
4FE000000000
4FE000000000
4FE000000000
4FE000000000
4FE000000000
4FE19DFD8100
4FEDFDEFFD10
4FFC2005EF90
4FE100006FF1
4FE000000EF4
4FE000000CF6
4FE000000BF7
4FE000000CF6
4FE000000EF4
4FE100005FE1
4FFB1003EF90
4FFEFCDFFC10
4FE29DFD8100
4FE000000000
4FE000000000
4FE000000000
4FE000000000
4FE000000000
ENDCHAR
STARTCHAR ydieresis
ENCODING 255
SWIDTH 473 0
DWIDTH 11 0
BBX 11 23 0 -5
BITMAP
002620026200
00BFA00BFB00
008E7007E700
000000000000
000000000000
8FC000006FD0
3FF20000BF80
0DF70001FF30
07FC0005FD00
02FF200AF800
00CF700EF300
006FC04FC000
001FF28F7000
000BF6DF2000
0005FDFC0000
0001EFF70000
00009FF20000
00005FB00000
00008F600000
0000EF100000
0019F9000000
0EFFE2000000
0EEB20000000
ENDCHAR
STARTCHAR Amacron
ENCODING 256
SWIDTH 652 0
DWIDTH 16 0
BBX 16 21 0 0
BITMAP
0000AAAAAAA90000
0000FFFFFFFD0000
0000000000000000
0000000000000000
0000005FE1000000
000000BFF6000000
000002FFFC000000
000008F9EF200000
00000DF38F800000
00004FD03FE00000
0000AF800DF50000
0001FF2008FA0000
0006FC0002FF1000
000CF70000CF7000
003FF200007FD000
009FFFFFFFFFF300
00EFDDDDDDDEF900
05FE10000005FE10
0BF900000000EF60
2FF3000000008FC0
7FD0000000002FF2
ENDCHAR
STARTCHAR amacron
ENCODING 257
SWIDTH 543 0
DWIDTH 13 0
BBX 11 17 1 0
BITMAP
01AAAAAAA800
01FFFFFFFC00
000000000000
000000000000
003ADFEB4000
07FFDCEFF500
3FF50008FE00
49700000EF30
00000000DF40
004ADFFFFF40
09FFB988EF40
5FE30000DF40
AF800000DF40
AF900002FF40
7FE4005DFF50
1DFFEFFEEF60
019DFD91AFA0
ENDCHAR
STARTCHAR Abreve
ENCODING 258
SWIDTH 652 0
DWIDTH 16 0
BBX 16 21 0 0
BITMAP
00008F4007F40000
00003FD78ED10000
000004BEEA200000
0000000000000000
0000005FE1000000
000000BFF6000000
000002FFFC000000
000008F9EF200000
00000DF38F800000
00004FD03FE00000
0000AF800DF50000
0001FF2008FA0000
0006FC0002FF1000
000CF70000CF7000
003FF200007FD000
009FFFFFFFFFF300
00EFDDDDDDDEF900
05FE10000005FE10
0BF900000000EF60
2FF3000000008FC0
7FD0000000002FF2
ENDCHAR
STARTCHAR abreve
ENCODING 259
SWIDTH 543 0
DWIDTH 13 0
BBX 11 17 1 0
BITMAP
009F3008F300
003FC78ED000
0004CEEA2000
000000000000
003ADFEB4000
07FFDCEFF500
3FF50008FE00
49700000EF30
00000000DF40
004ADFFFFF40
09FFB988EF40
5FE30000DF40
AF800000DF40
AF900002FF40
7FE4005DFF50
1DFFEFFEEF60
019DFD91AFA0
ENDCHAR
STARTCHAR Aogonek
ENCODING 260
SWIDTH 652 0
DWIDTH 16 0
BBX 16 22 0 -5
BITMAP
0000005FE1000000
000000BFF6000000
000002FFFC000000
000008F9EF200000
00000DF38F800000
00004FD03FE00000
0000AF800DF50000
0001FF2008FA0000
0006FC0002FF1000
000CF70000CF7000
003FF200007FD000
009FFFFFFFFFF300
00EFDDDDDDDEF900
05FE10000005FE10
0BF900000000EF60
2FF3000000009FC0
7FD0000000003FF2
000000000000AE50
000000000009F400
00000000000EE000
00000000000DFBB0
000000000004DEB1
ENDCHAR
STARTCHAR aogonek
ENCODING 261
SWIDTH 543 0
DWIDTH 13 0
BBX 11 18 1 -5
BITMAP
003ADFEB4000
07FFDCEFF500
3FF50008FE00
49700000EF30
00000000DF40
004ADFFFFF40
09FFB988EF40
5FE30000DF40
AF800000DF40
AF900002FF40
7FE4005DFF50
1DFFEFFEEF60
019DFD91AFA0
00000004EA10
0000002FB000
0000007F6000
0000006FEA60
0000000AED50
ENDCHAR
STARTCHAR Cacute
ENCODING 262
SWIDTH 650 0
DWIDTH 16 0
BBX 14 21 1 0
BITMAP
00000006FE3000
0000005FE30000
000001AD200000
00000000000000
00016CEFDA4000
002DFFEEFFF800
01EFC30017FF60
0AFC1000007FE0
1FF40000001FF5
5FE000000009B5
7FB00000000000
9FA00000000000
9FA00000000000
9FA00000000000
8FB00000000000
6FE000000008A5
2FF30000001FF4
0AFC0000007FE0
02EFB20017FF60
003EFFEEFFF800
00018CEFDA3000
ENDCHAR
STARTCHAR cacute
ENCODING 263
SWIDTH 523 0
DWIDTH 13 0
BBX 11 18 1 0
BITMAP
000003EF6000
00002EF50000
00008D500000
000000000000
000000000000
0028DEEB4000
03EFECEFF700
1DF91006FF30
6FC000009F90
BF7000003960
DF4000000000
EF4000000000
DF5000000000
BF7000001430
6FD000008F90
1DF91005FF30
03EFECDFF600
0029DFEA3000
ENDCHAR
STARTCHAR Ccircumflex
ENCODING 264
SWIDTH 650 0
DWIDTH 16 0
BBX 14 21 1 0
BITMAP
000005EE400000
00008FABF60000
0004CA01BC3000
00000000000000
00016CEFDA4000
002DFFEEFFF800
01EFC30017FF60
0AFC1000007FE0
1FF40000001FF5
5FE000000009B5
7FB00000000000
9FA00000000000
9FA00000000000
9FA00000000000
8FB00000000000
6FE000000008A5
2FF30000001FF4
0AFC0000007FE0
02EFB20017FF60
003EFFEEFFF800
00018CEFDA3000
ENDCHAR
STARTCHAR ccircumflex
ENCODING 265
SWIDTH 523 0
DWIDTH 13 0
BBX 11 18 1 0
BITMAP
0002DF700000
004ED8FA1000
01BD207D6000
000000000000
000000000000
0028DEEB4000
03EFECEFF700
1DF91006FF30
6FC000009F90
BF7000003960
DF4000000000
EF4000000000
DF5000000000
BF7000001430
6FD000008F90
1DF91005FF30
03EFECDFF600
0029DFEA3000
ENDCHAR
STARTCHAR Cdotaccent
ENCODING 266
SWIDTH 650 0
DWIDTH 16 0
BBX 14 21 1 0
BITMAP
00000065000000
000004FF300000
000002DD100000
00000000000000
00016CEFDA4000
002DFFEEFFF800
01EFC30017FF60
0AFC1000007FE0
1FF40000001FF5
5FE000000009B5
7FB00000000000
9FA00000000000
9FA00000000000
9FA00000000000
8FB00000000000
6FE000000008A5
2FF30000001FF4
0AFC0000007FE0
02EFB20017FF60
003EFFEEFFF800
00018CEFDA3000
ENDCHAR
STARTCHAR cdotaccent
ENCODING 267
SWIDTH 523 0
DWIDTH 13 0
BBX 11 18 1 0
BITMAP
000046100000
0000EF700000
0000BE400000
000000000000
000000000000
0028DEEB4000
03EFECEFF700
1DF91006FF30
6FC000009F90
BF7000003960
DF4000000000
EF4000000000
DF5000000000
BF7000001430
6FD000008F90
1DF91005FF30
03EFECDFF600
0029DFEA3000
ENDCHAR
STARTCHAR Ccaron
ENCODING 268
SWIDTH 650 0
DWIDTH 16 0
BBX 14 21 1 0
BITMAP
0004FA01BE3000
00004FABE30000
000004EE300000
00000000000000
00016CEFDA4000
002DFFEEFFF800
01EFC30017FF60
0AFC1000007FE0
1FF40000001FF5
5FE000000009B5
7FB00000000000
9FA00000000000
9FA00000000000
9FA00000000000
8FB00000000000
6FE000000008A5
2FF30000001FF4
0AFC0000007FE0
02EFB20017FF60
003EFFEEFFF800
00018CEFDA3000
ENDCHAR
STARTCHAR ccaron
ENCODING 269
SWIDTH 523 0
DWIDTH 13 0
BBX 11 18 1 0
BITMAP
02DD208F7000
002DD8F60000
0002DF600000
000000000000
000000000000
0028DEEB4000
03EFECEFF700
1DF91006FF30
6FC000009F90
BF7000003960
DF4000000000
EF4000000000
DF5000000000
BF7000001430
6FD000008F90
1DF91005FF30
03EFECDFF600
0029DFEA3000
ENDCHAR
STARTCHAR Dcaron
ENCODING 270
SWIDTH 655 0
DWIDTH 16 0
BBX 13 21 2 0
BITMAP
03EC109F500000
002EC9F5000000
0002EF50000000
00000000000000
FFFFFEC8200000
FFDDDEFFF60000
FF400028FF7000
FF4000005FF300
FF4000000AFA00
FF40000004FE10
FF40000001FF30
FF40000000EF40
FF40000000EF50
FF40000000EF40
FF40000001FF30
FF40000004FE10
FF4000000AFA00
FF4000006FF300
FF400028FF7000
FFDDDEFFF60000
FFFFFEC7200000
ENDCHAR
STARTCHAR dcaron
ENCODING 271
SWIDTH 637 0
DWIDTH 15 0
BBX 15 18 1 0
BITMAP
000000005FC08F70
000000005FC09F70
000000005FC0CF40
000000005FC3FD00
000000005FC2B400
003AEFC65FC00000
04FFFDEFDFC00000
1EFB1006FFC00000
6FD100007FC00000
AF8000005FC00000
DF5000005FC00000
DF4000005FC00000
CF6000005FC00000
AF8000005FC00000
6FE100008FC00000
1EFA1006FFC00000
04FFFDEFCFC00000
003AEEC63FC00000
ENDCHAR
STARTCHAR Dcroat
ENCODING 272
SWIDTH 670 0
DWIDTH 16 0
BBX 15 17 0 0
BITMAP
00AFFFFEDA400000
00AFEDDDFFFA1000
00AF900015DFC000
00AF9000001DF800
00AF90000004FE10
00AF90000000DF50
00AF90000000AF80
EFFFFFF800009F90
BCEFECC600008FA0
00AF900000009F90
00AF90000000AF80
00AF90000000DF50
00AF90000005FE10
00AF9000002DF800
00AF900016EFC000
00AFEDDDFFFA1000
00AFFFFED9400000
ENDCHAR
STARTCHAR dcroat
ENCODING 273
SWIDTH 597 0
DWIDTH 14 0
BBX 13 18 1 0
BITMAP
000000005FC000
000000005FC000
000007FFFFFFF0
000005CCDFECC0
000000005FC000
003AEFC65FC000
04FFFDEFDFC000
1EFB1006FFC000
6FD100007FC000
AF8000005FC000
DF5000005FC000
DF4000005FC000
CF6000005FC000
AF8000005FC000
6FE100008FC000
1EFA1006FFC000
04FFFDEFCFC000
003AEEC63FC000
ENDCHAR
STARTCHAR Emacron
ENCODING 274
SWIDTH 568 0
DWIDTH 14 0
BBX 11 21 2 0
BITMAP
06AAAAAAA300
09FFFFFFF400
000000000000
000000000000
FFFFFFFFFFB0
FFDDDDDDDD90
FF4000000000
FF4000000000
FF4000000000
FF4000000000
FF4000000000
FFFFFFFFF900
FFDDDDDDD800
FF4000000000
FF4000000000
FF4000000000
FF4000000000
FF4000000000
FF4000000000
FFDDDDDDDDA0
FFFFFFFFFFC0
ENDCHAR
STARTCHAR emacron
ENCODING 275
SWIDTH 529 0
DWIDTH 13 0
BBX 11 17 1 0
BITMAP
03AAAAAAA600
04FFFFFFF900
000000000000
000000000000
0017CEEB4000
02CFFCEFF600
0CFA1006FF20
5FC00000AF80
AF7000006FB0
CFFFFFFFFFC0
DFDCCCCCCCA0
DF6000000000
BF9000000000
6FE200000300
1DFC20019F60
03DFFCCFFC10
0018DFEC7000
ENDCHAR
STARTCHAR Ebreve
ENCODING 276
SWIDTH 568 0
DWIDTH 14 0
BBX 11 21 2 0
BITMAP
02F9001FA000
00CF87CF5000
0019DEC50000
000000000000
FFFFFFFFFFB0
FFDDDDDDDD90
FF4000000000
FF4000000000
FF4000000000
FF4000000000
FF4000000000
FFFFFFFFF900
FFDDDDDDD800
FF4000000000
FF4000000000
FF4000000000
FF4000000000
FF4000000000
FF4000000000
FFDDDDDDDDA0
FFFFFFFFFFC0
ENDCHAR
STARTCHAR ebreve
ENCODING 277
SWIDTH 529 0
DWIDTH 13 0
BBX 11 17 1 0
BITMAP
00CE000BF100
006FB69FA000
0006CED81000
000000000000
0017CEEB4000
02CFFCEFF600
0CFA1006FF20
5FC00000AF80
AF7000006FB0
CFFFFFFFFFC0
DFDCCCCCCCA0
DF6000000000
BF9000000000
6FE200000300
1DFC20019F60
03DFFCCFFC10
0018DFEC7000
ENDCHAR
STARTCHAR Edotaccent
ENCODING 278
SWIDTH 568 0
DWIDTH 14 0
BBX 11 21 2 0
BITMAP
000046100000
0000EF700000
0000BE400000
000000000000
FFFFFFFFFFB0
FFDDDDDDDD90
FF4000000000
FF4000000000
FF4000000000
FF4000000000
FF4000000000
FFFFFFFFF900
FFDDDDDDD800
FF4000000000
FF4000000000
FF4000000000
FF4000000000
FF4000000000
FF4000000000
FFDDDDDDDDA0
FFFFFFFFFFC0
ENDCHAR
STARTCHAR edotaccent
ENCODING 279
SWIDTH 529 0
DWIDTH 13 0
BBX 11 18 1 0
BITMAP
000017300000
00009FD00000
00006E900000
000000000000
000000000000
0017CEEB4000
02CFFCEFF600
0CFA1006FF20
5FC00000AF80
AF7000006FB0
CFFFFFFFFFC0
DFDCCCCCCCA0
DF6000000000
BF9000000000
6FE200000300
1DFC20019F60
03DFFCCFFC10
0018DFEC7000
ENDCHAR
STARTCHAR Eogonek
ENCODING 280
SWIDTH 568 0
DWIDTH 14 0
BBX 11 22 2 -5
BITMAP
FFFFFFFFFFB0
FFDDDDDDDD90
FF4000000000
FF4000000000
FF4000000000
FF4000000000
FF4000000000
FFFFFFFFF900
FFDDDDDDD800
FF4000000000
FF4000000000
FF4000000000
FF4000000000
FF4000000000
FF4000000000
FFDDDDDDDDA0
FFFFFFFFFFC0
0000000AF500
0000008F5000
000000DF0000
000000CFBB10
0000003DEC10
ENDCHAR
STARTCHAR eogonek
ENCODING 281
SWIDTH 529 0
DWIDTH 13 0
BBX 11 18 1 -5
BITMAP
0017CEEB4000
02CFFCEFF600
0CFA1006FF20
5FC00000AF80
AF7000006FB0
CFFFFFFFFFC0
DFDCCCCCCCA0
DF6000000000
BF9000000000
6FE200000300
1DFC20019F60
03EFFCCFFC10
0018DFFF8000
000009F60000
00003FB00000
00005F900000
00003FEA8000
000008EE7000
ENDCHAR
STARTCHAR Ecaron
ENCODING 282
SWIDTH 568 0
DWIDTH 14 0
BBX 11 21 2 0
BITMAP
02DD207F7000
002DD8F70000
0001DF600000
000000000000
FFFFFFFFFFB0
FFDDDDDDDD90
FF4000000000
FF4000000000
FF4000000000
FF4000000000
FF4000000000
FFFFFFFFF900
FFDDDDDDD800
FF4000000000
FF4000000000
FF4000000000
FF4000000000
FF4000000000
FF4000000000
FFDDDDDDDDA0
FFFFFFFFFFC0
ENDCHAR
STARTCHAR ecaron
ENCODING 283
SWIDTH 529 0
DWIDTH 13 0
BBX 11 18 1 0
BITMAP
009F503EC100
0009F7EB1000
00009FB10000
000000000000
000000000000
0017CEEB4000
02CFFCEFF600
0CFA1006FF20
5FC00000AF80
AF7000006FB0
CFFFFFFFFFC0
DFDCCCCCCCA0
DF6000000000
BF9000000000
6FE200000300
1DFC20019F60
03DFFCCFFC10
0018DFEC7000
ENDCHAR
STARTCHAR Gcircumflex
ENCODING 284
SWIDTH 681 0
DWIDTH 16 0
BBX 14 21 1 0
BITMAP
000006FE300000
00009F9CF50000
0005C901CB2000
00000000000000
00017CEFEA4000
003EFFEDFFFA00
02EFB30017EF80
0AFC0000006FF2
1FF40000000EF6
5FE00000000242
7FC00000000000
8FB00000000000
8FA00000000000
8FB00009FFFFF9
7FC00008CCCEF9
4FF00000000AF9
0EF60000000AF9
08FE2000000AF9
01DFD500016EF8
001CFFEDDFFFB1
00005BDFED9400
ENDCHAR
STARTCHAR gcircumflex
ENCODING 285
SWIDTH 561 0
DWIDTH 13 0
BBX 11 23 1 -5
BITMAP
0001AFB10000
002CF7ED2000
008D404D9000
000000000000
000000000000
003BEEC63FD0
04FFFDEFCFD0
1EFB1006FFD0
6FE100007FD0
AF9000005FD0
CF6000005FD0
DF5000005FD0
CF6000005FD0
AF9000005FD0
6FE100007FD0
1EFA1006FFD0
04FFFDEFDFD0
003BEFC65FD0
000000007FC0
04200000CF80
1ED40008FF20
07FFDCEFF600
003ADFEA3000
ENDCHAR
STARTCHAR Gbreve
ENCODING 286
SWIDTH 681 0
DWIDTH 16 0
BBX 14 21 1 0
BITMAP
0008F3007F4000
0003FD78ED1000
00004BEEA20000
00000000000000
00017CEFEA4000
003EFFEDFFFA00
02EFB30017EF80
0AFC0000006FF2
1FF40000000EF6
5FE00000000242
7FC00000000000
8FB00000000000
8FA00000000000
8FB00009FFFFF9
7FC00008CCCEF9
4FF00000000AF9
0EF60000000AF9
08FE2000000AF9
01DFD500016EF8
001CFFEDDFFFB1
00005BDFED9400
ENDCHAR
STARTCHAR gbreve
ENCODING 287
SWIDTH 561 0
DWIDTH 13 0
BBX 11 22 1 -5
BITMAP
00DD000CE000
008FA6AF9000
0007DED70000
000000000000
003BEEC63FD0
04FFFDEFCFD0
1EFB1006FFD0
6FE100007FD0
AF9000005FD0
CF6000005FD0
DF5000005FD0
CF6000005FD0
AF9000005FD0
6FE100007FD0
1EFA1006FFD0
04FFFDEFDFD0
003BEFC65FD0
000000007FC0
04200000CF80
1ED40008FF20
07FFDCEFF600
003ADFEA3000
ENDCHAR
STARTCHAR Gdotaccent
ENCODING 288
SWIDTH 681 0
DWIDTH 16 0
BBX 14 21 1 0
BITMAP
00000064000000
000005FF100000
000003EC000000
00000000000000
00017CEFEA4000
003EFFEDFFFA00
02EFB30017EF80
0AFC0000006FF2
1FF40000000EF6
5FE00000000242
7FC00000000000
8FB00000000000
8FA00000000000
8FB00009FFFFF9
7FC00008CCCEF9
4FF00000000AF9
0EF60000000AF9
08FE2000000AF9
01DFD500016EF8
001CFFEDDFFFB1
00005BDFED9400
ENDCHAR
STARTCHAR gdotaccent
ENCODING 289
SWIDTH 561 0
DWIDTH 13 0
BBX 11 23 1 -5
BITMAP
000027200000
0000AFB00000
00007E800000
000000000000
000000000000
003BEEC63FD0
04FFFDEFCFD0
1EFB1006FFD0
6FE100007FD0
AF9000005FD0
CF6000005FD0
DF5000005FD0
CF6000005FD0
AF9000005FD0
6FE100007FD0
1EFA1006FFD0
04FFFDEFDFD0
003BEFC65FD0
000000007FC0
04200000CF80
1ED40008FF20
07FFDCEFF600
003ADFEA3000
ENDCHAR
STARTCHAR uni0122
ENCODING 290
SWIDTH 681 0
DWIDTH 16 0
BBX 14 23 1 -6
BITMAP
00017CEFEA4000
003EFFEDFFFA00
02EFB30017EF80
0AFC0000006FF2
1FF40000000EF6
5FE00000000242
7FC00000000000
8FB00000000000
8FA00000000000
8FB00009FFFFF9
7FC00008CCCEF9
4FF00000000AF9
0EF60000000AF9
08FE2000000AF9
01DFD500016EF8
001CFFEDDFFFB1
00005BDFED9400
00000000000000
0000007F900000
0000008F800000
000000BF500000
000002FE100000
000001B5000000
ENDCHAR
STARTCHAR uni0123
ENCODING 291
SWIDTH 561 0
DWIDTH 13 0
BBX 11 25 1 -5
BITMAP
000007900000
00002FE10000
00007FA00000
00009F800000
0000AF800000
000000000000
000000000000
003BEEC63FD0
04FFFDEFCFD0
1EFB1006FFD0
6FE100007FD0
AF9000005FD0
CF6000005FD0
DF5000005FD0
CF6000005FD0
AF9000005FD0
6FE100007FD0
1EFA1006FFD0
04FFFDEFDFD0
003BEFC65FD0
000000007FC0
04200000CF80
1ED40008FF20
07FFDCEFF600
003ADFEA3000
ENDCHAR
STARTCHAR Hcircumflex
ENCODING 292
SWIDTH 712 0
DWIDTH 17 0
BBX 14 21 2 0
BITMAP
00002CF9000000
0003EE7FB10000
001AD306D70000
00000000000000
FF400000003FF1
FF400000003FF1
FF400000003FF1
FF400000003FF1
FF400000003FF1
FF400000003FF1
FF400000003FF1
FFFFFFFFFFFFF1
FFDDDDDDDDDFF1
FF400000003FF1
FF400000003FF1
FF400000003FF1
FF400000003FF1
FF400000003FF1
FF400000003FF1
FF400000003FF1
FF400000003FF1
ENDCHAR
STARTCHAR hcircumflex
ENCODING 293
SWIDTH 550 0
DWIDTH 13 0
BBX 11 22 1 0
BITMAP
0006FE300000
009F9CF50000
05C901CB2000
000000000000
5FC000000000
5FC000000000
5FC000000000
5FC000000000
5FC000000000
5FC18DFE9100
5FDCFEEFFC00
5FFD3005FF40
5FE20000BF80
5FC000009F90
5FC000008F90
5FC000008F90
5FC000008F90
5FC000008F90
5FC000008F90
5FC000008F90
5FC000008F90
5FC000008F90
ENDCHAR
STARTCHAR Hbar
ENCODING 294
SWIDTH 700 0
DWIDTH 17 0
BBX 17 17 0 0
BITMAP
01FF300000004FF000
01FF300000004FF000
01FF300000004FF000
AFFFFFFFFFFFFFFF90
7BFFBAAAAAAABFFA60
01FF300000004FF000
01FF300000004FF000
01FFFFFFFFFFFFF000
01FFDDDDDDDDDFF000
01FF300000004FF000
01FF300000004FF000
01FF300000004FF000
01FF300000004FF000
01FF300000004FF000
01FF300000004FF000
01FF300000004FF000
01FF300000004FF000
ENDCHAR
STARTCHAR hbar
ENCODING 295
SWIDTH 565 0
DWIDTH 14 0
BBX 13 18 -1 0
BITMAP
000FF200000000
000FF200000000
5FFFFFFF200000
4CCFFCCC100000
000FF200000000
000FF25CEEB400
000FFAFEDFFF30
000FFF6002DFA0
000FF600006FD0
000FF200003FE0
000FF200003FF0
000FF200003FF0
000FF200003FF0
000FF200003FF0
000FF200003FF0
000FF200003FF0
000FF200003FF0
000FF200003FF0
ENDCHAR
STARTCHAR Itilde
ENCODING 296
SWIDTH 271 0
DWIDTH 7 0
BBX 9 21 -1 0
BITMAP
0597102C40
6FFFEBDF20
BC129ED600
0000000000
000DF60000
000DF60000
000DF60000
000DF60000
000DF60000
000DF60000
000DF60000
000DF60000
000DF60000
000DF60000
000DF60000
000DF60000
000DF60000
000DF60000
000DF60000
000DF60000
000DF60000
ENDCHAR
STARTCHAR itilde
ENCODING 297
SWIDTH 247 0
DWIDTH 6 0
BBX 10 18 -2 0
BITMAP
01795006C1
0BFFFDAFC0
1E814CFC30
0000000000
0000000000
0003FF0000
0003FF0000
0003FF0000
0003FF0000
0003FF0000
0003FF0000
0003FF0000
0003FF0000
0003FF0000
0003FF0000
0003FF0000
0003FF0000
0003FF0000
ENDCHAR
STARTCHAR Imacron
ENCODING 298
SWIDTH 271 0
DWIDTH 7 0
BBX 9 21 -1 0
BITMAP
6AAAAAAA30
9FFFFFFF40
0000000000
0000000000
000DF60000
000DF60000
000DF60000
000DF60000
000DF60000
000DF60000
000DF60000
000DF60000
000DF60000
000DF60000
000DF60000
000DF60000
000DF60000
000DF60000
000DF60000
000DF60000
000DF60000
ENDCHAR
STARTCHAR imacron
ENCODING 299
SWIDTH 247 0
DWIDTH 6 0
BBX 8 17 -1 0
BITMAP
9AAAAAAA
EFFFFFFF
00000000
00000000
003FF000
003FF000
003FF000
003FF000
003FF000
003FF000
003FF000
003FF000
003FF000
003FF000
003FF000
003FF000
003FF000
ENDCHAR
STARTCHAR Ibreve
ENCODING 300
SWIDTH 271 0
DWIDTH 7 0
BBX 8 21 -1 0
BITMAP
2FA001FA
0BF86CF5
019DEC50
00000000
000DF600
000DF600
000DF600
000DF600
000DF600
000DF600
000DF600
000DF600
000DF600
000DF600
000DF600
000DF600
000DF600
000DF600
000DF600
000DF600
000DF600
ENDCHAR
STARTCHAR ibreve
ENCODING 301
SWIDTH 247 0
DWIDTH 6 0
BBX 8 17 -1 0
BITMAP
6F5006F6
2ED77EE1
03BEEB30
00000000
003FF000
003FF000
003FF000
003FF000
003FF000
003FF000
003FF000
003FF000
003FF000
003FF000
003FF000
003FF000
003FF000
ENDCHAR
STARTCHAR Iogonek
ENCODING 302
SWIDTH 271 0
DWIDTH 7 0
BBX 5 22 0 -5
BITMAP
00DF60
00DF60
00DF60
00DF60
00DF60
00DF60
00DF60
00DF60
00DF60
00DF60
00DF60
00DF60
00DF60
00DF60
00DF60
00DF60
00FF60
0BF400
6F7000
AF3000
8FDA40
1BED30
ENDCHAR
STARTCHAR iogonek
ENCODING 303
SWIDTH 242 0
DWIDTH 6 0
BBX 5 23 0 -5
BITMAP
006500
04FF20
02ED10
000000
000000
03FF00
03FF00
03FF00
03FF00
03FF00
03FF00
03FF00
03FF00
03FF00
03FF00
03FF00
03FF00
05FF00
3EC100
BF2000
FD0000
DFBB00
4DEB00
ENDCHAR
STARTCHAR Idotaccent
ENCODING 304
SWIDTH 271 0
DWIDTH 7 0
BBX 3 21 2 0
BITMAP
4610
EF70
BE40
0000
DF60
DF60
DF60
DF60
DF60
DF60
DF60
DF60
DF60
DF60
DF60
DF60
DF60
DF60
DF60
DF60
DF60
ENDCHAR
STARTCHAR dotlessi
ENCODING 305
SWIDTH 247 0
DWIDTH 6 0
BBX 3 13 1 0
BITMAP
3FF0
3FF0
3FF0
3FF0
3FF0
3FF0
3FF0
3FF0
3FF0
3FF0
3FF0
3FF0
3FF0
ENDCHAR
STARTCHAR IJ
ENCODING 306
SWIDTH 823 0
DWIDTH 20 0
BBX 16 17 2 0
BITMAP
DF600000000005FE
DF600000000005FE
DF600000000005FE
DF600000000005FE
DF600000000005FE
DF600000000005FE
DF600000000005FE
DF600000000005FE
DF600000000005FE
DF600000000005FE
DF600000000005FE
DF600000000005FE
DF600CE7000007FD
DF600AFB00000BFA
DF6005FF70018FF5
DF60009FFFDFFF80
DF600005BEFEB400
ENDCHAR
STARTCHAR ij
ENCODING 307
SWIDTH 481 0
DWIDTH 12 0
BBX 9 23 1 -5
BITMAP
0650001720
4FF2009FC0
2ED1006E80
0000000000
0000000000
3FF0007FB0
3FF0007FB0
3FF0007FB0
3FF0007FB0
3FF0007FB0
3FF0007FB0
3FF0007FB0
3FF0007FB0
3FF0007FB0
3FF0007FB0
3FF0007FB0
3FF0007FB0
3FF0007FB0
0000007FB0
0000007FA0
000000BF80
0000DEFF30
0000CEC500
ENDCHAR
STARTCHAR Jcircumflex
ENCODING 308
SWIDTH 551 0
DWIDTH 13 0
BBX 14 21 0 0
BITMAP
000000005EE400
00000007FABF70
0000004CA00BC3
00000000000000
000000000DF600
000000000DF600
000000000DF600
000000000DF600
000000000DF600
000000000DF600
000000000DF600
000000000DF600
000000000DF600
000000000DF600
000000000DF600
000000000DF600
5EE000000FF500
3FF300004FF200
0CFC3003DFC000
03EFFEEFFD2000
0029DFFD810000
ENDCHAR
STARTCHAR jcircumflex
ENCODING 309
SWIDTH 251 0
DWIDTH 6 0
BBX 8 22 -1 -5
BITMAP
003EF600
06FC9F80
2BC109C4
00000000
000FF300
000FF300
000FF300
000FF300
000FF300
000FF300
000FF300
000FF300
000FF300
000FF300
000FF300
000FF300
000FF300
000FF300
001FF100
006FE000
ACFF7000
BFD70000
ENDCHAR
STARTCHAR uni0136
ENCODING 310
SWIDTH 626 0
DWIDTH 15 0
BBX 13 22 2 -5
BITMAP
FF4000000AFE20
FF4000008FE300
FF400007FF5000
FF40005FF60000
FF4004FF700000
FF403EF9000000
FF42EFA0000000
FF5DFE10000000
FFEFFF90000000
FFFD7FF5000000
FFD109FE200000
FF4000CFC10000
FF40002EF90000
FF400005FF6000
FF4000008FF300
FF4000000CFD10
FF40000002EFA0
00005FB0000000
00006FA0000000
00008F80000000
0000DF20000000
00009700000000
ENDCHAR
STARTCHAR uni0137
ENCODING 311
SWIDTH 506 0
DWIDTH 12 0
BBX 11 23 1 -5
BITMAP
5FC000000000
5FC000000000
5FC000000000
5FC000000000
5FC000000000
5FC00008FE30
5FC0007FF400
5FC006FF5000
5FC05FF60000
5FC3FF700000
5FDEFD000000
5FFFFF600000
5FFA7FE30000
5FD00BFC1000
5FC001DF9000
5FC0004FF500
5FC00008FE20
5FC00000BFB0
0000DF300000
0000EF200000
0001FE000000
0007F9000000
0004C1000000
ENDCHAR
STARTCHAR kgreenlandic
ENCODING 312
SWIDTH 556 0
DWIDTH 13 0
BBX 12 13 1 0
BITMAP
3FF00000BFC1
3FF0000AFD10
3FF0009FD200
3FF008FE3000
3FF07FE30000
3FFFFF500000
3FFEFF900000
3FF05FF60000
3FF008FF3000
3FF000BFD100
3FF0001DFB00
3FF00003FF80
3FF000006FF5
ENDCHAR
STARTCHAR Lacute
ENCODING 313
SWIDTH 538 0
DWIDTH 13 0
BBX 11 21 2 0
BITMAP
05FF40000000
4FE400000000
9D3000000000
000000000000
FF4000000000
FF4000000000
FF4000000000
FF4000000000
FF4000000000
FF4000000000
FF4000000000
FF4000000000
FF4000000000
FF4000000000
FF4000000000
FF4000000000
FF4000000000
FF4000000000
FF4000000000
FFDDDDDDDD40
FFFFFFFFFF50
ENDCHAR
STARTCHAR lacute
ENCODING 314
SWIDTH 242 0
DWIDTH 6 0
BBX 6 23 1 0
BITMAP
007FE3
06FD20
1BD200
000000
000000
3FF000
3FF000
3FF000
3FF000
3FF000
3FF000
3FF000
3FF000
3FF000
3FF000
3FF000
3FF000
3FF000
3FF000
3FF000
3FF000
3FF000
3FF000
ENDCHAR
STARTCHAR uni013B
ENCODING 315
SWIDTH 538 0
DWIDTH 13 0
BBX 11 23 2 -6
BITMAP
FF4000000000
FF4000000000
FF4000000000
FF4000000000
FF4000000000
FF4000000000
FF4000000000
FF4000000000
FF4000000000
FF4000000000
FF4000000000
FF4000000000
FF4000000000
FF4000000000
FF4000000000
FFDDDDDDDD40
FFFFFFFFFF50
000000000000
0000CF400000
0000DF300000
0000FF100000
0006FA000000
0003C2000000
ENDCHAR
STARTCHAR uni013C
ENCODING 316
SWIDTH 242 0
DWIDTH 6 0
BBX 3 24 1 -6
BITMAP
3FF0
3FF0
3FF0
3FF0
3FF0
3FF0
3FF0
3FF0
3FF0
3FF0
3FF0
3FF0
3FF0
3FF0
3FF0
3FF0
3FF0
3FF0
0000
2FE0
2FD0
5FB0
BF50
7A00
ENDCHAR
STARTCHAR Lcaron
ENCODING 317
SWIDTH 538 0
DWIDTH 13 0
BBX 11 17 2 0
BITMAP
FF4008F80000
FF4009F70000
FF400CF40000
FF402FD00000
FF402B400000
FF4000000000
FF4000000000
FF4000000000
FF4000000000
FF4000000000
FF4000000000
FF4000000000
FF4000000000
FF4000000000
FF4000000000
FFDDDDDDDD40
FFFFFFFFFF50
ENDCHAR
STARTCHAR lcaron
ENCODING 318
SWIDTH 315 0
DWIDTH 8 0
BBX 7 18 1 0
BITMAP
3FF00FF0
3FF01FF0
3FF04FC0
3FF0AF60
3FF06B00
3FF00000
3FF00000
3FF00000
3FF00000
3FF00000
3FF00000
3FF00000
3FF00000
3FF00000
3FF00000
3FF00000
3FF00000
3FF00000
ENDCHAR
STARTCHAR Ldot
ENCODING 319
SWIDTH 538 0
DWIDTH 13 0
BBX 11 17 2 0
BITMAP
FF4000000000
FF4000000000
FF4000000000
FF4000000000
FF4000000000
FF4000000000
FF4004600000
FF401FF50000
FF400CE30000
FF4000000000
FF4000000000
FF4000000000
FF4000000000
FF4000000000
FF4000000000
FFDDDDDDDD40
FFFFFFFFFF50
ENDCHAR
STARTCHAR ldot
ENCODING 320
SWIDTH 350 0
DWIDTH 8 0
BBX 7 18 1 0
BITMAP
3FF00000
3FF00000
3FF00000
3FF00000
3FF00000
3FF00000
3FF00000
3FF01720
3FF09FC0
3FF06E80
3FF00000
3FF00000
3FF00000
3FF00000
3FF00000
3FF00000
3FF00000
3FF00000
ENDCHAR
STARTCHAR Lslash
ENCODING 321
SWIDTH 538 0
DWIDTH 13 0
BBX 13 17 0 0
BITMAP
00FF4000000000
00FF4000000000
00FF4000000000
00FF4000000000
00FF4000000000
00FF4000000000
00FF56B4000000
03FFFFB2000000
8FFF7100000000
55FF4000000000
00FF4000000000
00FF4000000000
00FF4000000000
00FF4000000000
00FF4000000000
00FFDDDDDDDD40
00FFFFFFFFFF50
ENDCHAR
STARTCHAR lslash
ENCODING 322
SWIDTH 270 0
DWIDTH 6 0
BBX 7 18 0 0
BITMAP
00EF4000
00EF4000
00EF4000
00EF4000
00EF4000
00EF4000
00EF4000
00EF9B20
03EFFA10
8FFF4000
53EF4000
00EF4000
00EF4000
00EF4000
00EF4000
00EF4000
00EF4000
00EF4000
ENDCHAR
STARTCHAR Nacute
ENCODING 323
SWIDTH 712 0
DWIDTH 17 0
BBX 14 21 2 0
BITMAP
0000001CFA0000
000000BF900000
000004D9000000
00000000000000
FF900000002FF1
FFF40000002FF1
FFFD0000002FF1
FFFF8000002FF1
FF9FF300002FF1
FF4BFC00002FF1
FF42EF80002FF1
FF406FF3002FF1
FF400BFC002FF1
FF4002EF702FF1
FF40006FF22FF1
FF40000CFB2FF1
FF400002FF9FF1
FF4000007FFFF1
FF4000000CFFF1
FF40000003FFF1
FF400000008FF1
ENDCHAR
STARTCHAR nacute
ENCODING 324
SWIDTH 551 0
DWIDTH 13 0
BBX 11 18 1 0
BITMAP
000000AFC100
000009FB1000
00003CB10000
000000000000
000000000000
5FB18DFE9100
5FCCFEEFFC00
5FFD3005FF40
5FE20000BF80
5FC000009F90
5FC000008F90
5FC000008F90
5FC000008F90
5FC000008F90
5FC000008F90
5FC000008F90
5FC000008F90
5FC000008F90
ENDCHAR
STARTCHAR uni0145
ENCODING 325
SWIDTH 712 0
DWIDTH 17 0
BBX 14 23 2 -6
BITMAP
FF900000002FF1
FFF40000002FF1
FFFD0000002FF1
FFFF8000002FF1
FF9FF300002FF1
FF4BFC00002FF1
FF42EF80002FF1
FF406FF3002FF1
FF400BFC002FF1
FF4002EF702FF1
FF40006FF22FF1
FF40000CFB2FF1
FF400002FF9FF1
FF4000007FFFF1
FF4000000CFFF1
FF40000003FFF1
FF400000008FF1
00000000000000
000009F7000000
00000AF6000000
00000DF3000000
00003FC0000000
00002B30000000
ENDCHAR
STARTCHAR uni0146
ENCODING 326
SWIDTH 551 0
DWIDTH 13 0
BBX 11 19 1 -6
BITMAP
5FB18DFE9100
5FCCFEEFFC00
5FFD3005FF40
5FE20000BF80
5FC000009F90
5FC000008F90
5FC000008F90
5FC000008F90
5FC000008F90
5FC000008F90
5FC000008F90
5FC000008F90
5FC000008F90
000000000000
00007F900000
00008F800000
0000AF500000
0001FE100000
0001A5000000
ENDCHAR
STARTCHAR Ncaron
ENCODING 327
SWIDTH 712 0
DWIDTH 17 0
BBX 14 21 2 0
BITMAP
000AE404FA0000
0000AE7EA00000
00000AFA000000
00000000000000
FF900000002FF1
FFF40000002FF1
FFFD0000002FF1
FFFF8000002FF1
FF9FF300002FF1
FF4BFC00002FF1
FF42EF80002FF1
FF406FF3002FF1
FF400BFC002FF1
FF4002EF702FF1
FF40006FF22FF1
FF40000CFB2FF1
FF400002FF9FF1
FF4000007FFFF1
FF4000000CFFF1
FF40000003FFF1
FF400000008FF1
ENDCHAR
STARTCHAR ncaron
ENCODING 328
SWIDTH 551 0
DWIDTH 13 0
BBX 11 18 1 0
BITMAP
008F602DC100
0007F7DC1000
00007FC10000
000000000000
000000000000
5FB18DFE9100
5FCCFEEFFC00
5FFD3005FF40
5FE20000BF80
5FC000009F90
5FC000008F90
5FC000008F90
5FC000008F90
5FC000008F90
5FC000008F90
5FC000008F90
5FC000008F90
5FC000008F90
ENDCHAR
STARTCHAR napostrophe
ENCODING 329
SWIDTH 551 0
DWIDTH 13 0
BBX 13 18 -1 0
BITMAP
0EF20000000000
0FF10000000000
2FD00000000000
8F800000000000
5B100000000000
005FB18DFE9100
005FCCFEEFFC00
005FFD3005FF40
005FE20000BF80
005FC000009F90
005FC000008F90
005FC000008F90
005FC000008F90
005FC000008F90
005FC000008F90
005FC000008F90
005FC000008F90
005FC000008F90
ENDCHAR
STARTCHAR Eng
ENCODING 330
SWIDTH 692 0
DWIDTH 17 0
BBX 14 22 1 -5
BITMAP
1FF700000007FC
1FFF20000007FC
1FFFB0000007FC
1FFFF6000007FC
1FF8FE100007FC
1FF2BFA00007FC
1FF22FF40007FC
1FF207FD1007FC
1FF200CF9007FC
1FF2003FF307FC
1FF20008FC07FC
1FF20001DF77FC
1FF200004FF9FC
1FF200000AFFFC
1FF2000001EFFC
1FF20000005FFC
1FF20000000BFC
000000000007FC
000000000008FB
00000000001DF8
000000004DEFE2
000000004EEB30
ENDCHAR
STARTCHAR eng
ENCODING 331
SWIDTH 566 0
DWIDTH 14 0
BBX 11 18 1 -5
BITMAP
4FA07DFE9100
4FCBFDEFFD10
4FFA2004FF60
4FE000009FA0
4FD000006FC0
4FD000005FC0
4FD000005FC0
4FD000005FC0
4FD000005FC0
4FD000005FC0
4FD000005FC0
4FD000005FC0
4FD000005FC0
000000005FC0
000000007FB0
00000001CF80
000003EFFE20
000003EEB300
ENDCHAR
STARTCHAR Omacron
ENCODING 332
SWIDTH 687 0
DWIDTH 17 0
BBX 15 21 1 0
BITMAP
0006AAAAAAA30000
0009FFFFFFF40000
0000000000000000
0000000000000000
00016BEED9300000
002DFFFFFFF70000
01DFD40028FF7000
09FD1000006FE200
1EF40000000CF800
5FE000000006FC00
7FB000000003FF00
8FA000000002FF10
9F9000000002FF20
9FA000000002FF10
7FB000000004FF00
5FE000000006FC00
1EF40000000CF800
09FD1000005FF200
01DFC40017FF7000
002DFFFEFFF80000
00016BEED9300000
ENDCHAR
STARTCHAR omacron
ENCODING 333
SWIDTH 570 0
DWIDTH 14 0
BBX 12 17 1 0
BITMAP
01AAAAAAA800
02FFFFFFFB00
000000000000
000000000000
0017CEEB5000
02DFFCDFFA00
0CFB1004EF80
5FE100005FF1
AF8000000DF5
DF5000000AF8
EF40000009F9
DF5000000AF8
BF8000000DF6
6FE100004FF1
0DFB1003DF80
02DFFCDFFA00
0018DFEB5000
ENDCHAR
STARTCHAR Obreve
ENCODING 334
SWIDTH 687 0
DWIDTH 17 0
BBX 15 21 1 0
BITMAP
0002FA001FA00000
0000BF86CF500000
000019DEC5000000
0000000000000000
00016BEED9300000
002DFFFFFFF70000
01DFD40028FF7000
09FD1000006FE200
1EF40000000CF800
5FE000000006FC00
7FB000000003FF00
8FA000000002FF10
9F9000000002FF20
9FA000000002FF10
7FB000000004FF00
5FE000000006FC00
1EF40000000CF800
09FD1000005FF200
01DFC40017FF7000
002DFFFEFFF80000
00016BEED9300000
ENDCHAR
STARTCHAR obreve
ENCODING 335
SWIDTH 570 0
DWIDTH 14 0
BBX 12 17 1 0
BITMAP
00AF2009F200
004FC68FC000
0005CED91000
000000000000
0017CEEB5000
02DFFCDFFA00
0CFB1004EF80
5FE100005FF1
AF8000000DF5
DF5000000AF8
EF40000009F9
DF5000000AF8
BF8000000DF6
6FE100004FF1
0DFB1003DF80
02DFFCDFFA00
0018DFEB5000
ENDCHAR
STARTCHAR Ohungarumlaut
ENCODING 336
SWIDTH 687 0
DWIDTH 17 0
BBX 15 22 1 0
BITMAP
000001DF52EF6000
000008FB0CF90000
00002EE29FC00000
00005C61BD100000
0000000000000000
00016BEED9300000
002DFFFFFFF70000
01DFD40028FF7000
09FD1000006FE200
1EF40000000CF800
5FE000000006FC00
7FB000000003FF00
8FA000000002FF10
9F9000000002FF20
9FA000000002FF10
7FB000000004FF00
5FE000000006FC00
1EF40000000CF800
09FD1000005FF200
01DFC40017FF7000
002DFFFEFFF80000
00016BEED9300000
ENDCHAR
STARTCHAR ohungarumlaut
ENCODING 337
SWIDTH 570 0
DWIDTH 14 0
BBX 12 19 1 0
BITMAP
00007FC09FC1
0001EF35FE20
0009F82EF400
000AC17D7000
000000000000
000000000000
0017CEEB5000
02DFFCDFFA00
0CFB1004EF80
5FE100005FF1
AF8000000DF5
DF5000000AF8
EF40000009F9
DF5000000AF8
BF8000000DF6
6FE100004FF1
0DFB1003DF80
02DFFCDFFA00
0018DFEB5000
ENDCHAR
STARTCHAR OE
ENCODING 338
SWIDTH 953 0
DWIDTH 23 0
BBX 21 17 1 0
BITMAP
00039DFFFFFFFFFFFFFF00
007FFECCDFFEDDDDDDDD00
06FE50000BF80000000000
1FF400000BF80000000000
6FB000000BF80000000000
AF8000000BF80000000000
BF6000000BF80000000000
CF6000000BFFFFFFFFE000
CF6000000BFEDDDDDDB000
CF6000000BF80000000000
BF6000000BF80000000000
AF8000000BF80000000000
6FC000000BF80000000000
1FF400000BF80000000000
06FE50000BF80000000000
007FFECCDFFEDDDDDDDD10
00039DFFFFFFFFFFFFFF20
ENDCHAR
STARTCHAR oe
ENCODING 339
SWIDTH 908 0
DWIDTH 22 0
BBX 20 13 1 0
BITMAP
0017CEEB50005CEEC600
02DFFCDFF90AFFDDFFA0
0CFB1004EFCFD3004EF5
5FE100006FFF300007FB
9F9000000EFC000003FE
CF6000000CFFFFFFFFFF
DF5000000BFECCCCCCCC
CF6000000CFB00000000
AF9000000EFD00000000
5FE100005FFF50000000
0CFB1004EFCFE30003B2
02DFFCDFF90BFFDCEFF6
0018DFEB50006BEFDA40
ENDCHAR
STARTCHAR Racute
ENCODING 340
SWIDTH 615 0
DWIDTH 15 0
BBX 13 21 2 0
BITMAP
000004FF500000
00003EF4000000
00009D40000000
00000000000000
FFFFFFEC820000
FFDDDDFFFE4000
FF400003CFE100
FF4000001EF600
FF4000000BF900
FF4000000BF800
FF4000003FF500
FF400026DFC000
FFFFFFFFFB1000
FFDDDDEF900000
FF40006FE10000
FF40000DF70000
FF400006FE1000
FF400000DF8000
FF4000005FF200
FF4000000CF900
FF40000005FF30
ENDCHAR
STARTCHAR racute
ENCODING 341
SWIDTH 338 0
DWIDTH 8 0
BBX 8 18 1 0
BITMAP
00009FD2
0008FC10
002BC100
00000000
00000000
5FB3BEB0
5FDEFFC0
5FFD5220
5FE20000
5FC00000
5FC00000
5FC00000
5FC00000
5FC00000
5FC00000
5FC00000
5FC00000
5FC00000
ENDCHAR
STARTCHAR uni0156
ENCODING 342
SWIDTH 615 0
DWIDTH 15 0
BBX 13 23 2 -6
BITMAP
FFFFFFEC820000
FFDDDDFFFE4000
FF400003CFE100
FF4000001EF600
FF4000000BF900
FF4000000BF800
FF4000003FF500
FF400026DFC000
FFFFFFFFFB1000
FFDDDDEF900000
FF40006FE10000
FF40000DF70000
FF400006FE1000
FF400000DF8000
FF4000005FF200
FF4000000CF900
FF40000005FF30
00000000000000
0000DF30000000
0000EF20000000
0002FE00000000
0008F800000000
0004B100000000
ENDCHAR
STARTCHAR uni0157
ENCODING 343
SWIDTH 338 0
DWIDTH 8 0
BBX 7 19 1 -6
BITMAP
5FB3BEB0
5FDEFFC0
5FFD5220
5FE20000
5FC00000
5FC00000
5FC00000
5FC00000
5FC00000
5FC00000
5FC00000
5FC00000
5FC00000
00000000
2FE00000
3FD00000
6FA00000
CF400000
79000000
ENDCHAR
STARTCHAR Rcaron
ENCODING 344
SWIDTH 615 0
DWIDTH 15 0
BBX 13 21 2 0
BITMAP
03EC109F500000
002EC9F5000000
0002EF50000000
00000000000000
FFFFFFEC820000
FFDDDDFFFE4000
FF400003CFE100
FF4000001EF600
FF4000000BF900
FF4000000BF800
FF4000003FF500
FF400026DFC000
FFFFFFFFFB1000
FFDDDDEF900000
FF40006FE10000
FF40000DF70000
FF400006FE1000
FF400000DF8000
FF4000005FF200
FF4000000CF900
FF40000005FF30
ENDCHAR
STARTCHAR rcaron
ENCODING 345
SWIDTH 338 0
DWIDTH 8 0
BBX 8 18 1 0
BITMAP
7F702DD2
07F8DD20
006FD100
00000000
00000000
5FB3BEB0
5FDEFFC0
5FFD5220
5FE20000
5FC00000
5FC00000
5FC00000
5FC00000
5FC00000
5FC00000
5FC00000
5FC00000
5FC00000
ENDCHAR
STARTCHAR Sacute
ENCODING 346
SWIDTH 593 0
DWIDTH 14 0
BBX 13 21 1 0
BITMAP
0000002EF70000
000002DF600000
000007D6000000
00000000000000
0017CEFD930000
03EFFEEFFF8000
1EFB30017EF700
6FE1000006FE10
7FC0000001FF30
6FF20000002310
1DFD5000000000
03DFFE95100000
0017DFFFE81000
0000048DFFD200
000000005DFC00
3310000003FF30
EF40000000FF50
BFA0000003FF30
3FFA30004DFC00
04EFFEDEFFD200
0017BEFEB71000
ENDCHAR
STARTCHAR sacute
ENCODING 347
SWIDTH 515 0
DWIDTH 12 0
BBX 11 18 1 0
BITMAP
000000BFB100
00000AFA0000
00004CA00000
000000000000
000000000000
005BEFD92000
08FFDCFFE200
3FF4002CFB00
6FC00003FE00
5FE300000000
0BFFC8400000
007DFFFD7000
000026AFF900
22100005FF10
CF700000FF20
7FE40008FE00
0BFFDCEFF500
006BEFDA3000
ENDCHAR
STARTCHAR Scircumflex
ENCODING 348
SWIDTH 593 0
DWIDTH 14 0
BBX 13 21 1 0
BITMAP
00002DF8000000
0004ED8FA10000
001AD207D60000
00000000000000
0017CEFD930000
03EFFEEFFF8000
1EFB30017EF700
6FE1000006FE10
7FC0000001FF30
6FF20000002310
1DFD5000000000
03DFFE95100000
0017DFFFE81000
0000048DFFD200
000000005DFC00
3310000003FF30
EF40000000FF50
BFA0000003FF30
3FFA30004DFC00
04EFFEDEFFD200
0017BEFEB71000
ENDCHAR
STARTCHAR scircumflex
ENCODING 349
SWIDTH 515 0
DWIDTH 12 0
BBX 11 18 1 0
BITMAP
0000AFB10000
001CF7ED3000
008D503D9000
000000000000
000000000000
005BEFD92000
08FFDCFFE200
3FF4002CFB00
6FC00003FE00
5FE300000000
0BFFC8400000
007DFFFD7000
000026AFF900
22100005FF10
CF700000FF20
7FE40008FE00
0BFFDCEFF500
006BEFDA3000
ENDCHAR
STARTCHAR Scedilla
ENCODING 350
SWIDTH 593 0
DWIDTH 14 0
BBX 13 22 1 -5
BITMAP
0017CEFD930000
03EFFEEFFF8000
1EFB30017EF700
6FE1000006FE10
7FC0000001FF30
6FF20000002310
1DFD5000000000
03DFFE95100000
0017DFFFE81000
0000048DFFD200
000000005DFC00
3310000003FF30
EF40000000FF50
BFA0000003FF30
3FFA30004DFC00
04EFFEDEFFD200
0017BEFEB71000
000007F5000000
000006CF800000
0000000EC00000
0000038F900000
00000BD8000000
ENDCHAR
STARTCHAR scedilla
ENCODING 351
SWIDTH 515 0
DWIDTH 12 0
BBX 11 18 1 -5
BITMAP
005BEFD92000
08FFDCFFE200
3FF4002CFB00
6FC00003FE00
5FE300000000
0BFFC8400000
007DFFFD7000
000026AFF900
22100005FF10
CF700000FF20
7FE40008FE00
0BFFDCEFF500
006BEFDA3000
00004F800000
00004BFB0000
000000AF1000
000026EC0000
00007EA20000
ENDCHAR
STARTCHAR Scaron
ENCODING 352
SWIDTH 593 0
DWIDTH 14 0
BBX 13 21 1 0
BITMAP
001DD207F70000
0001CD8F700000
00001CF7000000
00000000000000
0017CEFD930000
03EFFEEFFF8000
1EFB30017EF700
6FE1000006FE10
7FC0000001FF30
6FF20000002310
1DFD5000000000
03DFFE95100000
0017DFFFE81000
0000048DFFD200
000000005DFC00
3310000003FF30
EF40000000FF50
BFA0000003FF30
3FFA30004DFC00
04EFFEDEFFD200
0017BEFEB71000
ENDCHAR
STARTCHAR scaron
ENCODING 353
SWIDTH 515 0
DWIDTH 12 0
BBX 11 18 1 0
BITMAP
009F503EB100
0009F7EB1000
00009FB00000
000000000000
000000000000
005BEFD92000
08FFDCFFE200
3FF4002CFB00
6FC00003FE00
5FE300000000
0BFFC8400000
007DFFFD7000
000026AFF900
22100005FF10
CF700000FF20
7FE40008FE00
0BFFDCEFF500
006BEFDA3000
ENDCHAR
STARTCHAR uni0162
ENCODING 354
SWIDTH 596 0
DWIDTH 14 0
BBX 14 22 0 -5
BITMAP
6FFFFFFFFFFFFC
5DDDDDFFEDDDDA
000000EF400000
000000EF400000
000000EF400000
000000EF400000
000000EF400000
000000EF400000
000000EF400000
000000EF400000
000000EF400000
000000EF400000
000000EF400000
000000EF400000
000000EF400000
000000EF400000
000000EF400000
000000AF300000
0000008DF50000
00000001FA0000
00000049F60000
000000DC700000
ENDCHAR
STARTCHAR uni0163
ENCODING 355
SWIDTH 326 0
DWIDTH 8 0
BBX 8 21 0 -5
BITMAP
009F9000
009F9000
009F9000
DFFFFFE0
9ADFDAA0
009F9000
009F9000
009F9000
009F9000
009F9000
009F9000
009F9000
009F9000
007FC000
003FFEE0
0005DED0
00008F40
00007CF7
000000EB
000048F8
0000CD80
ENDCHAR
STARTCHAR Tcaron
ENCODING 356
SWIDTH 596 0
DWIDTH 14 0
BBX 14 21 0 0
BITMAP
0002EC109F6000
00002DC9F50000
000002DF500000
00000000000000
6FFFFFFFFFFFFC
5DDDDDFFEDDDDA
000000EF400000
000000EF400000
000000EF400000
000000EF400000
000000EF400000
000000EF400000
000000EF400000
000000EF400000
000000EF400000
000000EF400000
000000EF400000
000000EF400000
000000EF400000
000000EF400000
000000EF400000
ENDCHAR
STARTCHAR tcaron
ENCODING 357
SWIDTH 346 0
DWIDTH 8 0
BBX 9 20 0 0
BITMAP
0000004FB0
0000005FB0
0000008F80
000000DF20
009F909700
009F900000
009F900000
DFFFFFE000
9ADFDAA000
009F900000
009F900000
009F900000
009F900000
009F900000
009F900000
009F900000
009F900000
007FC00000
003FFEE000
0005DED000
ENDCHAR
STARTCHAR Tbar
ENCODING 358
SWIDTH 596 0
DWIDTH 14 0
BBX 14 17 0 0
BITMAP
6FFFFFFFFFFFFC
5DDDDDFFEDDDDA
000000EF400000
000000EF400000
000000EF400000
000000EF400000
0007FFFFFFF000
0005CCFFCCC000
000000EF400000
000000EF400000
000000EF400000
000000EF400000
000000EF400000
000000EF400000
000000EF400000
000000EF400000
000000EF400000
ENDCHAR
STARTCHAR tbar
ENCODING 359
SWIDTH 326 0
DWIDTH 8 0
BBX 9 16 -1 0
BITMAP
0009F90000
0009F90000
0009F90000
0DFFFFFE00
09ADFDAA00
0009F90000
0009F90000
2FFFFFFF50
2CCEFECC40
0009F90000
0009F90000
0009F90000
0009F90000
0007FC0000
0003FFEE00
00005DED00
ENDCHAR
STARTCHAR Utilde
ENCODING 360
SWIDTH 648 0
DWIDTH 16 0
BBX 13 21 1 0
BITMAP
0001894008B000
000DFFFDBFA000
003F615CEB2000
00000000000000
5FD00000004FF0
5FD00000004FF0
5FD00000004FF0
5FD00000004FF0
5FD00000004FF0
5FD00000004FF0
5FD00000004FF0
5FD00000004FF0
5FD00000004FF0
5FD00000004FF0
5FD00000004FF0
5FD00000004FF0
4FF10000006FD0
1EF6000000CF90
07FF71002BFE20
009FFFDEFFE400
0004ADFEC81000
ENDCHAR
STARTCHAR utilde
ENCODING 361
SWIDTH 551 0
DWIDTH 13 0
BBX 11 18 1 0
BITMAP
00299300A900
02EFFFCBF800
06F417DEA100
000000000000
000000000000
6FC000009F90
6FC000009F90
6FC000009F90
6FC000009F90
6FC000009F90
6FC000009F90
6FC000009F90
6FC000009F90
6FC000009F90
5FE00000BF90
1FF80019FF90
08FFEDFFDF90
007DFEB48F90
ENDCHAR
STARTCHAR Umacron
ENCODING 362
SWIDTH 648 0
DWIDTH 16 0
BBX 13 21 1 0
BITMAP
000AAAAAAA8000
001FFFFFFFC000
00000000000000
00000000000000
5FD00000004FF0
5FD00000004FF0
5FD00000004FF0
5FD00000004FF0
5FD00000004FF0
5FD00000004FF0
5FD00000004FF0
5FD00000004FF0
5FD00000004FF0
5FD00000004FF0
5FD00000004FF0
5FD00000004FF0
4FF10000006FD0
1EF6000000CF90
07FF71002BFE20
009FFFDEFFE400
0004ADFEC81000
ENDCHAR
STARTCHAR umacron
ENCODING 363
SWIDTH 551 0
DWIDTH 13 0
BBX 11 17 1 0
BITMAP
02AAAAAAA700
03FFFFFFFA00
000000000000
000000000000
6FC000009F90
6FC000009F90
6FC000009F90
6FC000009F90
6FC000009F90
6FC000009F90
6FC000009F90
6FC000009F90
6FC000009F90
5FE00000BF90
1FF80019FF90
08FFEDFFDF90
007DFEB48F90
ENDCHAR
STARTCHAR Ubreve
ENCODING 364
SWIDTH 648 0
DWIDTH 16 0
BBX 13 21 1 0
BITMAP
0009F3008F3000
0003FC78ED0000
00004CEEA20000
00000000000000
5FD00000004FF0
5FD00000004FF0
5FD00000004FF0
5FD00000004FF0
5FD00000004FF0
5FD00000004FF0
5FD00000004FF0
5FD00000004FF0
5FD00000004FF0
5FD00000004FF0
5FD00000004FF0
5FD00000004FF0
4FF10000006FD0
1EF6000000CF90
07FF71002BFE20
009FFFDEFFE400
0004ADFEC81000
ENDCHAR
STARTCHAR ubreve
ENCODING 365
SWIDTH 551 0
DWIDTH 13 0
BBX 11 17 1 0
BITMAP
00BF100BF100
006FB69FA000
0006CED81000
000000000000
6FC000009F90
6FC000009F90
6FC000009F90
6FC000009F90
6FC000009F90
6FC000009F90
6FC000009F90
6FC000009F90
6FC000009F90
5FE00000BF90
1FF80019FF90
08FFEDFFDF90
007DFEB48F90
ENDCHAR
STARTCHAR Uring
ENCODING 366
SWIDTH 648 0
DWIDTH 16 0
BBX 13 23 1 0
BITMAP
000009ED500000
00007D25E10000
0000A700D40000
00007C25E20000
000009ED500000
00000000000000
5FD00000004FF0
5FD00000004FF0
5FD00000004FF0
5FD00000004FF0
5FD00000004FF0
5FD00000004FF0
5FD00000004FF0
5FD00000004FF0
5FD00000004FF0
5FD00000004FF0
5FD00000004FF0
5FD00000004FF0
4FF10000006FD0
1EF6000000CF90
07FF71002BFE20
009FFFDEFFE400
0004ADFEC81000
ENDCHAR
STARTCHAR uring
ENCODING 367
SWIDTH 551 0
DWIDTH 13 0
BBX 11 19 1 0
BITMAP
0001AEC30000
0009B27D0000
000C501F2000
0009A27D0000
0001AEC30000
000000000000
6FC000009F90
6FC000009F90
6FC000009F90
6FC000009F90
6FC000009F90
6FC000009F90
6FC000009F90
6FC000009F90
6FC000009F90
5FE00000BF90
1FF80019FF90
08FFEDFFDF90
007DFEB48F90
ENDCHAR
STARTCHAR Uhungarumlaut
ENCODING 368
SWIDTH 648 0
DWIDTH 16 0
BBX 13 22 1 0
BITMAP
000006FD17FD10
00001EF44FE300
00008F92EF5000
0000AD16D80000
00000000000000
5FD00000004FF0
5FD00000004FF0
5FD00000004FF0
5FD00000004FF0
5FD00000004FF0
5FD00000004FF0
5FD00000004FF0
5FD00000004FF0
5FD00000004FF0
5FD00000004FF0
5FD00000004FF0
5FD00000004FF0
4FF10000006FD0
1EF6000000CF90
07FF71002BFE20
009FFFDEFFE400
0004ADFEC81000
ENDCHAR
STARTCHAR uhungarumlaut
ENCODING 369
SWIDTH 551 0
DWIDTH 13 0
BBX 11 19 1 0
BITMAP
00008FB0AFB0
0002FE27FD10
000AF73FF300
001BB08D6000
000000000000
000000000000
6FC000009F90
6FC000009F90
6FC000009F90
6FC000009F90
6FC000009F90
6FC000009F90
6FC000009F90
6FC000009F90
6FC000009F90
5FE00000BF90
1FF80019FF90
08FFEDFFDF90
007DFEB48F90
ENDCHAR
STARTCHAR Uogonek
ENCODING 370
SWIDTH 648 0
DWIDTH 16 0
BBX 13 22 1 -5
BITMAP
5FD00000004FF0
5FD00000004FF0
5FD00000004FF0
5FD00000004FF0
5FD00000004FF0
5FD00000004FF0
5FD00000004FF0
5FD00000004FF0
5FD00000004FF0
5FD00000004FF0
5FD00000004FF0
5FD00000004FF0
4FF10000006FD0
1EF6000000CF90
07FF71002BFE20
009FFFDEFFE400
0004ADFFFB1000
0000004FC00000
000000BF300000
000000DF100000
000000AFCB2000
0000002CEC2000
ENDCHAR
STARTCHAR uogonek
ENCODING 371
SWIDTH 551 0
DWIDTH 13 0
BBX 11 18 1 -5
BITMAP
6FC000009F90
6FC000009F90
6FC000009F90
6FC000009F90
6FC000009F90
6FC000009F90
6FC000009F90
6FC000009F90
6FC000009F90
5FE00000BF90
1FF80019FF90
08FFEDFFDF90
007DFEB48F90
00000003EB10
0000001EC000
0000005F8000
0000004FEA80
00000009EE70
ENDCHAR
STARTCHAR Wcircumflex
ENCODING 372
SWIDTH 887 0
DWIDTH 21 0
BBX 21 21 0 0
BITMAP
0000000007FD3000000000
000000009F9CE500000000
00000005D901CB20000000
0000000000000000000000
2FF1000004FD0000009FA0
0EF5000009FF200000CF60
0AF800000DFF700001FF30
07FC00002FEFB00004FE00
03FF00007F8EE00008FA00
00EF4000BF4AF4000BF700
00BF7001FE06F8000EF300
007FA004FA02FC003FE000
003FE009F600CF206FB000
000EF20DF1008F60AF7000
000BF62FC0004FA0DF3000
0007F96F80000EE2FE0000
0004FCAF30000AF7FB0000
0000FEEE000006FDF70000
0000CFF9000002FFF40000
00008FF5000000DFF00000
00004FF10000008FB00000
ENDCHAR
STARTCHAR wcircumflex
ENCODING 373
SWIDTH 751 0
DWIDTH 18 0
BBX 18 18 0 0
BITMAP
00000005FE40000000
0000008FABF6000000
000004CA01BC300000
000000000000000000
000000000000000000
5FC00001FF10000CF5
1FF10005FF50001FF1
0CF4000AFF90005FB0
08F8000EDEE0008F70
03FC004F8AF300CF30
00EF108F35F801FE00
00AF50DE01FC04F900
006F93F900AF28F500
001FD7F5006F7CF100
000CFDE1001FCFC000
0008FFA0000BFF7000
0004FF600007FF3000
0000EF100002FE0000
ENDCHAR
STARTCHAR Ycircumflex
ENCODING 374
SWIDTH 600 0
DWIDTH 14 0
BBX 14 21 0 0
BITMAP
000002DF700000
00004ED8FA1000
0001BD207D6000
00000000000000
8FE100000009FD
1EF80000002FF5
07FE100000AFC0
00DF900003FF40
005FF2000BFB00
000CF9003FF200
0004FF20BF9000
0000AFA4FE1000
00002FFDF70000
000009FFE10000
000001FF600000
000000EF500000
000000EF500000
000000EF500000
000000EF500000
000000EF500000
000000EF500000
ENDCHAR
STARTCHAR ycircumflex
ENCODING 375
SWIDTH 473 0
DWIDTH 11 0
BBX 11 23 0 -5
BITMAP
00005EE40000
0008FABF6000
004CA01BC300
000000000000
000000000000
8FC000006FD0
3FF20000BF80
0DF70001FF30
07FC0005FD00
02FF200AF800
00CF700EF300
006FC04FC000
001FF28F7000
000BF6DF2000
0005FDFC0000
0001EFF70000
00009FF20000
00005FB00000
00008F600000
0000EF100000
0019F9000000
0EFFE2000000
0EEB20000000
ENDCHAR
STARTCHAR Ydieresis
ENCODING 376
SWIDTH 600 0
DWIDTH 14 0
BBX 14 21 0 0
BITMAP
00016300063000
0007FE006FF000
0004EB004EB000
00000000000000
8FE100000009FD
1EF80000002FF5
07FE100000AFC0
00DF900003FF40
005FF2000BFB00
000CF9003FF200
0004FF20BF9000
0000AFA4FE1000
00002FFDF70000
000009FFE10000
000001FF600000
000000EF500000
000000EF500000
000000EF500000
000000EF500000
000000EF500000
000000EF500000
ENDCHAR
STARTCHAR Zacute
ENCODING 377
SWIDTH 598 0
DWIDTH 14 0
BBX 13 21 1 0
BITMAP
0000003EF60000
000002EF500000
000008D5000000
00000000000000
DFFFFFFFFFFF10
BDDDDDDDDEFF10
000000002EF700
00000000CFC000
00000007FE2000
0000003FF60000
000000DFA00000
000008FE100000
00004FF5000000
0001DF90000000
000AFD10000000
005FF300000000
02EF8000000000
0BFC0000000000
6FE20000000000
EFEDDDDDDDDD60
FFFFFFFFFFFF70
ENDCHAR
STARTCHAR zacute
ENCODING 378
SWIDTH 495 0
DWIDTH 12 0
BBX 11 18 1 0
BITMAP
000005FE4000
00004FE30000
0000AD300000
000000000000
000000000000
DFFFFFFFFB00
ACCCCCCFFA00
0000007FE200
000003FF5000
00001DF90000
0000AFC00000
0006FE300000
002EF6000000
00CFA0000000
09FD10000000
5FF400000000
EFECCCCCCC10
FFFFFFFFFF10
ENDCHAR
STARTCHAR Zdotaccent
ENCODING 379
SWIDTH 598 0
DWIDTH 14 0
BBX 13 21 1 0
BITMAP
00000461000000
00000FF7000000
00000BE4000000
00000000000000
DFFFFFFFFFFF10
BDDDDDDDDEFF10
000000002EF700
00000000CFC000
00000007FE2000
0000003FF60000
000000DFA00000
000008FE100000
00004FF5000000
0001DF90000000
000AFD10000000
005FF300000000
02EF8000000000
0BFC0000000000
6FE20000000000
EFEDDDDDDDDD60
FFFFFFFFFFFF70
ENDCHAR
STARTCHAR zdotaccent
ENCODING 380
SWIDTH 495 0
DWIDTH 12 0
BBX 11 18 1 0
BITMAP
000055000000
0003FF400000
0001DD200000
000000000000
000000000000
DFFFFFFFFB00
ACCCCCCFFA00
0000007FE200
000003FF5000
00001DF90000
0000AFC00000
0006FE300000
002EF6000000
00CFA0000000
09FD10000000
5FF400000000
EFECCCCCCC10
FFFFFFFFFF10
ENDCHAR
STARTCHAR Zcaron
ENCODING 381
SWIDTH 598 0
DWIDTH 14 0
BBX 13 21 1 0
BITMAP
002DD108F70000
0002DD8F600000
00002DF6000000
00000000000000
DFFFFFFFFFFF10
BDDDDDDDDEFF10
000000002EF700
00000000CFC000
00000007FE2000
0000003FF60000
000000DFA00000
000008FE100000
00004FF5000000
0001DF90000000
000AFD10000000
005FF300000000
02EF8000000000
0BFC0000000000
6FE20000000000
EFEDDDDDDDDD60
FFFFFFFFFFFF70
ENDCHAR
STARTCHAR zcaron
ENCODING 382
SWIDTH 495 0
DWIDTH 12 0
BBX 11 18 1 0
BITMAP
04EB00BE4000
004EBAE40000
0003EE400000
000000000000
000000000000
DFFFFFFFFB00
ACCCCCCFFA00
0000007FE200
000003FF5000
00001DF90000
0000AFC00000
0006FE300000
002EF6000000
00CFA0000000
09FD10000000
5FF400000000
EFECCCCCCC10
FFFFFFFFFF10
ENDCHAR
STARTCHAR longs
ENCODING 383
SWIDTH 248 0
DWIDTH 6 0
BBX 7 18 1 0
BITMAP
005CFE60
05FFEC40
0DF90000
1FF20000
2FF10000
2FF10000
2FF10000
2FF10000
2FF10000
2FF10000
2FF10000
2FF10000
2FF10000
2FF10000
2FF10000
2FF10000
2FF10000
2FF10000
ENDCHAR
STARTCHAR uni018F
ENCODING 399
SWIDTH 690 0
DWIDTH 17 0
BBX 15 17 1 0
BITMAP
0039CEFEC7100000
03FFFFDEFFE60000
00A610003AFF6000
00000000008FF200
00000000000CF900
000000000006FD00
000000000002FF10
000000000001FF30
EFFFFFFFFFFFFF30
DFDBBBBBBBBCFF30
DF6000000003FF10
AF7000000006FD00
7FC00000000CF800
1FF50000007FE100
07FF710018FF5000
007FFFEDFFF50000
00029DEFD9200000
ENDCHAR
STARTCHAR florin
ENCODING 402
SWIDTH 340 0
DWIDTH 8 0
BBX 10 23 -1 -5
BITMAP
000018DFD2
0000BFFEE0
0003FF4000
0006FC0000
0007FB0000
07FFFFFF20
04ACFEAA10
0007FB0000
0007FB0000
0007FB0000
0007FB0000
0007FB0000
0007FB0000
0007FB0000
0007FB0000
0007FB0000
0007FB0000
0007FB0000
0007FB0000
0008FA0000
001CF70000
3CEFE10000
4EEB300000
ENDCHAR
STARTCHAR Ohorn
ENCODING 416
SWIDTH 686 0
DWIDTH 16 0
BBX 16 19 1 0
BITMAP
0000000000000165
00000000000003FB
00017CEED92007F9
003EFFFFFFF67FF2
03FFB3003AFFFD40
0CFB0000009FE100
3FF20000001EF500
8FB000000009F900
AF8000000006FC00
CF7000000005FD00
CF6000000005FE00
CF7000000005FD00
AF8000000006FC00
8FB000000009F900
3FF20000001EF500
0CFA0000008FD100
03FFB30029FF4000
004EFFEEFFF50000
00017CEEC8200000
ENDCHAR
STARTCHAR ohorn
ENCODING 417
SWIDTH 571 0
DWIDTH 14 0
BBX 14 15 1 0
BITMAP
00000000000130
000000000009F2
0017CEEB500CE0
02DFFCDFFAAF80
0CFB1004EFE800
5FD100005FE100
AF8000000DF500
DF5000000AF800
EF40000009F900
DF5000000AF800
BF8000000DF600
6FE100005FF100
0CFA1003EF8000
02DFFCDFFA0000
0018DFEB500000
ENDCHAR
STARTCHAR Uhorn
ENCODING 431
SWIDTH 695 0
DWIDTH 17 0
BBX 18 18 1 0
BITMAP
0000000000000009F5
5FD00000004FF00BF3
5FD00000004FF03FE0
5FD00000004FFAEF60
5FD00000004FFFC500
5FD00000004FF00000
5FD00000004FF00000
5FD00000004FF00000
5FD00000004FF00000
5FD00000004FF00000
5FD00000004FF00000
5FD00000004FF00000
5FD00000004FF00000
4FF10000006FD00000
1EF6000000CF900000
07FF71002BFE200000
009FFFDEFFE4000000
0004ADFEC810000000
ENDCHAR
STARTCHAR uhorn
ENCODING 432
SWIDTH 618 0
DWIDTH 15 0
BBX 15 14 1 0
BITMAP
0000000000008F20
6FC000009F90AF00
6FC000009FC9F900
6FC000009FEC7000
6FC000009F900000
6FC000009F900000
6FC000009F900000
6FC000009F900000
6FC000009F900000
6FC000009F900000
5FE00000BF900000
1FF80019FF900000
08FFEDFFDF900000
007DFEB48F900000
ENDCHAR
STARTCHAR uni01F0
ENCODING 496
SWIDTH 251 0
DWIDTH 6 0
BBX 8 23 -1 -5
BITMAP
3EC109F5
03EC9F50
002EF500
00000000
00000000
000FF300
000FF300
000FF300
000FF300
000FF300
000FF300
000FF300
000FF300
000FF300
000FF300
000FF300
000FF300
000FF300
000FF300
001FF100
006FE000
ACFF7000
BFD70000
ENDCHAR
STARTCHAR Aringacute
ENCODING 506
SWIDTH 652 0
DWIDTH 16 0
BBX 16 23 0 0
BITMAP
000000007FA10000
00000003D7000000
0000000000000000
0000005ED3000000
000000E25C000000
000000E25C000000
000000BFF4000000
000000BFF6000000
000002FFFC000000
000008F9EF200000
00000DF38F800000
00004FD03FE00000
0000AF800DF50000
0001FF2008FA0000
0006FC0002FF1000
000CF70000CF7000
003FF200007FD000
009FFFFFFFFFF300
00EFDDDDDDDEF900
05FE10000005FE10
0BF900000000EF60
2FF3000000008FC0
7FD0000000002FF2
ENDCHAR
STARTCHAR aringacute
ENCODING 507
SWIDTH 543 0
DWIDTH 13 0
BBX 11 20 1 0
BITMAP
0000008F9000
000004D60000
000000000000
00006ED30000
0001E26B0000
0001E26B0000
00006ED30000
003ADFEB4000
07FFDCEFF500
3FF50008FE00
49700000EF30
00000000DF40
004ADFFFFF40
09FFB988EF40
5FE30000DF40
AF800000DF40
AF900002FF40
7FE4005DFF50
1DFFEFFEEF60
019DFD91AFA0
ENDCHAR
STARTCHAR AEacute
ENCODING 508
SWIDTH 934 0
DWIDTH 22 0
BBX 22 21 0 0
BITMAP
000000000006FE30000000
00000000005FE300000000
0000000000AD3000000000
0000000000000000000000
0000000003FFFFFFFFFFF4
000000000BFFFCCCCCCCC3
000000005FDEF400000000
00000001EF5EF400000000
00000009FC0DF500000000
0000003FF30CF600000000
000000CFA00CF600000000
000006FE200BFFFFFFFF50
00001EF8000AFDCCCCCC40
00009FD1000AF800000000
0003FF500009F900000000
000CFFFFFFFFF900000000
007FFFFFFFFFFA00000000
01EF91111118FA00000000
0AFE10000007FB00000000
4FF600000006FECCCCCCCC
DFC000000005FFFFFFFFFF
ENDCHAR
STARTCHAR aeacute
ENCODING 509
SWIDTH 844 0
DWIDTH 20 0
BBX 20 18 0 0
BITMAP
00000000005FE4000000
0000000004FE40000000
0000000009D300000000
00000000000000000000
00000000000000000000
0016CEFD8103AEFD9200
01DFFDCFFD6FFECEFE30
08FE3001CFFF60019FC0
059500005FF800000EF3
000000003FF200000BF6
0029DEFFFFFFFFFFFFF7
03EFEBAABFFAAAAAAAA5
0CFC10003FF100000000
0FF300003FF400000000
1FF300004FFB00000000
0DFA0006EFFF800017A0
05FFECEFF85FFECDFFE1
005CEFD930029DFEC820
ENDCHAR
STARTCHAR Oslashacute
ENCODING 510
SWIDTH 687 0
DWIDTH 17 0
BBX 15 22 1 -1
BITMAP
00000002DF800000
0000001DF7000000
0000006D70000000
0000000000003710
00016BEFDA31DB00
002DFFFEFFFCE200
01DFD40017FFA000
09FD100000DFF200
1EF5000008FDF800
5FE000003F87FC00
7FB00000CD04FF00
8FA00007F402FF10
9F90002E9002FF20
9FA000BD1002FF10
7FB006F50004FF00
5FE01EA00006FC00
1FF4AE10000CF800
09FEF600006FF200
01DFE40017FF7000
009FFFFEFFF80000
03F76BEED9300000
0AB0000000000000
ENDCHAR
STARTCHAR oslashacute
ENCODING 511
SWIDTH 566 0
DWIDTH 14 0
BBX 12 20 1 -2
BITMAP
000003EF7000
00002DF60000
00007D500000
000000000320
000000005F20
0017CEEBDA00
02DFFCDFFA00
0CFB100CFF80
5FD1004F7FF1
AF8000CA0DF5
DF5004F30AF8
EF400CA009F9
DF404F200AF8
AF80CA000DF5
6FD5F2005FF1
0DFFA003EF70
02DFFCDFFA00
00CCDFEB5000
04F300000000
034000000000
ENDCHAR
STARTCHAR uni0218
ENCODING 536
SWIDTH 593 0
DWIDTH 14 0
BBX 13 23 1 -6
BITMAP
0017CEFD930000
03EFFEEFFF8000
1EFB30017EF700
6FE1000006FE10
7FC0000001FF30
6FF20000002310
1DFD5000000000
03DFFE95100000
0017DFFFE81000
0000048DFFD200
000000005DFC00
3310000003FF30
EF40000000FF50
BFA0000003FF30
3FFA30004DFC00
04EFFEDEFFD200
0017BEFEB71000
00000000000000
00000AF6000000
00000BF5000000
00000DF2000000
00004FB0000000
00002C30000000
ENDCHAR
STARTCHAR uni0219
ENCODING 537
SWIDTH 515 0
DWIDTH 12 0
BBX 11 19 1 -6
BITMAP
005BEFD92000
08FFDCFFE200
3FF4002CFB00
6FC00003FE00
5FE300000000
0BFFC8400000
007DFFFD7000
000026AFF900
22100005FF10
CF700000FF20
7FE40008FE00
0BFFDCEFF500
006BEFDA3000
000000000000
00007F900000
00008F800000
0000AF500000
0001FE100000
0001A5000000
ENDCHAR
STARTCHAR uni021A
ENCODING 538
SWIDTH 596 0
DWIDTH 14 0
BBX 14 23 0 -6
BITMAP
6FFFFFFFFFFFFC
5DDDDDFFEDDDDA
000000EF400000
000000EF400000
000000EF400000
000000EF400000
000000EF400000
000000EF400000
000000EF400000
000000EF400000
000000EF400000
000000EF400000
000000EF400000
000000EF400000
000000EF400000
000000EF400000
000000EF400000
00000000000000
000000DF300000
000000EF200000
000001FE000000
000007F9000000
000004C1000000
ENDCHAR
STARTCHAR uni021B
ENCODING 539
SWIDTH 326 0
DWIDTH 8 0
BBX 7 22 0 -6
BITMAP
009F9000
009F9000
009F9000
DFFFFFE0
9ADFDAA0
009F9000
009F9000
009F9000
009F9000
009F9000
009F9000
009F9000
009F9000
007FC000
003FFEE0
0005DED0
00000000
0000BF50
0000CF40
0000EF10
0005FB00
0003C200
ENDCHAR
STARTCHAR uni0237
ENCODING 567
SWIDTH 251 0
DWIDTH 6 0
BBX 6 18 -1 -5
BITMAP
000FF3
000FF3
000FF3
000FF3
000FF3
000FF3
000FF3
000FF3
000FF3
000FF3
000FF3
000FF3
000FF3
000FF3
001FF1
006FE0
ACFF70
BFD700
ENDCHAR
STARTCHAR uni0259
ENCODING 601
SWIDTH 526 0
DWIDTH 13 0
BBX 11 13 1 0
BITMAP
029DEEC70000
4FFECCFFC100
1B40002CFA00
00000003FF30
00000000BF80
000000008FA0
DFFFFFFFFFB0
CFDCCCCCDFA0
BF600000BF80
8FA00002FF20
3FF6002CF900
07FFECFFB100
004BEEC70000
ENDCHAR
STARTCHAR uni02BC
ENCODING 700
SWIDTH 199 0
DWIDTH 5 0
BBX 4 6 0 12
BITMAP
05FC
05FC
06FB
0AF7
2EE1
2B40
ENDCHAR
STARTCHAR circumflex
ENCODING 710
SWIDTH 470 0
DWIDTH 11 0
BBX 7 3 2 15
BITMAP
01AFB100
2CF7ED20
8D404D90
ENDCHAR
STARTCHAR caron
ENCODING 711
SWIDTH 443 0
DWIDTH 11 0
BBX 8 3 1 15
BITMAP
1DD207F7
01DD8F70
001CF700
ENDCHAR
STARTCHAR uni02C9
ENCODING 713
SWIDTH 458 0
DWIDTH 11 0
BBX 9 2 1 15
BITMAP
5FFFFFFF80
5FFFFFFF80
ENDCHAR
STARTCHAR breve
ENCODING 728
SWIDTH 426 0
DWIDTH 10 0
BBX 8 3 1 14
BITMAP
6F6005F6
1EE77EE2
03BEEB30
ENDCHAR
STARTCHAR dotaccent
ENCODING 729
SWIDTH 242 0
DWIDTH 6 0
BBX 4 3 1 15
BITMAP
0650
4FF2
2ED1
ENDCHAR
STARTCHAR ring
ENCODING 730
SWIDTH 334 0
DWIDTH 8 0
BBX 6 5 1 14
BITMAP
07ED60
5E34E3
8900B6
5D34E3
08EE60
ENDCHAR
STARTCHAR ogonek
ENCODING 731
SWIDTH 270 0
DWIDTH 7 0
BBX 5 6 0 -5
BITMAP
005C30
07F800
2FC000
5F8000
4FEA80
08EE70
ENDCHAR
STARTCHAR tilde
ENCODING 732
SWIDTH 471 0
DWIDTH 11 0
BBX 9 3 1 15
BITMAP
0399300B80
2FFFFBCF70
7E317DE900
ENDCHAR
STARTCHAR hungarumlaut
ENCODING 733
SWIDTH 373 0
DWIDTH 9 0
BBX 9 4 1 14
BITMAP
03FE24FE30
0BF72EF500
5FC1CF8000
7D34CB0000
ENDCHAR
STARTCHAR uni02F3
ENCODING 755
SWIDTH 293 0
DWIDTH 7 0
BBX 5 4 1 -5
BITMAP
0AEA00
6A0B60
6A0A60
1BEB10
ENDCHAR
STARTCHAR gravecomb
ENCODING 768
SWIDTH 0 0
DWIDTH 0 0
BBX 5 3 -10 15
BITMAP
8FE200
08FD10
008D60
ENDCHAR
STARTCHAR acutecomb
ENCODING 769
SWIDTH 0 0
DWIDTH 0 0
BBX 5 3 -8 15
BITMAP
01CFA0
0BF900
5D8000
ENDCHAR
STARTCHAR tildecomb
ENCODING 771
SWIDTH 0 0
DWIDTH 0 0
BBX 9 3 -11 15
BITMAP
02894008A0
1DFFFCBF90
4F516DEA10
ENDCHAR
STARTCHAR hookabovecomb
ENCODING 777
SWIDTH 0 0
DWIDTH 0 0
BBX 4 5 -8 15
BITMAP
CD80
48F7
02FA
9FE4
AE00
ENDCHAR
STARTCHAR uni030F
ENCODING 783
SWIDTH 0 0
DWIDTH 0 0
BBX 9 3 -12 15
BITMAP
2CFA3EF500
01BFC4EE30
0008D73D90
ENDCHAR
STARTCHAR dotbelowcomb
ENCODING 803
SWIDTH 0 0
DWIDTH 0 0
BBX 4 3 -9 -5
BITMAP
2DD1
4FF2
0650
ENDCHAR
STARTCHAR tonos
ENCODING 900
SWIDTH 256 0
DWIDTH 6 0
BBX 3 4 2 15
BITMAP
5FA0
7F50
AE00
8900
ENDCHAR
STARTCHAR dieresistonos
ENCODING 901
SWIDTH 505 0
DWIDTH 12 0
BBX 10 5 1 15
BITMAP
00007FA000
0000BF4000
16209C0360
9FC0000EF7
6E90000BE4
ENDCHAR
STARTCHAR Alphatonos
ENCODING 902
SWIDTH 652 0
DWIDTH 16 0
BBX 16 19 0 0
BITMAP
004FA00000000000
007F500000000000
009E105FE1000000
008900BFF6000000
000002FFFC000000
000008F9EF200000
00000DF38F800000
00004FD03FE00000
0000AF800DF50000
0001FF2008FA0000
0006FC0002FF1000
000CF70000CF7000
003FF200007FD000
009FFFFFFFFFF300
00EFDDDDDDDEF900
05FE10000005FE10
0BF900000000EF60
2FF3000000008FC0
7FD0000000002FF2
ENDCHAR
STARTCHAR anoteleia
ENCODING 903
SWIDTH 261 0
DWIDTH 6 0
BBX 4 3 1 7
BITMAP
1DE2
3FF6
0781
ENDCHAR
STARTCHAR Epsilontonos
ENCODING 904
SWIDTH 568 0
DWIDTH 14 0
BBX 16 19 -3 0
BITMAP
0FE0000000000000
2F90000000000000
5F400FFFFFFFFFFB
4C000FFDDDDDDDD9
00000FF400000000
00000FF400000000
00000FF400000000
00000FF400000000
00000FF400000000
00000FFFFFFFFF90
00000FFDDDDDDD80
00000FF400000000
00000FF400000000
00000FF400000000
00000FF400000000
00000FF400000000
00000FF400000000
00000FFDDDDDDDDA
00000FFFFFFFFFFC
ENDCHAR
STARTCHAR Etatonos
ENCODING 905
SWIDTH 712 0
DWIDTH 17 0
BBX 19 19 -3 0
BITMAP
0CF20000000000000000
0FC00000000000000000
3F700FF400000003FF10
3C200FF400000003FF10
00000FF400000003FF10
00000FF400000003FF10
00000FF400000003FF10
00000FF400000003FF10
00000FF400000003FF10
00000FFFFFFFFFFFFF10
00000FFDDDDDDDDDFF10
00000FF400000003FF10
00000FF400000003FF10
00000FF400000003FF10
00000FF400000003FF10
00000FF400000003FF10
00000FF400000003FF10
00000FF400000003FF10
00000FF400000003FF10
ENDCHAR
STARTCHAR Iotatonos
ENCODING 906
SWIDTH 271 0
DWIDTH 7 0
BBX 8 19 -3 0
BITMAP
0BF30000
0ED00000
2F800DF6
2C300DF6
00000DF6
00000DF6
00000DF6
00000DF6
00000DF6
00000DF6
00000DF6
00000DF6
00000DF6
00000DF6
00000DF6
00000DF6
00000DF6
00000DF6
00000DF6
ENDCHAR
STARTCHAR Omicrontonos
ENCODING 908
SWIDTH 697 0
DWIDTH 17 0
BBX 17 19 -1 0
BITMAP
0BF300000000000000
0ED000000000000000
2F80004BDFDA400000
2C301AFFFEFFFA1000
0000BFE61016EFA000
0005FF3000003FF500
000CF800000008FB00
001FF300000003FF10
004FE000000000FF30
005FD000000000EF40
006FD000000000DF50
005FD000000000EF40
004FE000000000FF30
001FF300000003FF10
000CF800000008FB00
0005FF3000002EF500
0000BFE61015EFB000
00001AFFFEFFFB1000
0000004ADFDB500000
ENDCHAR
STARTCHAR Upsilontonos
ENCODING 910
SWIDTH 649 0
DWIDTH 16 0
BBX 19 19 -3 0
BITMAP
3FB00000000000000000
6F600000000000000000
9F106FF300000007FF20
7A000CFB0000001EF800
000004FF3000007FE100
000000BFB00001EF6000
0000003FF40008FD0000
00000009FC001EF50000
00000002EF509FC00000
000000008FC2FF300000
000000001EFDFA000000
0000000006FFF2000000
0000000000DF90000000
0000000000CF70000000
0000000000CF70000000
0000000000CF70000000
0000000000CF70000000
0000000000CF70000000
0000000000CF70000000
ENDCHAR
STARTCHAR Omegatonos
ENCODING 911
SWIDTH 674 0
DWIDTH 16 0
BBX 16 19 -1 0
BITMAP
0BF3000000000000
0ED0000000000000
1F80016CEEC71000
2C302DFFEEFFE400
0001DFB3002AFE20
0008FC000000AFB0
000EF50000002FF2
004FF10000000DF6
005FD00000000BF8
006FD00000000AF9
006FD00000000AF9
005FD00000000BF8
003FF00000000CF6
000EF30000000EF2
0009F80000005FB0
0002EE200000CF40
00005FD3002BF800
005DDFFF62FFFDD7
006FFFFF62FFFFF8
ENDCHAR
STARTCHAR iotadieresistonos
ENCODING 912
SWIDTH 323 0
DWIDTH 8 0
BBX 10 20 -2 0
BITMAP
00000FF200
00003FB000
04503C5163
2FF40007FE
1DE20004EB
0000000000
0000000000
0000BF7000
0000BF7000
0000BF7000
0000BF7000
0000BF7000
0000BF7000
0000BF7000
0000BF7000
0000BF7000
0000BF7000
00009FA000
00005FFEC0
000007DEB0
ENDCHAR
STARTCHAR Alpha
ENCODING 913
SWIDTH 652 0
DWIDTH 16 0
BBX 16 17 0 0
BITMAP
0000005FE1000000
000000BFF6000000
000002FFFC000000
000008F9EF200000
00000DF38F800000
00004FD03FE00000
0000AF800DF50000
0001FF2008FA0000
0006FC0002FF1000
000CF70000CF7000
003FF200007FD000
009FFFFFFFFFF300
00EFDDDDDDDEF900
05FE10000005FE10
0BF900000000EF60
2FF3000000008FC0
7FD0000000002FF2
ENDCHAR
STARTCHAR Beta
ENCODING 914
SWIDTH 622 0
DWIDTH 15 0
BBX 12 17 2 0
BITMAP
FFFFFFEC8100
FFDDDDEFFE30
FF400003DFB0
FF4000005FF1
FF4000003FF2
FF4000007FE0
FF400027FF50
FFFFFFFFE400
FFDCCCDFFC20
FF400001AFD0
FF4000001EF5
FF4000000BF8
FF4000000BF8
FF4000001EF6
FF400003CFE1
FFDDDDEFFE40
FFFFFFFD9200
ENDCHAR
STARTCHAR Gamma
ENCODING 915
SWIDTH 556 0
DWIDTH 13 0
BBX 11 17 2 0
BITMAP
EFFFFFFFFF80
EFEDDDDDDD70
EF5000000000
EF5000000000
EF5000000000
EF5000000000
EF5000000000
EF5000000000
EF5000000000
EF5000000000
EF5000000000
EF5000000000
EF5000000000
EF5000000000
EF5000000000
EF5000000000
EF5000000000
ENDCHAR
STARTCHAR uni0394
ENCODING 916
SWIDTH 705 0
DWIDTH 17 0
BBX 17 17 0 0
BITMAP
0000000AFB00000000
0000001FFF20000000
0000007FFF80000000
000000DF6FE0000000
000005FC0CF5000000
00000BF606FB000000
00003FE101EF200000
00009F9000AF800000
0001EF30004FE00000
0007FB00000DF50000
000DF5000007FB0000
005FE0000002FF2000
00BF80000000BF8000
02FF200000005FE000
09FB000000000EF500
1EFEDDDDDDDDDEFB00
6FFFFFFFFFFFFFFF20
ENDCHAR
STARTCHAR Epsilon
ENCODING 917
SWIDTH 568 0
DWIDTH 14 0
BBX 11 17 2 0
BITMAP
FFFFFFFFFFB0
FFDDDDDDDD90
FF4000000000
FF4000000000
FF4000000000
FF4000000000
FF4000000000
FFFFFFFFF900
FFDDDDDDD800
FF4000000000
FF4000000000
FF4000000000
FF4000000000
FF4000000000
FF4000000000
FFDDDDDDDDA0
FFFFFFFFFFC0
ENDCHAR
STARTCHAR Zeta
ENCODING 918
SWIDTH 598 0
DWIDTH 14 0
BBX 13 17 1 0
BITMAP
DFFFFFFFFFFF10
BDDDDDDDDEFF10
000000002EF700
00000000CFC000
00000007FE2000
0000003FF60000
000000DFA00000
000008FE100000
00004FF5000000
0001DF90000000
000AFD10000000
005FF300000000
02EF8000000000
0BFC0000000000
6FE20000000000
EFEDDDDDDDDD60
FFFFFFFFFFFF70
ENDCHAR
STARTCHAR Eta
ENCODING 919
SWIDTH 712 0
DWIDTH 17 0
BBX 14 17 2 0
BITMAP
FF400000003FF1
FF400000003FF1
FF400000003FF1
FF400000003FF1
FF400000003FF1
FF400000003FF1
FF400000003FF1
FFFFFFFFFFFFF1
FFDDDDDDDDDFF1
FF400000003FF1
FF400000003FF1
FF400000003FF1
FF400000003FF1
FF400000003FF1
FF400000003FF1
FF400000003FF1
FF400000003FF1
ENDCHAR
STARTCHAR Theta
ENCODING 920
SWIDTH 680 0
DWIDTH 16 0
BBX 14 17 1 0
BITMAP
00017CEEC82000
003EFFFFFFE500
02EFB3002AFF40
0BFB0000009FD0
3FF20000001EF5
7FB000000009FA
AF8000000006FC
BF70CFFFFF45FD
CF70ACCCCC35FE
BF7000000005FD
AF8000000006FC
8FB000000009FA
3FF20000000EF5
0BFB0000008FD1
02EFB30029FF40
003EFFEEFFF500
00017CEEC82000
ENDCHAR
STARTCHAR Iota
ENCODING 921
SWIDTH 271 0
DWIDTH 7 0
BBX 3 17 2 0
BITMAP
DF60
DF60
DF60
DF60
DF60
DF60
DF60
DF60
DF60
DF60
DF60
DF60
DF60
DF60
DF60
DF60
DF60
ENDCHAR
STARTCHAR Kappa
ENCODING 922
SWIDTH 626 0
DWIDTH 15 0
BBX 13 17 2 0
BITMAP
FF4000000AFE20
FF4000008FE300
FF400007FF5000
FF40005FF60000
FF4004FF700000
FF403EF9000000
FF42EFA0000000
FF5DFE10000000
FFEFFF90000000
FFFD7FF5000000
FFD109FE200000
FF4000CFC10000
FF40002EF90000
FF400005FF6000
FF4000008FF300
FF4000000CFD10
FF40000002EFA0
ENDCHAR
STARTCHAR Lambda
ENCODING 923
SWIDTH 655 0
DWIDTH 16 0
BBX 15 17 0 0
BITMAP
0000006FE1000000
000000BFF5000000
000002FFFB000000
000007FDFF100000
00000DF7CF700000
00003FF17FC00000
00009FB02FF30000
0000EF600BF80000
0005FE1006FE0000
000AFA0001FF4000
001FF50000AFA000
006FE000005FE100
00CF9000001EF600
02FF40000009FB00
07FD00000004FF20
0DF800000000EF70
3FF3000000009FD0
ENDCHAR
STARTCHAR Mu
ENCODING 924
SWIDTH 873 0
DWIDTH 21 0
BBX 17 17 2 0
BITMAP
FFF20000000002FFF0
FFF70000000008FFF0
FFFD000000000EFFF0
FFDF400000005FDFF0
FF8FA0000000BF8FF0
FF3FF2000002FE3FF0
FF2AF8000009F93FF0
FF24FD00001EF33FF0
FF30DF50006FC03FF0
FF307FB000CF604FF0
FF301FF203FE104FF0
FF400AF809F8004FF0
FF4004FD1EF2004FF0
FF4000CFAFB0004FF0
FF40006FFF50004FF0
FF40001EFE00004FF0
FF400009F800004FF0
ENDCHAR
STARTCHAR Nu
ENCODING 925
SWIDTH 712 0
DWIDTH 17 0
BBX 14 17 2 0
BITMAP
FF900000002FF1
FFF40000002FF1
FFFD0000002FF1
FFFF8000002FF1
FF9FF300002FF1
FF4BFC00002FF1
FF42EF80002FF1
FF406FF3002FF1
FF400BFC002FF1
FF4002EF702FF1
FF40006FF22FF1
FF40000CFB2FF1
FF400002FF9FF1
FF4000007FFFF1
FF4000000CFFF1
FF40000003FFF1
FF400000008FF1
ENDCHAR
STARTCHAR Xi
ENCODING 926
SWIDTH 570 0
DWIDTH 14 0
BBX 12 17 1 0
BITMAP
8FFFFFFFFFF3
7DDDDDDDDDD2
000000000000
000000000000
000000000000
000000000000
000000000000
09FFFFFFFF40
07DDDDDDDD30
000000000000
000000000000
000000000000
000000000000
000000000000
000000000000
8DDDDDDDDDD5
9FFFFFFFFFF6
ENDCHAR
STARTCHAR Omicron
ENCODING 927
SWIDTH 687 0
DWIDTH 17 0
BBX 15 17 1 0
BITMAP
00016BEED9300000
002DFFFFFFF70000
01DFD40028FF7000
09FD1000006FE200
1EF40000000CF800
5FE000000006FC00
7FB000000003FF00
8FA000000002FF10
9F9000000002FF20
9FA000000002FF10
7FB000000004FF00
5FE000000006FC00
1EF40000000CF800
09FD1000005FF200
01DFC40017FF7000
002DFFFEFFF80000
00016BEED9300000
ENDCHAR
STARTCHAR Pi
ENCODING 928
SWIDTH 713 0
DWIDTH 17 0
BBX 13 17 2 0
BITMAP
EFFFFFFFFFFFF0
EFEDDDDDDDDFF0
EF500000004FF0
EF500000004FF0
EF500000004FF0
EF500000004FF0
EF500000004FF0
EF500000004FF0
EF500000004FF0
EF500000004FF0
EF500000004FF0
EF500000004FF0
EF500000004FF0
EF500000004FF0
EF500000004FF0
EF500000004FF0
EF500000004FF0
ENDCHAR
STARTCHAR Rho
ENCODING 929
SWIDTH 630 0
DWIDTH 15 0
BBX 13 17 2 0
BITMAP
FFFFFFFEA40000
FFDDDDDFFF9000
FF4000018FF700
FF40000009FE00
FF40000002FF20
FF40000001FF30
FF40000002FF20
FF40000009FE00
FF4000139FF700
FFFFFFFFFF8000
FFDDDDCB830000
FF400000000000
FF400000000000
FF400000000000
FF400000000000
FF400000000000
FF400000000000
ENDCHAR
STARTCHAR Sigma
ENCODING 931
SWIDTH 570 0
DWIDTH 14 0
BBX 13 17 0 0
BITMAP
3FFFFFFFFFFF30
2FFEDDDDDDDD30
08FE3000000000
00AFD100000000
001CFB00000000
0002EF80000000
00003FF5000000
000006FE300000
000000BFB00000
000006FE300000
00003FF5000000
0002EF80000000
001CFB00000000
00AFD100000000
08FE3000000000
2FFEDDDDDDDDA0
3FFFFFFFFFFFC0
ENDCHAR
STARTCHAR Tau
ENCODING 932
SWIDTH 596 0
DWIDTH 14 0
BBX 14 17 0 0
BITMAP
6FFFFFFFFFFFFC
5DDDDDFFEDDDDA
000000EF400000
000000EF400000
000000EF400000
000000EF400000
000000EF400000
000000EF400000
000000EF400000
000000EF400000
000000EF400000
000000EF400000
000000EF400000
000000EF400000
000000EF400000
000000EF400000
000000EF400000
ENDCHAR
STARTCHAR Upsilon
ENCODING 933
SWIDTH 600 0
DWIDTH 14 0
BBX 14 17 0 0
BITMAP
8FE100000009FD
1EF80000002FF5
07FE100000AFC0
00DF900003FF40
005FF2000BFB00
000CF9003FF200
0004FF20BF9000
0000AFA4FE1000
00002FFDF70000
000009FFE10000
000001FF600000
000000EF500000
000000EF500000
000000EF500000
000000EF500000
000000EF500000
000000EF500000
ENDCHAR
STARTCHAR Phi
ENCODING 934
SWIDTH 716 0
DWIDTH 17 0
BBX 17 17 0 0
BITMAP
00000008FC00000000
00000008FC00000000
00004ADFFFEB610000
001BFFFEFFEFFD3000
00BFD408FC03BFE100
06FE1008FC000BFA00
0CF70008FC0003FF10
0FF30008FC0000EF40
1FF20008FC0000DF50
0FF30008FC0000EF40
0CF70008FC0003FF10
06FE1008FC000BFA00
00CFD408FC03AFE200
001BFFEEFFEFFD3000
00005BEFFFEB610000
00000008FC00000000
00000008FC00000000
ENDCHAR
STARTCHAR Chi
ENCODING 935
SWIDTH 626 0
DWIDTH 15 0
BBX 15 17 0 0
BITMAP
0DFB0000000AFE10
04FF6000005FF500
009FE10001DFA000
001EFA0008FE2000
0005FF403FF60000
0000AFD1CFB00000
00001EFDFF200000
000006FFF7000000
000000EFF1000000
000007FFF9000000
00002FFBFF300000
0000CFC0BFD00000
0006FF302FF80000
002EF80007FF3000
00BFD10000CFC000
05FF4000003FF700
1EFA00000009FE20
ENDCHAR
STARTCHAR Psi
ENCODING 936
SWIDTH 691 0
DWIDTH 17 0
BBX 15 17 1 0
BITMAP
EF5000FF4000DF60
EF5000FF4000DF60
EF5000FF4000DF60
EF5000FF4000DF60
EF5000FF4000DF60
EF5000FF4000DF60
EF5000FF4000DF50
CF7000FF4001FF40
9FC000FF4005FF10
3FF600FF402DF900
09FF93FF56EFE100
009FFFFFFFFC2000
00039CFFDA500000
000000FF40000000
000000FF40000000
000000FF40000000
000000FF40000000
ENDCHAR
STARTCHAR uni03A9
ENCODING 937
SWIDTH 665 0
DWIDTH 16 0
BBX 14 17 1 0
BITMAP
00028CEEC60000
004EFFDEFFC200
03FF91003CFD00
0CF9000001DF80
3FF10000006FD0
7FC00000001FF3
9FA00000000EF5
AF900000000EF6
AF900000000EF6
9FA00000000EF4
7FB00000001FF2
3FE00000003FD0
0CF40000008F80
05FC000002EE10
009FB2003DF400
8DDFFF25FFFDD4
9FFFFF25FFFFF5
ENDCHAR
STARTCHAR Iotadieresis
ENCODING 938
SWIDTH 271 0
DWIDTH 7 0
BBX 9 21 -1 0
BITMAP
1640006400
6FF006FF10
4EB003EC00
0000000000
000DF60000
000DF60000
000DF60000
000DF60000
000DF60000
000DF60000
000DF60000
000DF60000
000DF60000
000DF60000
000DF60000
000DF60000
000DF60000
000DF60000
000DF60000
000DF60000
000DF60000
ENDCHAR
STARTCHAR Upsilondieresis
ENCODING 939
SWIDTH 600 0
DWIDTH 14 0
BBX 14 21 0 0
BITMAP
00016300063000
0007FE006FF000
0004EB004EB000
00000000000000
8FE100000009FD
1EF80000002FF5
07FE100000AFC0
00DF900003FF40
005FF2000BFB00
000CF9003FF200
0004FF20BF9000
0000AFA4FE1000
00002FFDF70000
000009FFE10000
000001FF600000
000000EF500000
000000EF500000
000000EF500000
000000EF500000
000000EF500000
000000EF500000
ENDCHAR
STARTCHAR alphatonos
ENCODING 940
SWIDTH 564 0
DWIDTH 14 0
BBX 13 19 1 0
BITMAP
000000EF100000
000002FA000000
000005F5000000
000004C1000000
00000000000000
00000000000000
003AEEC52FC000
03EFECEFAFC000
0DFB1007FFC000
5FE10000AFC000
9FA000006FC000
BF7000006FC000
CF5000006FC000
CF6000006FC000
AF8000006FC000
7FD000009FC000
1EF90007FFE100
05FFECEF8FFF30
004BEEC506EE40
ENDCHAR
STARTCHAR epsilontonos
ENCODING 941
SWIDTH 539 0
DWIDTH 13 0
BBX 11 19 1 0
BITMAP
00000CF20000
00000FC00000
00003F700000
00003C200000
000000000000
000000000000
016CDFDB5000
1DFFDCDFFB00
7FE30004EF60
8F9000004630
3FE510000000
04DFFFFB0000
09FFCBB80000
7FD200000000
CF7000000000
CF7000008FA0
8FE40005EF60
1BFFDCEFFA00
006BEFEB5000
ENDCHAR
STARTCHAR etatonos
ENCODING 942
SWIDTH 566 0
DWIDTH 14 0
BBX 11 24 1 -5
BITMAP
000007F70000
00000AF20000
00000DC00000
00000A700000
000000000000
000000000000
4FA18DFEA200
4FCCFDDFFE10
4FFB2003EF70
4FE100008FB0
4FD000006FC0
4FD000005FC0
4FD000005FC0
4FD000005FC0
4FD000005FC0
4FD000005FC0
4FD000005FC0
4FD000005FC0
4FD000005FC0
000000005FC0
000000005FC0
000000005FC0
000000005FC0
000000005FC0
ENDCHAR
STARTCHAR iotatonos
ENCODING 943
SWIDTH 323 0
DWIDTH 8 0
BBX 5 19 2 0
BITMAP
0CF200
0FC000
3F7000
3C2000
000000
000000
BF7000
BF7000
BF7000
BF7000
BF7000
BF7000
BF7000
BF7000
BF7000
BF7000
9FA000
5FFEC0
07DEB0
ENDCHAR
STARTCHAR upsilondieresistonos
ENCODING 944
SWIDTH 545 0
DWIDTH 13 0
BBX 11 20 1 0
BITMAP
00001FF10000
00005FA00000
05504C416200
3FF30009FD00
1DD10005E900
000000000000
000000000000
5FD00008FB00
5FD00003FF20
5FD00000DF60
5FD000009FA0
5FD000007FC0
5FD000005FD0
5FD000005FD0
5FD000007FC0
4FE00000BF90
2FF20003FF40
0CFA002DFC00
04FFECFFD200
003BEFD81000
ENDCHAR
STARTCHAR alpha
ENCODING 945
SWIDTH 564 0
DWIDTH 14 0
BBX 13 13 1 0
BITMAP
003AEEC52FC000
03EFECEFAFC000
0DFB1007FFC000
5FE10000AFC000
9FA000006FC000
BF7000006FC000
CF5000006FC000
CF6000006FC000
AF8000006FC000
7FD000009FC000
1EF90007FFE100
05FFECEF8FFF30
004BEEC506EE40
ENDCHAR
STARTCHAR beta
ENCODING 946
SWIDTH 592 0
DWIDTH 14 0
BBX 12 22 1 -5
BITMAP
0005BEFD8100
009FFDDFFD10
07FE4002DFA0
0DF500004FF0
1FF100002FF1
2FF100004FE0
2FF10014DF60
2FF10EFFF600
2FF10BCEFE40
2FF100007FF3
2FF100000AFA
2FF1000005FD
2FF1000005FD
2FF100000AFA
2FFA20007FF4
2FFFFDCEFF80
2FF4AEFEB400
2FF100000000
2FF100000000
2FF100000000
2FF100000000
2FF100000000
ENDCHAR
STARTCHAR gamma
ENCODING 947
SWIDTH 500 0
DWIDTH 12 0
BBX 12 18 0 -5
BITMAP
4FE000000BF6
0DF400002FF1
08F900007FB0
03FE0000CF50
00CF5002FE10
007FA007F900
001FE10CF400
000BF52FD000
0005FB7F8000
0001EFDF3000
0000AFFC0000
00004FF70000
00000FF30000
00000FF30000
00000FF30000
00000FF30000
00000FF30000
00000FF30000
ENDCHAR
STARTCHAR delta
ENCODING 948
SWIDTH 566 0
DWIDTH 14 0
BBX 12 18 1 0
BITMAP
0017CEED9100
00CFFDDFF300
05FE20015100
05FE10000000
01DFE7100000
002BFFF92000
004CFFFFE500
06FD414CFF40
2EE20001CFC0
8F9000003FF3
CF6000000DF6
DF5000000BF7
CF6000000CF6
AF8000000EF4
6FE100005FE0
0DFB1004EF70
03EFFCDFF900
0018DFEB5000
ENDCHAR
STARTCHAR epsilon
ENCODING 949
SWIDTH 539 0
DWIDTH 13 0
BBX 11 13 1 0
BITMAP
016CDFDB5000
1DFFDCDFFB00
7FE30004EF60
8F9000004630
3FE510000000
04DFFFFB0000
09FFCBB80000
7FD200000000
CF7000000000
CF7000008FA0
8FE40005EF60
1BFFDCEFFA00
006BEFEB5000
ENDCHAR
STARTCHAR zeta
ENCODING 950
SWIDTH 518 0
DWIDTH 12 0
BBX 11 21 1 -4
BITMAP
BFFFFFFFFF40
8CCCCCCDFF20
0000001CF600
000000BF8000
00000AFB0000
00008FD10000
0005FE200000
001EF4000000
009F90000000
01FE10000000
06FA00000000
0AF700000000
0CF600000000
0BF800000000
07FE50000000
00BFFEA62000
0005BEFFF500
0000004BFB00
00000005F900
0000001DE200
0000002B4000
ENDCHAR
STARTCHAR eta
ENCODING 951
SWIDTH 566 0
DWIDTH 14 0
BBX 11 18 1 -5
BITMAP
4FA18DFEA200
4FCCFDDFFE10
4FFB2003EF70
4FE100008FB0
4FD000006FC0
4FD000005FC0
4FD000005FC0
4FD000005FC0
4FD000005FC0
4FD000005FC0
4FD000005FC0
4FD000005FC0
4FD000005FC0
000000005FC0
000000005FC0
000000005FC0
000000005FC0
000000005FC0
ENDCHAR
STARTCHAR theta
ENCODING 952
SWIDTH 569 0
DWIDTH 14 0
BBX 12 17 1 0
BITMAP
0007CFEB4000
01CFFCDFF700
08FC2005FF30
0EF200008F90
4FC000003FE0
7FA000000FF1
8F9000000FF3
8FFFFFFFFFF3
8FECCCCCCFF3
8F9000000FF3
8FA000000FF2
6FC000002FF1
4FE000005FE0
0EF60000BF90
07FE3007FF30
00BFFCDFF700
0007CFEB4000
ENDCHAR
STARTCHAR iota
ENCODING 953
SWIDTH 323 0
DWIDTH 8 0
BBX 5 13 2 0
BITMAP
BF7000
BF7000
BF7000
BF7000
BF7000
BF7000
BF7000
BF7000
BF7000
BF7000
9FA000
5FFEC0
07DEB0
ENDCHAR
STARTCHAR kappa
ENCODING 954
SWIDTH 556 0
DWIDTH 13 0
BBX 12 13 1 0
BITMAP
3FF00000BFC1
3FF0000AFD10
3FF0009FD200
3FF008FE3000
3FF07FE30000
3FFFFF500000
3FFEFF900000
3FF05FF60000
3FF008FF3000
3FF000BFD100
3FF0001DFB00
3FF00003FF80
3FF000006FF5
ENDCHAR
STARTCHAR lambda
ENCODING 955
SWIDTH 553 0
DWIDTH 13 0
BBX 13 18 0 0
BITMAP
01EEB100000000
01CFFB00000000
0005FF30000000
0000DF80000000
00007FE0000000
00001FF5000000
00004FFB000000
00009FFF200000
0001EFEF700000
0006FD7FD00000
000BF82FF40000
002FF30BFA0000
007FC005FE1000
00DF7000EF6000
04FF20008FC000
09FB00002FF400
1EF600000BFF90
6FF1000002CF90
ENDCHAR
STARTCHAR uni03BC
ENCODING 956
SWIDTH 566 0
DWIDTH 14 0
BBX 11 18 1 -5
BITMAP
3FF000006FC0
3FF000006FC0
3FF000006FC0
3FF000006FC0
3FF000006FC0
3FF000006FC0
3FF000006FC0
3FF000006FC0
3FF100006FC0
3FF400007FC0
3FFC1004EFC0
3FFFECDFDFC0
3FF7DFD83B90
3FF000000000
3FF000000000
3FF000000000
3FF000000000
3FF000000000
ENDCHAR
STARTCHAR nu
ENCODING 957
SWIDTH 484 0
DWIDTH 12 0
BBX 12 13 0 0
BITMAP
7FC000003FE1
1FF100008FA0
0BF60000CF50
06FB0002FE00
01FF1007F900
00AF600BF400
005FB01FE000
000EF16F8000
0009F5BF3000
0004FBFD0000
0000DFF80000
00008FF20000
00003FC00000
ENDCHAR
STARTCHAR xi
ENCODING 958
SWIDTH 490 0
DWIDTH 12 0
BBX 10 22 1 -5
BITMAP
0017CEFEC6
03EFFDCDF7
0CFC200011
0FF3000000
0DF5000000
05FE621000
003BFFFF90
007EFECC70
0AFC400000
5FD1000000
AF80000000
CF60000000
BF70000000
8FD1000000
2EFB200000
04EFFB6200
0018DFFFC2
0000026CFC
00000002FE
00000005FA
0000001DF3
0000000A60
ENDCHAR
STARTCHAR omicron
ENCODING 959
SWIDTH 570 0
DWIDTH 14 0
BBX 12 13 1 0
BITMAP
0017CEEB5000
02DFFCDFFA00
0CFB1004EF80
5FE100005FF1
AF8000000DF5
DF5000000AF8
EF40000009F9
DF5000000AF8
BF8000000DF6
6FE100004FF1
0DFB1003DF80
02DFFCDFFA00
0018DFEB5000
ENDCHAR
STARTCHAR pi
ENCODING 960
SWIDTH 595 0
DWIDTH 14 0
BBX 14 13 0 0
BITMAP
8FFFFFFFFFFFF5
6CEFECCCCEFEC4
008F90000AF800
008F90000AF800
008F90000AF800
008F90000AF800
008F90000AF800
008F90000AF800
008F90000AF800
008F90000AF800
008F900008FB00
008F900004FFED
008F9000007DEC
ENDCHAR
STARTCHAR rho
ENCODING 961
SWIDTH 566 0
DWIDTH 14 0
BBX 12 18 1 -5
BITMAP
0005CEEC5000
009FFDDFF900
06FE4004EF50
0CF800007FD0
2FF200001FF2
4FE000000DF4
4FD000000CF5
4FD000000DF5
4FD000000FF3
4FE000005FE1
4FFA1003EF90
4FEEFCDFFC10
4FD29EFD8100
4FD000000000
4FD000000000
4FD000000000
4FD000000000
4FD000000000
ENDCHAR
STARTCHAR sigma1
ENCODING 962
SWIDTH 537 0
DWIDTH 13 0
BBX 11 17 1 -4
BITMAP
0017DEEB4000
02DFFCEFF700
0BFB1006FF30
4FF10000AF80
9FA000004960
BF7000000000
CF6000000000
CF7000000000
9FB000000000
4FF600000000
0AFF92000000
009FFFC82000
00039EFFF500
0000002AFB00
00000006F900
0000001DE200
0000002B4000
ENDCHAR
STARTCHAR sigma
ENCODING 963
SWIDTH 566 0
DWIDTH 14 0
BBX 13 13 1 0
BITMAP
0018DFFFFFFF70
02DFFCDFFDCC50
0CFB1004EC1000
5FE100006F9000
AF8000000EF100
CF6000000CF500
DF5000000BF600
CF6000000CF600
9F9000000EF400
5FE100006FE000
0CFB1004EF6000
02DFFCDFF80000
0018DFEB400000
ENDCHAR
STARTCHAR tau
ENCODING 964
SWIDTH 521 0
DWIDTH 13 0
BBX 12 13 0 0
BITMAP
1FFFFFFFFFF8
1CCCCFFCCCC6
00000FF30000
00000FF30000
00000FF30000
00000FF30000
00000FF30000
00000FF30000
00000FF30000
00000FF30000
00000DF60000
000009FFDB00
000001AEE900
ENDCHAR
STARTCHAR upsilon
ENCODING 965
SWIDTH 545 0
DWIDTH 13 0
BBX 11 13 1 0
BITMAP
5FD00008FB00
5FD00003FF20
5FD00000DF60
5FD000009FA0
5FD000007FC0
5FD000005FD0
5FD000005FD0
5FD000007FC0
4FE00000BF90
2FF20003FF40
0CFA002DFC00
04FFECFFD200
003BEFD81000
ENDCHAR
STARTCHAR phi
ENCODING 966
SWIDTH 704 0
DWIDTH 17 0
BBX 15 19 1 -6
BITMAP
00860007DEC60000
08FE106FFDFFB100
2FF600AF802CFA00
8FC000BF7002FF40
CF7000BF70009F90
EF4000BF70006FC0
EF3000BF70005FD0
DF5000BF70006FC0
AFA000BF7000BF90
4FF400BF7006FF30
0AFE60BF718FF900
00AFFEEFEFFF9000
0004ADFFFD930000
000000BF70000000
000000BF70000000
000000BF70000000
000000BF70000000
000000BF70000000
000000BF70000000
ENDCHAR
STARTCHAR chi
ENCODING 967
SWIDTH 495 0
DWIDTH 12 0
BBX 13 18 0 -5
BITMAP
7FD600000BF700
7EFF50003FE100
008FD000BF8000
000DF503FE1000
0006FB0AF80000
0000EF5FF20000
00008FFF900000
00002FFF200000
00000BFB000000
00001FFE000000
00008FFF600000
0001EF9FC00000
0008FB0EF40000
001EF407FA0000
007FC001FF2000
01EF50009FB100
07FC00001EFF90
0EF5000003CE50
ENDCHAR
STARTCHAR psi
ENCODING 968
SWIDTH 700 0
DWIDTH 17 0
BBX 15 19 1 -6
BITMAP
DF4000DF500AF900
DF4000DF5005FE10
DF4000DF5000EF50
DF4000DF5000BF80
DF4000DF50008FA0
DF4000DF50006FB0
DF6000DF50006FB0
BF7000DF50008FA0
8FC000DF5000DF70
2FF500DF5008FF10
09FE60DF529FF700
009FFEFFEFFF7000
00039DFFFC820000
000000DF50000000
000000DF50000000
000000DF50000000
000000DF50000000
000000DF50000000
000000DF50000000
ENDCHAR
STARTCHAR omega
ENCODING 969
SWIDTH 823 0
DWIDTH 20 0
BBX 18 13 1 0
BITMAP
03FF2000000005FE10
0AFA0000000000EF60
1FF400000000009FB0
4FF000015400004FF0
7FC00004FE00001FF3
8FA00004FE00000EF4
8F900004FE00000DF4
7FA00004FF00000EF3
5FC00005FF10001FF1
2FF20009FF50006FD0
0BFA003EBED102DF70
02EFECFE36FFCEFC00
002AEEB3005CEE9100
ENDCHAR
STARTCHAR iotadieresis
ENCODING 970
SWIDTH 323 0
DWIDTH 8 0
BBX 9 18 -1 0
BITMAP
0550005500
4FF303FF30
2DD101DD10
0000000000
0000000000
000BF70000
000BF70000
000BF70000
000BF70000
000BF70000
000BF70000
000BF70000
000BF70000
000BF70000
000BF70000
0009FA0000
0005FFEC00
00007DEB00
ENDCHAR
STARTCHAR upsilondieresis
ENCODING 971
SWIDTH 545 0
DWIDTH 13 0
BBX 11 18 1 0
BITMAP
006400054000
05FF105FF200
03EC002EC100
000000000000
000000000000
5FD00008FB00
5FD00003FF20
5FD00000DF60
5FD000009FA0
5FD000007FC0
5FD000005FD0
5FD000005FD0
5FD000007FC0
4FE00000BF90
2FF20003FF40
0CFA002DFC00
04FFECFFD200
003BEFD81000
ENDCHAR
STARTCHAR omicrontonos
ENCODING 972
SWIDTH 570 0
DWIDTH 14 0
BBX 12 19 1 0
BITMAP
000008F60000
00000BF10000
00000DB00000
00000B600000
000000000000
000000000000
0017CEEB5000
02DFFCDFFA00
0CFB1004EF80
5FE100005FF1
AF8000000DF5
DF5000000AF8
EF40000009F9
DF5000000AF8
BF8000000DF6
6FE100004FF1
0DFB1003DF80
02DFFCDFFA00
0018DFEB5000
ENDCHAR
STARTCHAR upsilontonos
ENCODING 973
SWIDTH 545 0
DWIDTH 13 0
BBX 11 19 1 0
BITMAP
00000EF10000
00001FB00000
00004F600000
00004C100000
000000000000
000000000000
5FD00008FB00
5FD00003FF20
5FD00000DF60
5FD000009FA0
5FD000007FC0
5FD000005FD0
5FD000005FD0
5FD000007FC0
4FE00000BF90
2FF20003FF40
0CFA002DFC00
04FFECFFD200
003BEFD81000
ENDCHAR
STARTCHAR omegatonos
ENCODING 974
SWIDTH 823 0
DWIDTH 20 0
BBX 18 19 1 0
BITMAP
000000005F90000000
000000008F40000000
00000000BE00000000
000000009800000000
000000000000000000
000000000000000000
03FF2000000005FE10
0AFA0000000000EF60
1FF400000000009FB0
4FF000015400004FF0
7FC00004FE00001FF3
8FA00004FE00000EF4
8F900004FE00000DF4
7FA00004FF00000EF3
5FC00005FF10001FF1
2FF20009FF50006FD0
0BFA003EBED102DF70
02EFECFE36FFCEFC00
002AEEB3005CEE9100
ENDCHAR
STARTCHAR theta1
ENCODING 977
SWIDTH 578 0
DWIDTH 14 0
BBX 13 17 1 0
BITMAP
00005CFEA20000
0006FFEFFE1000
000EF801DF7000
001FF2007FB000
001FF2006FB000
000DF6006FB000
0008FE206FB000
0001CFE78FB210
8F901AFFFFFF60
9F900038CFEB30
9F9000006FB000
9F9000006FB000
8FA000008FA000
5FE10000CF8000
0DFA1007FF2000
04EFFDFFF70000
0029DFEB400000
ENDCHAR
STARTCHAR Upsilon1
ENCODING 978
SWIDTH 532 0
DWIDTH 13 0
BBX 15 17 -1 0
BITMAP
4EE80000000AEE20
3FFF7000009FFF10
018FE10002FF6000
000DF60008FB0000
0007FD001EF40000
0001EF507FC00000
00008FB0DF500000
00001EF8FD000000
000009FFF6000000
000002FFE1000000
000000BF90000000
000000BF80000000
000000BF80000000
000000BF80000000
000000BF80000000
000000BF80000000
000000BF80000000
ENDCHAR
STARTCHAR omega1
ENCODING 982
SWIDTH 785 0
DWIDTH 19 0
BBX 19 13 0 0
BITMAP
2FFFFFFFFFFFFFFFFF50
1CEFECCCCCCCCCEFEC40
00EF50000000006FE000
03FF10000000002FF300
06FD00007B70000EF500
07FB00009F90000CF600
07FA00009F90000BF700
07FB0000AF90000BF600
05FC0000BFA0000DF400
02FF1001EFE0002FF100
00BF9009FAF8009FA000
003FFDEFB0CFEDFE2000
0004CFD91019EEB30000
ENDCHAR
STARTCHAR uni0400
ENCODING 1024
SWIDTH 568 0
DWIDTH 14 0
BBX 11 21 2 0
BITMAP
01CFA0000000
001CF9000000
0001CC300000
000000000000
FFFFFFFFFFB0
FFDDDDDDDD90
FF4000000000
FF4000000000
FF4000000000
FF4000000000
FF4000000000
FFFFFFFFF900
FFDDDDDDD800
FF4000000000
FF4000000000
FF4000000000
FF4000000000
FF4000000000
FF4000000000
FFDDDDDDDDA0
FFFFFFFFFFC0
ENDCHAR
STARTCHAR uni0401
ENCODING 1025
SWIDTH 568 0
DWIDTH 14 0
BBX 11 21 2 0
BITMAP
016300064000
07FE006FF100
04EB003EC000
000000000000
FFFFFFFFFFB0
FFDDDDDDDD90
FF4000000000
FF4000000000
FF4000000000
FF4000000000
FF4000000000
FFFFFFFFF900
FFDDDDDDD800
FF4000000000
FF4000000000
FF4000000000
FF4000000000
FF4000000000
FF4000000000
FFDDDDDDDDA0
FFFFFFFFFFC0
ENDCHAR
STARTCHAR uni0402
ENCODING 1026
SWIDTH 749 0
DWIDTH 18 0
BBX 18 18 0 -1
BITMAP
8FFFFFFFFFFFFB0000
6DDDDEFEDDDDD90000
00000AF90000000000
00000AF90000000000
00000AF90000000000
00000AF90000000000
00000AF90000000000
00000AFCADEFDA4000
00000AFFFFFFFFF900
00000AFC410029FF60
00000AF9000000AFD0
00000AF90000004FF0
00000AF90000004FF1
00000AF90000007FD0
00000AF9000005EF80
00000AF90009EFFB00
00000AF9000BEB6000
000004740000000000
ENDCHAR
STARTCHAR uni0403
ENCODING 1027
SWIDTH 556 0
DWIDTH 13 0
BBX 11 21 2 0
BITMAP
000002EF7000
00001DF70000
00007D600000
000000000000
EFFFFFFFFF80
EFEDDDDDDD70
EF5000000000
EF5000000000
EF5000000000
EF5000000000
EF5000000000
EF5000000000
EF5000000000
EF5000000000
EF5000000000
EF5000000000
EF5000000000
EF5000000000
EF5000000000
EF5000000000
EF5000000000
ENDCHAR
STARTCHAR uni0404
ENCODING 1028
SWIDTH 673 0
DWIDTH 16 0
BBX 14 17 1 0
BITMAP
00016BEFDA4000
002DFFEEFFF900
01DFB30017FF70
09FB0000006FE1
1EF30000000EF5
5FD000000008B6
7FB00000000000
8FFFFFFFF60000
8FEDDDDDD50000
8FB00000000000
7FC00000000000
5FF100000007A5
1FF50000000EF5
0AFD1000006FE1
01EFC30017EF70
003EFFEDFFF800
00017CEFDA4000
ENDCHAR
STARTCHAR uni0405
ENCODING 1029
SWIDTH 593 0
DWIDTH 14 0
BBX 13 17 1 0
BITMAP
0017CEFD930000
03EFFEEFFF8000
1EFB30017EF700
6FE1000006FE10
7FC0000001FF30
6FF20000002310
1DFD5000000000
03DFFE95100000
0017DFFFE81000
0000048DFFD200
000000005DFC00
3310000003FF30
EF40000000FF50
BFA0000003FF30
3FFA30004DFC00
04EFFEDEFFD200
0017BEFEB71000
ENDCHAR
STARTCHAR uni0406
ENCODING 1030
SWIDTH 271 0
DWIDTH 7 0
BBX 3 17 2 0
BITMAP
DF60
DF60
DF60
DF60
DF60
DF60
DF60
DF60
DF60
DF60
DF60
DF60
DF60
DF60
DF60
DF60
DF60
ENDCHAR
STARTCHAR uni0407
ENCODING 1031
SWIDTH 271 0
DWIDTH 7 0
BBX 9 21 -1 0
BITMAP
1640006400
6FF006FF10
4EB003EC00
0000000000
000DF60000
000DF60000
000DF60000
000DF60000
000DF60000
000DF60000
000DF60000
000DF60000
000DF60000
000DF60000
000DF60000
000DF60000
000DF60000
000DF60000
000DF60000
000DF60000
000DF60000
ENDCHAR
STARTCHAR uni0408
ENCODING 1032
SWIDTH 551 0
DWIDTH 13 0
BBX 12 17 0 0
BITMAP
000000000DF6
000000000DF6
000000000DF6
000000000DF6
000000000DF6
000000000DF6
000000000DF6
000000000DF6
000000000DF6
000000000DF6
000000000DF6
000000000DF6
5EE000000FF5
3FF300004FF2
0CFC3003DFC0
03EFFEEFFD20
0029DFFD8100
ENDCHAR
STARTCHAR uni0409
ENCODING 1033
SWIDTH 1070 0
DWIDTH 26 0
BBX 25 17 0 0
BITMAP
00009FFFFFFFFFC00000000000
0000AFEDDDDDEFC00000000000
0000BF8000007FC00000000000
0000BF7000007FC00000000000
0000CF6000007FC00000000000
0000DF6000007FC00000000000
0000DF5000007FC00000000000
0000EF4000007FFFFFFED82000
0000FF4000007FFDDDDEFFE400
0000FF3000007FC000003BFE10
0002FF1000007FC0000001EF70
0003FF0000007FC0000000AFA0
0006FC0000007FC0000000AFA0
000BF80000007FC0000001EF70
007FF30000007FC000002BFE10
5EFF900000007FFDDDDEFFE400
6FC7000000007FFFFFFED82000
ENDCHAR
STARTCHAR uni040A
ENCODING 1034
SWIDTH 1080 0
DWIDTH 26 0
BBX 23 17 2 0
BITMAP
EF500000004FF00000000000
EF500000004FF00000000000
EF500000004FF00000000000
EF500000004FF00000000000
EF500000004FF00000000000
EF500000004FF00000000000
EF500000004FF00000000000
EFFFFFFFFFFFFFFFFFDA3000
EFDDDDDDDDDFFDDDDDFFF700
EF500000004FF0000019FF40
EF500000004FF0000000BFA0
EF500000004FF00000006FD0
EF500000004FF00000007FD0
EF500000004FF0000000CFA0
EF500000004FF000003AFF40
EF500000004FFEEEEFFFF600
EF500000004FFFFFFFDA3000
ENDCHAR
STARTCHAR uni040B
ENCODING 1035
SWIDTH 813 0
DWIDTH 20 0
BBX 18 17 0 0
BITMAP
4FFFFFFFFFFFFE0000
3DDDDEFFDDDDDC0000
000007FC0000000000
000007FC0000000000
000007FC0000000000
000007FC0000000000
000007FDADEFEC8200
000007FFFFEDEFFE30
000007FD310002CFD0
000007FC0000002FF4
000007FC0000000DF6
000007FC0000000CF7
000007FC0000000CF7
000007FC0000000CF7
000007FC0000000CF7
000007FC0000000CF7
000007FC0000000CF7
ENDCHAR
STARTCHAR uni040C
ENCODING 1036
SWIDTH 626 0
DWIDTH 15 0
BBX 13 21 2 0
BITMAP
000005FE400000
00004FE4000000
00009D30000000
00000000000000
FF4000000AFE20
FF4000008FE300
FF400007FF5000
FF40005FF60000
FF4004FF700000
FF403EF9000000
FF42EFA0000000
FF5DFE10000000
FFEFFF90000000
FFFD7FF5000000
FFD109FE200000
FF4000CFC10000
FF40002EF90000
FF400005FF6000
FF4000008FF300
FF4000000CFD10
FF40000002EFA0
ENDCHAR
STARTCHAR uni040D
ENCODING 1037
SWIDTH 712 0
DWIDTH 17 0
BBX 13 21 2 0
BITMAP
0008FD20000000
00008FD1000000
000008D6000000
00000000000000
EF500000009FF0
EF50000004FFF0
EF5000000DFFF0
EF5000008FFFF0
EF500003FF9FF0
EF50000CFB4FF0
EF50007FE24FF0
EF5002EF604FF0
EF500BFC004FF0
EF505FF3004FF0
EF51EF80004FF0
EF5AFD00004FF0
EF9FF300004FF0
EFFF9000004FF0
EFFD1000004FF0
EFF50000004FF0
EFA00000004FF0
ENDCHAR
STARTCHAR uni040E
ENCODING 1038
SWIDTH 628 0
DWIDTH 15 0
BBX 14 21 1 0
BITMAP
000CE000CF0000
0007FB69F90000
00006DED810000
00000000000000
DFA00000007FF2
6FF2000000DFB0
0EF8000004FF40
07FE10000AFD00
01EF70001FF600
008FD0007FE100
001EF600DF9000
0009FC04FF2000
0002FF4AFB0000
0000AFCFF40000
00003FFFD00000
00000BFF600000
000006FE100000
00000CF8000000
00006FE2000000
00CEFF70000000
00EFC500000000
ENDCHAR
STARTCHAR uni040F
ENCODING 1039
SWIDTH 712 0
DWIDTH 17 0
BBX 13 21 2 -4
BITMAP
EF500000004FF0
EF500000004FF0
EF500000004FF0
EF500000004FF0
EF500000004FF0
EF500000004FF0
EF500000004FF0
EF500000004FF0
EF500000004FF0
EF500000004FF0
EF500000004FF0
EF500000004FF0
EF500000004FF0
EF500000004FF0
EF500000004FF0
EFDDDDDDDDDFF0
EFFFFFFFFFFFF0
000008FB000000
000008FB000000
000008FB000000
000008FB000000
ENDCHAR
STARTCHAR uni0410
ENCODING 1040
SWIDTH 652 0
DWIDTH 16 0
BBX 16 17 0 0
BITMAP
0000005FE1000000
000000BFF6000000
000002FFFC000000
000008F9EF200000
00000DF38F800000
00004FD03FE00000
0000AF800DF50000
0001FF2008FA0000
0006FC0002FF1000
000CF70000CF7000
003FF200007FD000
009FFFFFFFFFF300
00EFDDDDDDDEF900
05FE10000005FE10
0BF900000000EF60
2FF3000000008FC0
7FD0000000002FF2
ENDCHAR
STARTCHAR uni0411
ENCODING 1041
SWIDTH 630 0
DWIDTH 15 0
BBX 14 17 1 0
BITMAP
1FFFFFFFFFF600
1FFDDDDDDDD500
1FF20000000000
1FF20000000000
1FF20000000000
1FF20000000000
1FF20000000000
1FFFFFFFEB5000
1FFDDDDDFFFA00
1FF2000017FF70
1FF20000008FD0
1FF20000004FF1
1FF20000004FF0
1FF20000009FD0
1FF2000018FF60
1FFDDDDDFFF900
1FFFFFFFEA4000
ENDCHAR
STARTCHAR uni0412
ENCODING 1042
SWIDTH 622 0
DWIDTH 15 0
BBX 12 17 2 0
BITMAP
FFFFFFEC8100
FFDDDDEFFE30
FF400003DFB0
FF4000005FF1
FF4000003FF2
FF4000007FE0
FF400027FF50
FFFFFFFFE400
FFDCCCDFFC20
FF400001AFD0
FF4000001EF5
FF4000000BF8
FF4000000BF8
FF4000001EF6
FF400003CFE1
FFDDDDEFFE40
FFFFFFFD9200
ENDCHAR
STARTCHAR uni0413
ENCODING 1043
SWIDTH 556 0
DWIDTH 13 0
BBX 11 17 2 0
BITMAP
EFFFFFFFFF80
EFEDDDDDDD70
EF5000000000
EF5000000000
EF5000000000
EF5000000000
EF5000000000
EF5000000000
EF5000000000
EF5000000000
EF5000000000
EF5000000000
EF5000000000
EF5000000000
EF5000000000
EF5000000000
EF5000000000
ENDCHAR
STARTCHAR uni0414
ENCODING 1044
SWIDTH 751 0
DWIDTH 18 0
BBX 18 21 0 -4
BITMAP
00002FFFFFFFFFF200
00002FFDDDDDDFF200
00003FF100002FF200
00004FF000002FF200
00005FE000002FF200
00005FE000002FF200
00006FD000002FF200
00007FC000002FF200
00009FA000002FF200
0000BF8000002FF200
0000EF5000002FF200
0003FF2000002FF200
0008FC0000002FF200
001EF60000002FF200
009FD00000002FF200
5DFFEDDDDDDDDFFDD4
6FFFFFFFFFFFFFFFF5
6FD000000000000EF5
6FD000000000000EF5
6FD000000000000EF5
6FD000000000000DF5
ENDCHAR
STARTCHAR uni0415
ENCODING 1045
SWIDTH 568 0
DWIDTH 14 0
BBX 11 17 2 0
BITMAP
FFFFFFFFFFB0
FFDDDDDDDD90
FF4000000000
FF4000000000
FF4000000000
FF4000000000
FF4000000000
FFFFFFFFF900
FFDDDDDDD800
FF4000000000
FF4000000000
FF4000000000
FF4000000000
FF4000000000
FF4000000000
FFDDDDDDDDA0
FFFFFFFFFFC0
ENDCHAR
STARTCHAR uni0416
ENCODING 1046
SWIDTH 907 0
DWIDTH 22 0
BBX 22 17 0 0
BITMAP
1DFB000002FF200000CFC0
03FF600002FF200007FF20
008FE10002FF20002EF700
000CFA0002FF2000BFB000
0002EF5002FF2006FE2000
00006FE102FF201EF50000
00000BF902FF20AFA00000
000002FFFFFFFFFF100000
000007FFDDFFDDFF600000
00002EF902FF20AFE10000
0000AFE102FF202EF90000
0005FF6002FF2007FF4000
001DFC0002FF2000DFD000
008FF30002FF20004FF700
03FF900002FF20000AFE20
0BFE100002FF200002EFB0
6FF6000002FF2000007FF5
ENDCHAR
STARTCHAR uni0417
ENCODING 1047
SWIDTH 593 0
DWIDTH 14 0
BBX 13 17 1 0
BITMAP
0028DEFDA50000
05EFFEEFFFA000
3FFA20017FF800
9FC0000008FD00
8B50000005FE00
0000000008FB00
000000028FE300
0000CFFFFC3000
0000BDDFFE7000
000000006EF700
0000000006FE10
0000000001FF30
EF40000001FF30
CF90000007FE10
5FF910018FF800
08FFFDEFFF9000
0039DEFDA40000
ENDCHAR
STARTCHAR uni0418
ENCODING 1048
SWIDTH 712 0
DWIDTH 17 0
BBX 13 17 2 0
BITMAP
EF500000009FF0
EF50000004FFF0
EF5000000DFFF0
EF5000008FFFF0
EF500003FF9FF0
EF50000CFB4FF0
EF50007FE24FF0
EF5002EF604FF0
EF500BFC004FF0
EF505FF3004FF0
EF51EF80004FF0
EF5AFD00004FF0
EF9FF300004FF0
EFFF9000004FF0
EFFD1000004FF0
EFF50000004FF0
EFA00000004FF0
ENDCHAR
STARTCHAR uni0419
ENCODING 1049
SWIDTH 712 0
DWIDTH 17 0
BBX 13 21 2 0
BITMAP
000CE000BF0000
0007FB69FA0000
00006DED810000
00000000000000
EF500000009FF0
EF50000004FFF0
EF5000000DFFF0
EF5000008FFFF0
EF500003FF9FF0
EF50000CFB4FF0
EF50007FE24FF0
EF5002EF604FF0
EF500BFC004FF0
EF505FF3004FF0
EF51EF80004FF0
EF5AFD00004FF0
EF9FF300004FF0
EFFF9000004FF0
EFFD1000004FF0
EFF50000004FF0
EFA00000004FF0
ENDCHAR
STARTCHAR uni041A
ENCODING 1050
SWIDTH 642 0
DWIDTH 15 0
BBX 14 17 2 0
BITMAP
EF50000005FF70
EF5000004FF900
EF500002EFB000
EF50001DFD1000
EF5000BFE20000
EF5009FF400000
EF507FF6000000
EFFFFF90000000
EFEDEFD1000000
EF502EFA000000
EF5005FF600000
EF50009FF30000
EF50000CFD1000
EF500002EFA000
EF5000005FF700
EF50000008FF30
EF50000000CFD1
ENDCHAR
STARTCHAR uni041B
ENCODING 1051
SWIDTH 707 0
DWIDTH 17 0
BBX 15 17 0 0
BITMAP
0000AFFFFFFFFFD0
0000AFEDDDDDEFD0
0000BF7000005FD0
0000CF7000005FD0
0000CF6000005FD0
0000DF5000005FD0
0000EF5000005FD0
0000EF4000005FD0
0000FF3000005FD0
0001FF2000005FD0
0002FF1000005FD0
0004FE0000005FD0
0007FC0000005FD0
000CF80000005FD0
007FF20000005FD0
6EFF900000005FD0
7FC7000000005FD0
ENDCHAR
STARTCHAR uni041C
ENCODING 1052
SWIDTH 873 0
DWIDTH 21 0
BBX 17 17 2 0
BITMAP
FFF20000000002FFF0
FFF70000000008FFF0
FFFD000000000EFFF0
FFDF400000005FDFF0
FF8FA0000000BF8FF0
FF3FF2000002FE3FF0
FF2AF8000009F93FF0
FF24FD00001EF33FF0
FF30DF50006FC03FF0
FF307FB000CF604FF0
FF301FF203FE104FF0
FF400AF809F8004FF0
FF4004FD1EF2004FF0
FF4000CFAFB0004FF0
FF40006FFF50004FF0
FF40001EFE00004FF0
FF400009F800004FF0
ENDCHAR
STARTCHAR uni041D
ENCODING 1053
SWIDTH 712 0
DWIDTH 17 0
BBX 14 17 2 0
BITMAP
FF400000003FF1
FF400000003FF1
FF400000003FF1
FF400000003FF1
FF400000003FF1
FF400000003FF1
FF400000003FF1
FFFFFFFFFFFFF1
FFDDDDDDDDDFF1
FF400000003FF1
FF400000003FF1
FF400000003FF1
FF400000003FF1
FF400000003FF1
FF400000003FF1
FF400000003FF1
FF400000003FF1
ENDCHAR
STARTCHAR uni041E
ENCODING 1054
SWIDTH 687 0
DWIDTH 17 0
BBX 15 17 1 0
BITMAP
00016BEED9300000
002DFFFFFFF70000
01DFD40028FF7000
09FD1000006FE200
1EF40000000CF800
5FE000000006FC00
7FB000000003FF00
8FA000000002FF10
9F9000000002FF20
9FA000000002FF10
7FB000000004FF00
5FE000000006FC00
1EF40000000CF800
09FD1000005FF200
01DFC40017FF7000
002DFFFEFFF80000
00016BEED9300000
ENDCHAR
STARTCHAR uni041F
ENCODING 1055
SWIDTH 713 0
DWIDTH 17 0
BBX 13 17 2 0
BITMAP
EFFFFFFFFFFFF0
EFEDDDDDDDDFF0
EF500000004FF0
EF500000004FF0
EF500000004FF0
EF500000004FF0
EF500000004FF0
EF500000004FF0
EF500000004FF0
EF500000004FF0
EF500000004FF0
EF500000004FF0
EF500000004FF0
EF500000004FF0
EF500000004FF0
EF500000004FF0
EF500000004FF0
ENDCHAR
STARTCHAR uni0420
ENCODING 1056
SWIDTH 630 0
DWIDTH 15 0
BBX 13 17 2 0
BITMAP
FFFFFFFEA40000
FFDDDDDFFF9000
FF4000018FF700
FF40000009FE00
FF40000002FF20
FF40000001FF30
FF40000002FF20
FF40000009FE00
FF4000139FF700
FFFFFFFFFF8000
FFDDDDCB830000
FF400000000000
FF400000000000
FF400000000000
FF400000000000
FF400000000000
FF400000000000
ENDCHAR
STARTCHAR uni0421
ENCODING 1057
SWIDTH 650 0
DWIDTH 16 0
BBX 14 17 1 0
BITMAP
00016CEFDA4000
002DFFEEFFF800
01EFC30017FF60
0AFC1000007FE0
1FF40000001FF5
5FE000000009B5
7FB00000000000
9FA00000000000
9FA00000000000
9FA00000000000
8FB00000000000
6FE000000008A5
2FF30000001FF4
0AFC0000007FE0
02EFB20017FF60
003EFFEEFFF800
00018CEFDA3000
ENDCHAR
STARTCHAR uni0422
ENCODING 1058
SWIDTH 596 0
DWIDTH 14 0
BBX 14 17 0 0
BITMAP
6FFFFFFFFFFFFC
5DDDDDFFEDDDDA
000000EF400000
000000EF400000
000000EF400000
000000EF400000
000000EF400000
000000EF400000
000000EF400000
000000EF400000
000000EF400000
000000EF400000
000000EF400000
000000EF400000
000000EF400000
000000EF400000
000000EF400000
ENDCHAR
STARTCHAR uni0423
ENCODING 1059
SWIDTH 628 0
DWIDTH 15 0
BBX 14 17 1 0
BITMAP
DFA00000007FF2
6FF2000000DFB0
0EF8000004FF40
07FE10000AFD00
01EF70001FF600
008FD0007FE100
001EF600DF9000
0009FC04FF2000
0002FF4AFB0000
0000AFCFF40000
00003FFFD00000
00000BFF600000
000006FE100000
00000CF8000000
00006FE2000000
00CEFF70000000
00EFC500000000
ENDCHAR
STARTCHAR uni0424
ENCODING 1060
SWIDTH 771 0
DWIDTH 19 0
BBX 17 19 1 -1
BITMAP
0000000CF600000000
0000000CF600000000
00028CEFFFDB500000
005EFECEFDDFFC2000
05FE600CF602AFD100
1EF4000CF6000AFA00
7FA0000CF60001FF10
CF50000CF60000BF60
EF30000CF600009F80
FF20000CF600008F90
EF30000CF600009F80
CF50000CF60000BF60
7FA0000CF60002FF10
1EF4000CF6000AF900
05FE600CF602AFD100
005EFECEFDDFFC2000
00028CEFFFEB600000
0000000CF600000000
0000000CF600000000
ENDCHAR
STARTCHAR uni0425
ENCODING 1061
SWIDTH 626 0
DWIDTH 15 0
BBX 15 17 0 0
BITMAP
0DFB0000000AFE10
04FF6000005FF500
009FE10001DFA000
001EFA0008FE2000
0005FF403FF60000
0000AFD1CFB00000
00001EFDFF200000
000006FFF7000000
000000EFF1000000
000007FFF9000000
00002FFBFF300000
0000CFC0BFD00000
0006FF302FF80000
002EF80007FF3000
00BFD10000CFC000
05FF4000003FF700
1EFA00000009FE20
ENDCHAR
STARTCHAR uni0426
ENCODING 1062
SWIDTH 730 0
DWIDTH 18 0
BBX 15 21 2 -4
BITMAP
EF500000004FF000
EF500000004FF000
EF500000004FF000
EF500000004FF000
EF500000004FF000
EF500000004FF000
EF500000004FF000
EF500000004FF000
EF500000004FF000
EF500000004FF000
EF500000004FF000
EF500000004FF000
EF500000004FF000
EF500000004FF000
EF500000004FF000
EFDDDDDDDDDFFDA0
EFFFFFFFFFFFFFB0
0000000000007FA0
0000000000007FA0
0000000000007F90
0000000000007F90
ENDCHAR
STARTCHAR uni0427
ENCODING 1063
SWIDTH 684 0
DWIDTH 16 0
BBX 14 17 1 0
BITMAP
4FF00000000EF5
4FF00000000EF5
4FF00000000EF5
4FF00000000EF5
4FF00000000EF5
3FF00000000EF5
2FF10000000EF5
0EF60000000EF5
09FE6101258FF5
01BFFFFFFFFFF5
0005ACDDB96EF5
00000000000EF5
00000000000EF5
00000000000EF5
00000000000EF5
00000000000EF5
00000000000EF5
ENDCHAR
STARTCHAR uni0428
ENCODING 1064
SWIDTH 940 0
DWIDTH 23 0
BBX 19 17 2 0
BITMAP
EF500000CF700000BF80
EF500000CF700000BF80
EF500000CF700000BF80
EF500000CF700000BF80
EF500000CF700000BF80
EF500000CF700000BF80
EF500000CF700000BF80
EF500000CF700000BF80
EF500000CF700000BF80
EF500000CF700000BF80
EF500000CF700000BF80
EF500000CF700000BF80
EF500000CF700000BF80
EF500000CF700000BF80
EF500000CF700000BF80
EFDDDDDDFFEDDDDDEF80
EFFFFFFFFFFFFFFFFF80
ENDCHAR
STARTCHAR uni0429
ENCODING 1065
SWIDTH 968 0
DWIDTH 23 0
BBX 21 21 2 -4
BITMAP
EF500000CF700000BF8000
EF500000CF700000BF8000
EF500000CF700000BF8000
EF500000CF700000BF8000
EF500000CF700000BF8000
EF500000CF700000BF8000
EF500000CF700000BF8000
EF500000CF700000BF8000
EF500000CF700000BF8000
EF500000CF700000BF8000
EF500000CF700000BF8000
EF500000CF700000BF8000
EF500000CF700000BF8000
EF500000CF700000BF8000
EF500000CF700000BF8000
EFDDDDDDFFEDDDDDEFDC30
EFFFFFFFFFFFFFFFFFFF30
000000000000000000EF20
000000000000000000EF20
000000000000000000EF10
000000000000000000EF10
ENDCHAR
STARTCHAR uni042A
ENCODING 1066
SWIDTH 758 0
DWIDTH 18 0
BBX 18 17 0 0
BITMAP
CFFFFFF40000000000
ACCCCFF40000000000
00000FF40000000000
00000FF40000000000
00000FF40000000000
00000FF40000000000
00000FF40000000000
00000FFFFFFFEB5000
00000FFDDDDDFFFB00
00000FF4000006FF80
00000FF40000007FE0
00000FF40000003FF2
00000FF40000003FF2
00000FF40000008FE0
00000FF4000007FF80
00000FFDDDDDFFFA00
00000FFFFFFFEB5000
ENDCHAR
STARTCHAR uni042B
ENCODING 1067
SWIDTH 864 0
DWIDTH 21 0
BBX 17 17 2 0
BITMAP
EF500000000000AF80
EF500000000000AF80
EF500000000000AF80
EF500000000000AF80
EF500000000000AF80
EF500000000000AF80
EF500000000000AF80
EFFFFFFEB60000AF80
EFEDDDDFFFC100AF80
EF5000005EFA00AF80
EF50000006FF10AF80
EF50000001FF30AF80
EF50000002FF30AF80
EF50000007FF10AF80
EF5000006EF900AF80
EFDDDDDFFFB100AF80
EFFFFFFEB60000AF80
ENDCHAR
STARTCHAR uni042C
ENCODING 1068
SWIDTH 627 0
DWIDTH 15 0
BBX 14 17 1 0
BITMAP
1FF20000000000
1FF20000000000
1FF20000000000
1FF20000000000
1FF20000000000
1FF20000000000
1FF20000000000
1FFFFFFFEB5000
1FFDDDDDFFFA00
1FF2000017FF70
1FF20000008FD0
1FF20000004FF1
1FF20000004FF0
1FF20000009FD0
1FF2000018FF60
1FFDDDDDFFF900
1FFFFFFFEA4000
ENDCHAR
STARTCHAR uni042D
ENCODING 1069
SWIDTH 673 0
DWIDTH 16 0
BBX 14 17 1 0
BITMAP
00029DEEC82000
005EFFEEFFE500
03FFA20018FF40
0BFB0000007FD0
1FF40000000DF4
2BB100000009F9
000000000007FB
00002FFFFFFFFD
00001DDDDDDEFD
000000000007FD
000000000008FB
2AA00000000BF9
1FF40000001FF5
0BFA000000AFD1
03FF920019FF50
005EFFEDFFF600
00028CEED92000
ENDCHAR
STARTCHAR uni042E
ENCODING 1070
SWIDTH 894 0
DWIDTH 21 0
BBX 19 17 2 0
BITMAP
DF6000004ADFDB600000
DF60001AFFFFFFFC2000
DF6000AFF82005DFD100
DF6005FF6000001DF800
DF600BFB00000005FE00
DF600FF600000000EF40
DF602FF300000000CF60
DFFFFFF100000000BF80
DFDCCFF100000000AF80
DF601FF200000000BF80
DF600EF300000000CF60
DF600BF600000000EF40
DF6006FB00000005FE00
DF6001EF6000001DF800
DF60005FF71004CFD100
DF600006FFFEFFFD2000
DF60000029DEEB610000
ENDCHAR
STARTCHAR uni042F
ENCODING 1071
SWIDTH 636 0
DWIDTH 15 0
BBX 13 17 1 0
BITMAP
0005BEFFFFFF30
00BFFFDDDDFF30
09FF710001FF30
1FF7000001FF30
3FF1000001FF30
4FF0000001FF30
2FF2000001FF30
0DF9000001FF30
04FF930001FF30
005DFFFFFFFF30
0003FFDDDDFF30
000BF90001FF30
005FE10001FF30
01DF700001FF30
08FD000001FF30
2EF5000001FF30
AFB0000001FF30
ENDCHAR
STARTCHAR uni0430
ENCODING 1072
SWIDTH 543 0
DWIDTH 13 0
BBX 11 13 1 0
BITMAP
003ADFEB4000
07FFDCEFF500
3FF50008FE00
49700000EF30
00000000DF40
004ADFFFFF40
09FFB988EF40
5FE30000DF40
AF800000DF40
AF900002FF40
7FE4005DFF50
1DFFEFFEEF60
019DFD91AFA0
ENDCHAR
STARTCHAR uni0431
ENCODING 1073
SWIDTH 552 0
DWIDTH 13 0
BBX 12 18 1 0
BITMAP
000000006F70
00000159EF40
0004BFFFF800
007FFD961000
04FD40000000
0CE200000000
3F74BEFD8100
8FAFECDFFC10
AFF91003DFA0
CFD000004FF2
DF7000000DF5
DF5000000BF7
CF6000000BF6
AF8000000EF4
6FE100005FE0
1DFA1003EF70
03EFECDFFA00
0018DFEB5000
ENDCHAR
STARTCHAR uni0432
ENCODING 1074
SWIDTH 571 0
DWIDTH 14 0
BBX 12 13 1 0
BITMAP
2FFFFFFDA400
2FFCCCCEFF60
2FF000009FE0
2FF000003FF0
2FF00013BF90
2FFFFFFFF800
2FFBBBBDFE50
2FF000005FF2
2FF000000CF6
2FF000000CF7
2FF000005FF3
2FFBBBBDFFA0
2FFFFFFEC600
ENDCHAR
STARTCHAR uni0433
ENCODING 1075
SWIDTH 419 0
DWIDTH 10 0
BBX 9 13 1 0
BITMAP
3FFFFFFFC0
3FFCCCCCA0
3FF0000000
3FF0000000
3FF0000000
3FF0000000
3FF0000000
3FF0000000
3FF0000000
3FF0000000
3FF0000000
3FF0000000
3FF0000000
ENDCHAR
STARTCHAR uni0434
ENCODING 1076
SWIDTH 603 0
DWIDTH 14 0
BBX 14 17 0 -4
BITMAP
0001FFFFFFFF10
0002FFFFFFFF10
0003FF0001FF10
0003FE0001FF10
0004FE0001FF10
0004FD0001FF10
0006FB0001FF10
0009F90001FF10
000DF50001FF10
004FE10001FF10
01DF800001FF10
5DFFCCCCCCFFC8
7FFFFFFFFFFFFB
7FB000000007FB
7FB000000007FB
7FB000000007FB
7FB000000007FB
ENDCHAR
STARTCHAR uni0435
ENCODING 1077
SWIDTH 529 0
DWIDTH 13 0
BBX 11 13 1 0
BITMAP
0017CEEB4000
02CFFCEFF600
0CFA1006FF20
5FC00000AF80
AF7000006FB0
CFFFFFFFFFC0
DFDCCCCCCCA0
DF6000000000
BF9000000000
6FE200000300
1DFC20019F60
03DFFCCFFC10
0018DFEC7000
ENDCHAR
STARTCHAR uni0436
ENCODING 1078
SWIDTH 765 0
DWIDTH 18 0
BBX 18 13 0 0
BITMAP
1DFA0000EF40005FF4
04FF4000EF4001EF90
009FD100EF400AFD10
000DF900EF405FF300
0003FF40EF41EF7000
00007FFFFFFFFC0000
00009FEEFFEEFD1000
0004FF30EF41DF8000
001DF900EF405FF300
008FE100EF400BFC00
03FF7000EF4003FF70
0CFD0000EF40009FE2
7FF40000EF40001EFB
ENDCHAR
STARTCHAR uni0437
ENCODING 1079
SWIDTH 507 0
DWIDTH 12 0
BBX 10 13 1 0
BITMAP
017CEED920
2DFFDCFFE3
9FC2001CFA
56300007FB
0000003CF7
000EFFFF70
000CCDFFB1
0000001BFA
00000004FE
DE400004FE
AFD2001CFB
2DFFCCEFE2
018CEFD910
ENDCHAR
STARTCHAR uni0438
ENCODING 1080
SWIDTH 577 0
DWIDTH 14 0
BBX 11 13 1 0
BITMAP
3FF000007FF0
3FF00002EFF0
3FF0000AFFF0
3FF0005FEFF0
3FF001DF6FF0
3FF008F92FF0
3FF03FE12FF0
3FF0CF602FF0
3FF6FB002FF0
3FFEF3002FF0
3FFF80002FF0
3FFD10002FF0
3FF500002FF0
ENDCHAR
STARTCHAR uni0439
ENCODING 1081
SWIDTH 577 0
DWIDTH 14 0
BBX 11 17 1 0
BITMAP
007F4006F500
002ED77EE100
0003BEEA2000
000000000000
3FF000007FF0
3FF00002EFF0
3FF0000AFFF0
3FF0005FEFF0
3FF001DF6FF0
3FF008F92FF0
3FF03FE12FF0
3FF0CF602FF0
3FF6FB002FF0
3FFEF3002FF0
3FFF80002FF0
3FFD10002FF0
3FF500002FF0
ENDCHAR
STARTCHAR uni043A
ENCODING 1082
SWIDTH 540 0
DWIDTH 13 0
BBX 12 13 1 0
BITMAP
3FF00000BFC1
3FF00009FD20
3FF0007FE300
3FF005FF4000
3FF03EF60000
3FFFFF800000
3FFEEFD10000
3FF01EF90000
3FF004FF6000
3FF0008FE200
3FF0000CFC10
3FF00002EF90
3FF000006FF5
ENDCHAR
STARTCHAR uni043B
ENCODING 1083
SWIDTH 578 0
DWIDTH 14 0
BBX 12 13 0 0
BITMAP
0008FFFFFFFF
0009FECCCCFF
000AF80002FF
000AF70002FF
000BF60002FF
000BF50002FF
000CF40002FF
000EF30002FF
001FF10002FF
004FE00002FF
02CF900002FF
7FFF300002FF
7FC4000002FF
ENDCHAR
STARTCHAR uni043C
ENCODING 1084
SWIDTH 741 0
DWIDTH 18 0
BBX 15 13 1 0
BITMAP
2FFD00000001EFF0
2FFF40000006FFF0
2FFFB000000CFFF0
2FFEF200004FEFF0
2FF8F90000AF9FF0
2FF1FE1002FE3FF0
2FF09F6008F83FF0
2FF03FD01EF13FF0
2FF00BF46FA03FF0
2FF005FACF303FF0
2FF000DFFC003FF0
2FF0007FF5003FF0
2FF0001ED0003FF0
ENDCHAR
STARTCHAR uni043D
ENCODING 1085
SWIDTH 576 0
DWIDTH 14 0
BBX 11 13 1 0
BITMAP
3FF000003FF0
3FF000003FF0
3FF000003FF0
3FF000003FF0
3FF000003FF0
3FFFFFFFFFF0
3FFCCCCCCFF0
3FF000003FF0
3FF000003FF0
3FF000003FF0
3FF000003FF0
3FF000003FF0
3FF000003FF0
ENDCHAR
STARTCHAR uni043E
ENCODING 1086
SWIDTH 570 0
DWIDTH 14 0
BBX 12 13 1 0
BITMAP
0017CEEB5000
02DFFCDFFA00
0CFB1004EF80
5FE100005FF1
AF8000000DF5
DF5000000AF8
EF40000009F9
DF5000000AF8
BF8000000DF6
6FE100004FF1
0DFB1003DF80
02DFFCDFFA00
0018DFEB5000
ENDCHAR
STARTCHAR uni043F
ENCODING 1087
SWIDTH 577 0
DWIDTH 14 0
BBX 11 13 1 0
BITMAP
3FFFFFFFFFF0
3FFCCCCCCFF0
3FF000002FF0
3FF000002FF0
3FF000002FF0
3FF000002FF0
3FF000002FF0
3FF000002FF0
3FF000002FF0
3FF000002FF0
3FF000002FF0
3FF000002FF0
3FF000002FF0
ENDCHAR
STARTCHAR uni0440
ENCODING 1088
SWIDTH 561 0
DWIDTH 13 0
BBX 12 18 1 -5
BITMAP
5FA2AEFD8100
5FDEFDEFFC00
5FFB2006FF70
5FD000008FE0
5FC000001FF3
5FC000000EF5
5FC000000DF5
5FC000000DF5
5FC000001FF3
5FD000007FE0
5FF91004EF70
5FEEECDFFB00
5FC2AEFD8100
5FC000000000
5FC000000000
5FC000000000
5FC000000000
5FC000000000
ENDCHAR
STARTCHAR uni0441
ENCODING 1089
SWIDTH 523 0
DWIDTH 13 0
BBX 11 13 1 0
BITMAP
0028DEEB4000
03EFECEFF700
1DF91006FF30
6FC000009F90
BF7000003960
DF4000000000
EF4000000000
DF5000000000
BF7000001430
6FD000008F90
1DF91005FF30
03EFECDFF600
0029DFEA3000
ENDCHAR
STARTCHAR uni0442
ENCODING 1090
SWIDTH 480 0
DWIDTH 12 0
BBX 12 13 0 0
BITMAP
8FFFFFFFFFF1
6CCCDFECCCC1
00005FC00000
00005FC00000
00005FC00000
00005FC00000
00005FC00000
00005FC00000
00005FC00000
00005FC00000
00005FC00000
00005FC00000
00005FC00000
ENDCHAR
STARTCHAR uni0443
ENCODING 1091
SWIDTH 473 0
DWIDTH 11 0
BBX 11 18 0 -5
BITMAP
8FC000006FD0
3FF20000BF80
0DF70001FF30
07FC0005FD00
02FF200AF800
00CF700EF300
006FC04FC000
001FF28F7000
000BF6DF2000
0005FDFC0000
0001EFF70000
00009FF20000
00005FB00000
00008F600000
0000EF100000
0019F9000000
0EFFE2000000
0EEB20000000
ENDCHAR
STARTCHAR uni0444
ENCODING 1092
SWIDTH 725 0
DWIDTH 17 0
BBX 16 23 1 -5
BITMAP
0000007FA0000000
0000007FA0000000
0000007FA0000000
0000007FA0000000
0000007FA0000000
004CEEDFDDFD8000
05FFECFFFDDFFB00
1EF9007FA005FF60
6FD0007FA0008FB0
9F90007FA0003FF0
BF60007FA0000FF2
CF50007FA0000EF3
CF60007FA0000FF3
BF80007FA0002FF2
7FC0007FA0006FD0
2FF7007FA003EF80
07FFDCEFFDCFFC10
005CFEDFEDFE9100
0000007FA0000000
0000007FA0000000
0000007FA0000000
0000007FA0000000
0000007FA0000000
ENDCHAR
STARTCHAR uni0445
ENCODING 1093
SWIDTH 495 0
DWIDTH 12 0
BBX 12 13 0 0
BITMAP
2EF600009FD1
06FE1003FF40
00CF900CF900
002FF36FE100
0007FBEF5000
0000CFFA0000
00006FF40000
0001DFFC0000
0009FBCF7000
004FF24FE200
00DF800AFB00
08FD1001EF60
3FF500007FE2
ENDCHAR
STARTCHAR uni0446
ENCODING 1094
SWIDTH 592 0
DWIDTH 14 0
BBX 13 17 1 -4
BITMAP
3FF000002FF000
3FF000002FF000
3FF000002FF000
3FF000002FF000
3FF000002FF000
3FF000002FF000
3FF000002FF000
3FF000002FF000
3FF000002FF000
3FF000002FF000
3FF000002FF000
3FFCCCCCCFFC60
3FFFFFFFFFFF70
00000000009F70
00000000009F60
00000000009F60
00000000009F50
ENDCHAR
STARTCHAR uni0447
ENCODING 1095
SWIDTH 543 0
DWIDTH 13 0
BBX 11 13 1 0
BITMAP
CF600000FF30
CF600000FF30
CF600000FF30
CF600000FF30
BF700000FF30
9FA00000FF30
3FF71024FF30
07FFFFFFFF30
0039BBA8FF30
00000000FF30
00000000FF30
00000000FF30
00000000FF30
ENDCHAR
STARTCHAR uni0448
ENCODING 1096
SWIDTH 808 0
DWIDTH 19 0
BBX 17 13 1 0
BITMAP
3FF00005FC00008F90
3FF00005FC00008F90
3FF00005FC00008F90
3FF00005FC00008F90
3FF00005FC00008F90
3FF00005FC00008F90
3FF00005FC00008F90
3FF00005FC00008F90
3FF00005FC00008F90
3FF00005FC00008F90
3FF00005FC00008F90
3FFCCCCDFECCCCDF90
3FFFFFFFFFFFFFFF90
ENDCHAR
STARTCHAR uni0449
ENCODING 1097
SWIDTH 827 0
DWIDTH 20 0
BBX 19 17 1 -4
BITMAP
4FD00007FA0000AF8000
4FD00007FA0000AF8000
4FD00007FA0000AF8000
4FD00007FA0000AF8000
4FD00007FA0000AF8000
4FD00007FA0000AF8000
4FD00007FA0000AF8000
4FD00007FA0000AF8000
4FD00007FA0000AF8000
4FD00007FA0000AF8000
4FD00007FA0000AF8000
4FFCCCCDFECCCCEFDC30
4FFFFFFFFFFFFFFFFF30
0000000000000000DF30
0000000000000000DF20
0000000000000000DF20
0000000000000000DF10
ENDCHAR
STARTCHAR uni044A
ENCODING 1098
SWIDTH 620 0
DWIDTH 15 0
BBX 15 13 0 0
BITMAP
AFFFFF4000000000
8CCCFF4000000000
0000DF4000000000
0000DF4000000000
0000DFFFFFEA3000
0000DFCCCCEFE400
0000DF40001BFD00
0000DF400002FF20
0000DF400000FF30
0000DF400002FF20
0000DF40001AFC00
0000DFCCCCEFE300
0000DFFFFFEA2000
ENDCHAR
STARTCHAR uni044B
ENCODING 1099
SWIDTH 776 0
DWIDTH 19 0
BBX 16 13 1 0
BITMAP
2FF0000000000AF7
2FF0000000000AF7
2FF0000000000AF7
2FF0000000000AF7
2FFFFFFD81000AF7
2FFCCCCFFD100AF7
2FF00002DF900AF7
2FF000006FD00AF7
2FF000004FE00AF7
2FF000006FD00AF7
2FF00002DF800AF7
2FFCCCCFFC100AF7
2FFFFFFD81000AF7
ENDCHAR
STARTCHAR uni044C
ENCODING 1100
SWIDTH 542 0
DWIDTH 13 0
BBX 11 13 1 0
BITMAP
2FF000000000
2FF000000000
2FF000000000
2FF000000000
2FFFFFFD8100
2FFCCCCFFD10
2FF00002DF90
2FF000006FD0
2FF000004FE0
2FF000006FD0
2FF00002DF80
2FFCCCCFFC10
2FFFFFFD8100
ENDCHAR
STARTCHAR uni044D
ENCODING 1101
SWIDTH 537 0
DWIDTH 13 0
BBX 11 13 1 0
BITMAP
005BEEC70000
0AFFDDFFB100
7FD3002CF900
9C400002EF20
00000000BF60
0005FFFFFF80
0004CCCCEF90
00000000AF80
68200000DF60
AF700005FF10
5FE4003EF900
09FFDCFFB100
005BEEC60000
ENDCHAR
STARTCHAR uni044E
ENCODING 1102
SWIDTH 815 0
DWIDTH 20 0
BBX 18 13 1 0
BITMAP
2FF0000029DFEB5000
2FF00004EFFCDFF900
2FF0002EFA1004EF70
2FF0009FD000006FE1
2FF000DF7000000EF5
2FFFFFFF4000000BF7
2FFCCCFF3000000AF8
2FF000DF4000000BF7
2FF000AF7000000EF5
2FF0005FD000005FE0
2FF0000CFA1004EF70
2FF00002DFECDFF900
2FF0000018DFEB5000
ENDCHAR
STARTCHAR uni044F
ENCODING 1103
SWIDTH 548 0
DWIDTH 13 0
BBX 12 13 0 0
BITMAP
0017CEFFFFF5
01CFFDCCCEF5
08FE30000DF5
0BF700000DF5
0BF800000DF5
06FE51000DF5
00AFFFFFFFF5
0008FECCCFF5
000DF7000DF5
007FD0000DF5
01EF50000DF5
09FB00000DF5
3FF300000DF5
ENDCHAR
STARTCHAR uni0450
ENCODING 1104
SWIDTH 529 0
DWIDTH 13 0
BBX 11 18 1 0
BITMAP
008FE2000000
0008FD100000
00008D600000
000000000000
000000000000
0017CEEB4000
02CFFCEFF600
0CFA1006FF20
5FC00000AF80
AF7000006FB0
CFFFFFFFFFC0
DFDCCCCCCCA0
DF6000000000
BF9000000000
6FE200000300
1DFC20019F60
03DFFCCFFC10
0018DFEC7000
ENDCHAR
STARTCHAR uni0451
ENCODING 1105
SWIDTH 529 0
DWIDTH 13 0
BBX 11 18 1 0
BITMAP
004600046000
01FF501FF600
00CE300CE300
000000000000
000000000000
0017CEEB4000
02CFFCEFF600
0CFA1006FF20
5FC00000AF80
AF7000006FB0
CFFFFFFFFFC0
DFDCCCCCCCA0
DF6000000000
BF9000000000
6FE200000300
1DFC20019F60
03DFFCCFFC10
0018DFEC7000
ENDCHAR
STARTCHAR uni0452
ENCODING 1106
SWIDTH 550 0
DWIDTH 13 0
BBX 13 23 -1 -5
BITMAP
005FC000000000
005FC000000000
4FFFFFFF200000
3CDFECCC200000
005FC000000000
005FC18DFE9100
005FDCFEEFFC00
005FFD3005FF50
005FE20000BF80
005FC000009F90
005FC000008F90
005FC000008F90
005FC000008F90
005FC000008F90
005FC000008F90
005FC000008F90
005FC000008F90
005FC000008F90
00000000008F90
00000000009F80
0000000001EF50
00000005CEFD00
00000006EEA200
ENDCHAR
STARTCHAR uni0453
ENCODING 1107
SWIDTH 419 0
DWIDTH 10 0
BBX 9 18 1 0
BITMAP
00005FE400
0004FE3000
000AD30000
0000000000
0000000000
3FFFFFFFC0
3FFCCCCCA0
3FF0000000
3FF0000000
3FF0000000
3FF0000000
3FF0000000
3FF0000000
3FF0000000
3FF0000000
3FF0000000
3FF0000000
3FF0000000
ENDCHAR
STARTCHAR uni0454
ENCODING 1108
SWIDTH 537 0
DWIDTH 13 0
BBX 11 13 1 0
BITMAP
0017CEEC6000
02DFFDDFFB00
0CFA1003EF70
4FC000005FC0
9F8000000000
BFFFFFF20000
CFDCCCC20000
BF8000000000
9FB000001320
5FF200006FB0
0CFC1004EF50
02DFFCDFF800
0018DFEB4000
ENDCHAR
STARTCHAR uni0455
ENCODING 1109
SWIDTH 515 0
DWIDTH 12 0
BBX 11 13 1 0
BITMAP
005BEFD92000
08FFDCFFE200
3FF4002CFB00
6FC00003FE00
5FE300000000
0BFFC8400000
007DFFFD7000
000026AFF900
22100005FF10
CF700000FF20
7FE40008FE00
0BFFDCEFF500
006BEFDA3000
ENDCHAR
STARTCHAR uni0456
ENCODING 1110
SWIDTH 242 0
DWIDTH 6 0
BBX 4 18 1 0
BITMAP
0650
4FF2
2ED1
0000
0000
3FF0
3FF0
3FF0
3FF0
3FF0
3FF0
3FF0
3FF0
3FF0
3FF0
3FF0
3FF0
3FF0
ENDCHAR
STARTCHAR uni0457
ENCODING 1111
SWIDTH 247 0
DWIDTH 6 0
BBX 8 18 -1 0
BITMAP
26200262
BFA00BFB
8E7007E7
00000000
00000000
003FF000
003FF000
003FF000
003FF000
003FF000
003FF000
003FF000
003FF000
003FF000
003FF000
003FF000
003FF000
003FF000
ENDCHAR
STARTCHAR uni0458
ENCODING 1112
SWIDTH 238 0
DWIDTH 6 0
BBX 5 23 -1 -5
BITMAP
001640
007FE0
004EB0
000000
000000
004FD0
004FD0
004FD0
004FD0
004FD0
004FD0
004FD0
004FD0
004FD0
004FD0
004FD0
004FD0
004FD0
004FD0
005FD0
009FB0
BEFF50
AED700
ENDCHAR
STARTCHAR uni0459
ENCODING 1113
SWIDTH 848 0
DWIDTH 20 0
BBX 20 13 0 0
BITMAP
0009FFFFFFF900000000
000AFDCCCEF900000000
000BF70008F900000000
000BF60008F900000000
000CF50008F900000000
000CF40008FFFFFEC600
000DF40008FECCCDFFA0
000EF20008F900004FF4
001FF10008F900000AF8
005FD00008F900000BF8
02DF800008F900004FF4
8FFE200008FEBBBDFF90
8FC3000008FFFFFEC600
ENDCHAR
STARTCHAR uni045A
ENCODING 1114
SWIDTH 861 0
DWIDTH 21 0
BBX 19 13 1 0
BITMAP
3FF000003FF000000000
3FF000003FF000000000
3FF000003FF000000000
3FF000003FF000000000
3FF000003FF000000000
3FFFFFFFFFFEEEEC8100
3FFCCCCCCFFCCCDFFE20
3FF000003FF00002CFA0
3FF000003FF000005FE0
3FF000003FF000005FE0
3FF000003FF00001CFA0
3FF000003FFBBBCEFE20
3FF000003FFFFFFD9100
ENDCHAR
STARTCHAR uni045B
ENCODING 1115
SWIDTH 566 0
DWIDTH 14 0
BBX 12 18 0 0
BITMAP
05FC00000000
05FC00000000
FFFFFFF60000
CDFECCC50000
05FC00000000
05FC18DFE910
05FDCFEEFFC0
05FFD3005FF4
05FE20000BF8
05FC000009F9
05FC000008F9
05FC000008F9
05FC000008F9
05FC000008F9
05FC000008F9
05FC000008F9
05FC000008F9
05FC000008F9
ENDCHAR
STARTCHAR uni045C
ENCODING 1116
SWIDTH 540 0
DWIDTH 13 0
BBX 12 18 1 0
BITMAP
000002EF7000
00001DF70000
00007D600000
000000000000
000000000000
3FF00000BFC1
3FF00009FD20
3FF0007FE300
3FF005FF4000
3FF03EF60000
3FFFFF800000
3FFEEFD10000
3FF01EF90000
3FF004FF6000
3FF0008FE200
3FF0000CFC10
3FF00002EF90
3FF000006FF5
ENDCHAR
STARTCHAR uni045D
ENCODING 1117
SWIDTH 577 0
DWIDTH 14 0
BBX 11 18 1 0
BITMAP
004EF5000000
0004EF400000
00004DA00000
000000000000
000000000000
3FF000007FF0
3FF00002EFF0
3FF0000AFFF0
3FF0005FEFF0
3FF001DF6FF0
3FF008F92FF0
3FF03FE12FF0
3FF0CF602FF0
3FF6FB002FF0
3FFEF3002FF0
3FFF80002FF0
3FFD10002FF0
3FF500002FF0
ENDCHAR
STARTCHAR uni045E
ENCODING 1118
SWIDTH 473 0
DWIDTH 11 0
BBX 11 22 0 -5
BITMAP
007F5006F600
002ED77EE100
0003BEEB3000
000000000000
8FC000006FD0
3FF20000BF80
0DF70001FF30
07FC0005FD00
02FF200AF800
00CF700EF300
006FC04FC000
001FF28F7000
000BF6DF2000
0005FDFC0000
0001EFF70000
00009FF20000
00005FB00000
00008F600000
0000EF100000
0019F9000000
0EFFE2000000
0EEB20000000
ENDCHAR
STARTCHAR uni045F
ENCODING 1119
SWIDTH 577 0
DWIDTH 14 0
BBX 11 17 1 -4
BITMAP
3FF000002FF0
3FF000002FF0
3FF000002FF0
3FF000002FF0
3FF000002FF0
3FF000002FF0
3FF000002FF0
3FF000002FF0
3FF000002FF0
3FF000002FF0
3FF000002FF0
3FFCCCCCCFF0
3FFFFFFFFFF0
00002FF10000
00002FF10000
00002FF10000
00002FF10000
ENDCHAR
STARTCHAR uni0460
ENCODING 1120
SWIDTH 878 0
DWIDTH 21 0
BBX 19 17 1 0
BITMAP
3FF100008FC00000DF60
3FF100008FC00000DF60
3FF100008FC00000DF60
3FF100008FC00000DF60
3FF100008FC00000DF60
3FF100008FC00000DF60
3FF100008FC00000DF60
3FF100008FC00000DF60
3FF100008FC00000DF60
3FF100008FC00000DF60
3FF100008FC00000DF60
3FF100008FC00000DF60
2FF200009FC00000EF50
1FF50000CFE10002FF30
0BFD2008FFFA101BFD00
02EFFDFFE4EFFDFFF400
0029DFEA2019DFEA3000
ENDCHAR
STARTCHAR uni0461
ENCODING 1121
SWIDTH 770 0
DWIDTH 19 0
BBX 16 13 1 0
BITMAP
7FA0000CF50002FF
7FA0000CF50002FF
7FA0000CF50002FF
7FA0000CF50002FF
7FA0000CF50002FF
7FA0000CF50002FF
7FA0000CF50002FF
7FA0000CF50002FF
7FA0000CF60002FF
6FC0000EF70004FE
2FF4008FFE201BFA
09FFCEFE9FFCEFE2
007DFEA207DFEA20
ENDCHAR
STARTCHAR uni0462
ENCODING 1122
SWIDTH 627 0
DWIDTH 15 0
BBX 16 17 -1 0
BITMAP
001FF20000000000
001FF20000000000
8FFFFFFE00000000
6CCFFCCB00000000
001FF20000000000
001FF20000000000
001FF20000000000
001FFFFFFFEB5000
001FFDDDDDFFFA00
001FF2000017FF70
001FF20000008FD0
001FF20000004FF1
001FF20000004FF0
001FF20000009FD0
001FF2000018FF60
001FFDDDDDFFF900
001FFFFFFFEA4000
ENDCHAR
STARTCHAR uni0463
ENCODING 1123
SWIDTH 541 0
DWIDTH 13 0
BBX 13 18 -1 0
BITMAP
003FF000000000
003FF000000000
003FF000000000
003FF000000000
6FFFFFFFC00000
5CCFFCCC900000
003FF000000000
003FF000000000
003FF000000000
003FFFFFFD8100
003FFCCCDFFD10
003FF00002EF80
003FF000006FD0
003FF000004FE0
003FF000006FD0
003FF00002DF80
003FFCCCCFFC10
003FFFFFFD8100
ENDCHAR
STARTCHAR uni0464
ENCODING 1124
SWIDTH 895 0
DWIDTH 22 0
BBX 18 17 2 0
BITMAP
DF6000005ADFEB6000
DF60001BFFFDFFFC10
DF6000BFE50004DFB0
DF6006FE2000002FF5
DF600CF80000000AFA
DF601FF300000005B9
DF603FF10000000000
DFFFFFFFFFFFF50000
DFDCCFFCCCCCC40000
DF604FF00000000000
DF602FF10000000000
DF600EF400000004A8
DF600BF90000000AFA
DF6004FF3000002FF4
DF6000AFE50004DFB0
DF60000AFFEDFFFC10
DF6000005BEFEB6000
ENDCHAR
STARTCHAR uni0465
ENCODING 1125
SWIDTH 746 0
DWIDTH 18 0
BBX 16 13 1 0
BITMAP
3FF000029DFEC600
3FF0004EFFDDFFB0
3FF001EFA1003EF7
3FF007FC000005FC
3FF00BF800000000
3FFFFFFFFFFF8000
3FFCCEFDCCCC6000
3FF00AF800000000
3FF008FA00000132
3FF003FF200006FB
3FF000AFC1004EF5
3FF0001CFFCDFF80
3FF000017CFEB400
ENDCHAR
STARTCHAR uni0466
ENCODING 1126
SWIDTH 602 0
DWIDTH 14 0
BBX 15 17 0 0
BITMAP
0000008FC0000000
000000EFF2000000
000004FFF8000000
00000AFBFD000000
00001EF2EF300000
00006FC09F900000
0000BF704FE00000
0002FF200DF40000
0007FB0008FA0000
000CF60003FE1000
003FFFFFFFFF5000
008FEEFFFEEFB000
00DF509F903FF100
04FE109F900DF600
09FA009F9008FC00
1EF5009F9002FF20
5FE0009F9000CF70
ENDCHAR
STARTCHAR uni0467
ENCODING 1127
SWIDTH 534 0
DWIDTH 13 0
BBX 13 13 0 0
BITMAP
00000DF6000000
00004FFC000000
0000AFFF300000
0001FFAF900000
0007FC4FE10000
000DF60DF60000
004FF108FC0000
00AFA002FF3000
01FFFFFFFF9000
07FECEFDCFE100
0CF70CF60DF600
3FE10CF607FD00
9F900CF601EF40
ENDCHAR
STARTCHAR uni0468
ENCODING 1128
SWIDTH 880 0
DWIDTH 21 0
BBX 19 17 2 0
BITMAP
AF900000005FE1000000
AF90000000BFF5000000
AF90000001FFFB000000
AF90000007FBFF100000
AF9000000CF5BF600000
AF9000002FE16FC00000
AF9000008FA01FF20000
AF900000DF400BF70000
AF900004FE0005FD0000
AF900009F90001EF3000
AFFFFFFFFFFFFFFF8000
AFEDDDEFFEEFFEEFE000
AF9000BF806FC01EF400
AF9001FF306FC00AF900
AF9006FD006FC005FE10
AF900CF8006FC000EF50
AF902FF2006FC0009FA0
ENDCHAR
STARTCHAR uni0469
ENCODING 1129
SWIDTH 755 0
DWIDTH 18 0
BBX 16 13 2 0
BITMAP
CF6000009FA00000
CF600001EFF10000
CF600005FFF70000
CF60000BFAFD0000
CF60002FE1EF4000
CF60007FA09FA000
CF6000DF404FF100
CF6004FE000DF700
CFFFFFFFFFFFFD00
CFDCDFFCDFECFF40
CF607FB08FA0AFA0
CF60EF408FA03FF1
CF65FD008FA00CF7
ENDCHAR
STARTCHAR uni046A
ENCODING 1130
SWIDTH 852 0
DWIDTH 20 0
BBX 18 17 1 0
BITMAP
007FFFFFFFFFFFFE20
000DFFDDDDDDEFF700
0004FF4000009FD100
0000BFC00003FF5000
00002FF5000BFC0000
000009FD004FF30000
000001EF60CF900000
0000006FE6FE100000
0028CEFFFFFFFDA500
03EFFEDDFFEDDFFF90
0CFC2000DF60007FF4
2FF30000DF60000CF9
4FF00000DF600009FB
4FF00000DF600008FB
4FF00000DF600008FB
4FF00000DF600008FB
4FF00000DF600008FB
ENDCHAR
STARTCHAR uni046B
ENCODING 1131
SWIDTH 734 0
DWIDTH 18 0
BBX 15 13 1 0
BITMAP
007FFFFFFFFFF400
000DFECCCCFFA000
0005FF1004FF2000
0000CF900CF80000
00003FF25FE10000
00000AF9CF600000
0029DFFFFFEC7000
03EFFDDFFCDFFB00
0BFB104FE003EF60
1FF3004FE0008FB0
3FF0004FE0005FD0
4FE0004FE0004FD0
4FE0004FE0004FD0
ENDCHAR
STARTCHAR uni046C
ENCODING 1132
SWIDTH 1126 0
DWIDTH 27 0
BBX 24 17 2 0
BITMAP
DF600000DFFFFFFFFFFFFA00
DF6000004FFEDDDDDDEFF200
DF6000000BFC000001EF8000
DF60000002FF600009FE1000
DF600000009FD0002FF60000
DF600000001EF700AFC00000
DF6000000006FE13FF400000
DF6000000000DF8BFA000000
DFFFFFFFFFFFFFFFFFEC8200
DFDCCCCEFFFEDEFFEDEFFE30
DF60002FF81004FF0002CFD0
DF60007FC00004FF00003FF3
DF6000AF900004FF00000FF5
DF6000AF900004FF00000EF5
DF6000AF900004FF00000EF5
DF6000AF900004FF00000EF5
DF6000AF900004FF00000EF5
ENDCHAR
STARTCHAR uni046D
ENCODING 1133
SWIDTH 977 0
DWIDTH 23 0
BBX 21 13 1 0
BITMAP
3FF00000AFFFFFFFFFE100
3FF000002EFECCCCFF7000
3FF0000008FD0007FD1000
3FF0000001EF601EF50000
3FF00000006FD07FC00000
3FF00000000CF7EF400000
3FFFFFFFFFFFFFFFEB5000
3FFCCCCEFFECDFECEFF900
3FF0000DF9006FB005FF30
3FF0004FE1006FB000BF80
3FF0005FC0006FB0008FA0
3FF0006FB0006FB0007FA0
3FF0006FB0006FB0007FA0
ENDCHAR
STARTCHAR uni046E
ENCODING 1134
SWIDTH 517 0
DWIDTH 12 0
BBX 10 27 1 -5
BITMAP
01CE305F90
001CE7F900
0001BF8000
0000000000
0000000000
7FFFFDA300
5CCCCEFF70
0000007FF4
0000000AF9
00000007FA
0000000BF7
000013AFC1
00BFFFF810
009CDFFD40
0000007FF4
00000008FB
00000004FE
00000004FE
00000009FC
0000007FF5
049BCEFF80
7FFFFEA400
EF60000000
FF10000000
BF70000000
2EF9000000
02B5000000
ENDCHAR
STARTCHAR uni046F
ENCODING 1135
SWIDTH 481 0
DWIDTH 12 0
BBX 11 23 0 -5
BITMAP
01BE305FA000
001BE7F90000
0001BF900000
000000000000
000000000000
07FFFED93000
06CCCDEFF600
00000018FE00
00000002FF10
0000013BFB00
000DFFFF8100
000ACDEFD300
00000018FE10
00000000DF50
00000000DF50
00000008FE10
0049BCEFF500
08FFFFDA3000
0EF500000000
1FF000000000
0CF700000000
03EF80000000
002B40000000
ENDCHAR
STARTCHAR uni0470
ENCODING 1136
SWIDTH 691 0
DWIDTH 17 0
BBX 15 17 1 0
BITMAP
EF5000FF4000DF60
EF5000FF4000DF60
EF5000FF4000DF60
EF5000FF4000DF60
EF5000FF4000DF60
EF5000FF4000DF60
EF5000FF4000DF50
CF7000FF4001FF40
9FC000FF4005FF10
3FF600FF402DF900
09FF93FF56EFE100
009FFFFFFFFC2000
00039CFFDA500000
000000FF40000000
000000FF40000000
000000FF40000000
000000FF40000000
ENDCHAR
STARTCHAR uni0471
ENCODING 1137
SWIDTH 700 0
DWIDTH 17 0
BBX 15 19 1 -6
BITMAP
DF4000DF500AF900
DF4000DF5005FE10
DF4000DF5000EF50
DF4000DF5000BF80
DF4000DF50008FA0
DF4000DF50006FB0
DF6000DF50006FB0
BF7000DF50008FA0
8FC000DF5000DF70
2FF500DF5008FF10
09FE60DF529FF700
009FFEFFEFFF7000
00039DFFFC820000
000000DF50000000
000000DF50000000
000000DF50000000
000000DF50000000
000000DF50000000
000000DF50000000
ENDCHAR
STARTCHAR uni0472
ENCODING 1138
SWIDTH 680 0
DWIDTH 16 0
BBX 14 17 1 0
BITMAP
00017CEEC82000
003EFFFFFFE500
02EFA30028FF40
0BF90000006FD0
3FE10000000CF5
7FA000000007FA
AF7000000005FC
BFFFFFFFFFFFFD
CFDCCCCCCCCDFE
BF8000000006FD
AFA000000007FC
8FD00000000BFA
3FF40000001FF5
0BFC100000AFD1
02EFC3002AFF40
003EFFEEFFF500
00017CEEC82000
ENDCHAR
STARTCHAR uni0473
ENCODING 1139
SWIDTH 567 0
DWIDTH 14 0
BBX 12 13 1 0
BITMAP
0017CEEB5000
02DFFDDFFA00
0CFA1003DF80
5FC000003FF1
AF6000000BF6
DFFFFFFFFFF8
EFDCCCCCCEF9
DF6000000BF8
BF9000000EF5
6FF200006FF1
0CFC2004EF70
02DFFCDFFA00
0018DFEB5000
ENDCHAR
STARTCHAR uni0474
ENCODING 1140
SWIDTH 629 0
DWIDTH 15 0
BBX 15 17 0 0
BITMAP
8FD0000000008E90
3FF300000008FF90
0DF80000001FF600
08FC0000007FC000
03FF200000CF7000
00CF700002FF2000
007FC00006FB0000
002FF2000BF60000
000CF7001FF10000
0007FB006FB00000
0001FF10BF600000
0000BF61FF100000
00006FB5FB000000
00001FEAF5000000
00000AFFF1000000
000005FFA0000000
000001EF50000000
ENDCHAR
STARTCHAR uni0475
ENCODING 1141
SWIDTH 501 0
DWIDTH 12 0
BBX 13 13 0 0
BITMAP
4FD0000008EE10
0EF300006FFE00
09F80000DF7000
04FC0003FE0000
00EF2008F90000
009F600CF40000
003FB01FE00000
000DF16F900000
0008F5AF300000
0003F9ED000000
0000DEF8000000
00008FF3000000
00003FC0000000
ENDCHAR
STARTCHAR uni0476
ENCODING 1142
SWIDTH 629 0
DWIDTH 15 0
BBX 15 21 0 0
BITMAP
05EF66FD10000000
003DF87FC1000000
0001CC47D5000000
0000000000000000
8FD0000000008E90
3FF300000008FF90
0DF80000001FF600
08FC0000007FC000
03FF200000CF7000
00CF700002FF2000
007FC00006FB0000
002FF2000BF60000
000CF7001FF10000
0007FB006FB00000
0001FF10BF600000
0000BF61FF100000
00006FB5FB000000
00001FEAF5000000
00000AFFF1000000
000005FFA0000000
000001EF50000000
ENDCHAR
STARTCHAR uni0477
ENCODING 1143
SWIDTH 501 0
DWIDTH 12 0
BBX 13 18 0 0
BITMAP
7FE49FB0000000
05EF59FA000000
003DB2AC300000
00000000000000
00000000000000
4FD0000008EE10
0EF300006FFE00
09F80000DF7000
04FC0003FE0000
00EF2008F90000
009F600CF40000
003FB01FE00000
000DF16F900000
0008F5AF300000
0003F9ED000000
0000DEF8000000
00008FF3000000
00003FC0000000
ENDCHAR
STARTCHAR uni0478
ENCODING 1144
SWIDTH 1160 0
DWIDTH 28 0
BBX 27 22 1 -5
BITMAP
00016BEED9300000000000000000
002DFFFFFFF70000000000000000
01DFD40028FF7000000000000000
09FD1000006FE200000000000000
1EF40000000CF801FF400000EF60
5FE000000006FC00BF900003FF10
7FB000000003FF005FE00008FB00
8FA000000002FF101EF4000CF500
9F9000000002FF2009F9002FE100
9FA000000002FF1004FE007FA000
7FB000000004FF0000EF40BF5000
5FE000000006FC00008F91FE0000
1EF40000000CF800003FE6FA0000
09FD1000005FF200000DFDF40000
01DFC40017FF70000007FFE00000
002DFFFEFFF800000002FF900000
00016BEED93000000000CF400000
00000000000000000001FE000000
00000000000000000007F9000000
0000000000000000004EF2000000
00000000000000007EFF80000000
00000000000000007FD700000000
ENDCHAR
STARTCHAR uni0479
ENCODING 1145
SWIDTH 1043 0
DWIDTH 25 0
BBX 24 18 1 -5
BITMAP
0017CEEB50000DF700000BF9
02DFFCDFFA0008FC00001FF3
0CFB1004EF8002FF20005FD0
5FE100005FF100CF7000AF80
AF8000000DF5007FC000EF30
DF5000000AF8001FF204FD00
EF40000009F9000BF708F800
DF5000000AF80006FC0DF200
BF8000000DF60001EF4FC000
6FE100004FF10000AFDF7000
0DFB1003DF8000004FFF2000
02DFFCDFFA0000000EFC0000
0018DFEB5000000009F70000
00000000000000000DF20000
00000000000000004FB00000
0000000000000002DF500000
00000000000005EFFB000000
00000000000004EE81000000
ENDCHAR
STARTCHAR uni047A
ENCODING 1146
SWIDTH 680 0
DWIDTH 16 0
BBX 14 21 1 -2
BITMAP
00000056100000
000000EF400000
00029DFFE93000
005EFFFFFFF600
03FFB3EF59FF50
0CFB0022108FE1
4FF30000000EF6
8FC000000009FA
AF9000000006FC
CF8000000005FE
CF7000000005FE
CF7000000005FE
AF9000000006FD
8FC000000009FA
4FF20000000DF6
0CFA0022007FE1
03FFA2EF58FF60
005EFFFFFFF700
00029EFFEA3000
000000EF400000
00000078200000
ENDCHAR
STARTCHAR uni047B
ENCODING 1147
SWIDTH 566 0
DWIDTH 14 0
BBX 12 17 1 -2
BITMAP
000015400000
00004FD00000
0029EFFD7000
03EFFFFFFB00
0DFA5FD3EF80
6FD100004FF1
BF8000000DF6
DF5000000AF8
EF40000009F9
DF5000000AF8
BF8000000DF6
6FD100004FF1
1DFA5FD2DF90
03EFFFFFFB10
0029EFFD7000
00004FD00000
000014400000
ENDCHAR
STARTCHAR uni047C
ENCODING 1148
SWIDTH 875 0
DWIDTH 21 0
BBX 19 23 1 0
BITMAP
00000003751000000000
0000006FFFD600000000
000000EC13AFD9600000
000000F70113AEC00000
000000000EE000000000
000000002FB000000000
0019D8006C2006E92000
01DFF800000006FFE200
09FE30000000002DFB00
0EF6000000000004FF10
2FF3000000000001FF40
3FF1000000000000EF40
3FF1000000000000EF40
3FF100006B800000EF40
3FF100008FB00000EF40
3FF100008FB00000EF40
3FF100008FB00000EF40
3FF100008FB00000EF40
2FF300009FB00001FF40
0EF60000DFE10004FF10
09FD3008FFFA102CFB00
01DFFDFFE5EFFDFFE200
0019DFEA2029DFEA2000
ENDCHAR
STARTCHAR uni047D
ENCODING 1149
SWIDTH 767 0
DWIDTH 18 0
BBX 16 18 1 0
BITMAP
0000005763000000
00000BFFFFEA8600
00001F90159DEB00
00000000FD000000
00000000FD000000
006DA005F803EA20
08FF9006A003EFE2
2FF5000000001CF9
6FC00000000006FD
7FA00000000003FF
8FA00001200003FF
8FA0000DF50003FF
8FA0000DF50003FF
8FA0000DF50003FF
6FC0001FF70006FD
2FF5009FFD201CF9
08FFCEFEAFFCEFE2
007DFEA207CFEA20
ENDCHAR
STARTCHAR uni047E
ENCODING 1150
SWIDTH 878 0
DWIDTH 21 0
BBX 19 21 1 0
BITMAP
00000444444444200000
00002FFFFFFFFF600000
000000006F8000000000
00000000000000000000
3FF100008FC00000DF60
3FF100008FC00000DF60
3FF100008FC00000DF60
3FF100008FC00000DF60
3FF100008FC00000DF60
3FF100008FC00000DF60
3FF100008FC00000DF60
3FF100008FC00000DF60
3FF100008FC00000DF60
3FF100008FC00000DF60
3FF100008FC00000DF60
3FF100008FC00000DF60
2FF200009FC00000EF50
1FF50000CFE10002FF30
0BFD2008FFFA101BFD00
02EFFDFFE4EFFDFFF400
0029DFEA2019DFEA3000
ENDCHAR
STARTCHAR uni047F
ENCODING 1151
SWIDTH 770 0
DWIDTH 19 0
BBX 16 19 1 0
BITMAP
0002444444444000
0006FFFFFFFFF200
0000000BF4000000
0000000BF4000000
0000000000000000
0000000000000000
7FA0000CF50002FF
7FA0000CF50002FF
7FA0000CF50002FF
7FA0000CF50002FF
7FA0000CF50002FF
7FA0000CF50002FF
7FA0000CF50002FF
7FA0000CF50002FF
7FA0000CF60002FF
6FC0000EF70004FE
2FF4008FFE201BFA
09FFCEFE9FFCEFE2
007DFEA207DFEA20
ENDCHAR
STARTCHAR uni0480
ENCODING 1152
SWIDTH 649 0
DWIDTH 16 0
BBX 14 21 1 -4
BITMAP
00018CEED92000
004EFFEEFFF600
03FFA20029FF40
0CFB000000AFC0
3FF20000003FF1
7FD00000001BB2
8FA00000000000
9FA00000000000
9FA00000000000
9FA00000000000
9FA00000000000
7FC00000000000
3FF20000000000
0CFA0000000000
04FF9100000000
005FFFCC300000
00029DFF400000
000000FF400000
000000FF400000
000000FF400000
000000FF400000
ENDCHAR
STARTCHAR uni0481
ENCODING 1153
SWIDTH 534 0
DWIDTH 13 0
BBX 11 17 1 -4
BITMAP
0017DEEA3000
02DFFCEFF500
0BFB1007FF20
4FE10000BF70
9F9000004950
BF7000000000
CF5000000000
CF6000000000
AF9000000000
5FE100000000
0DFA00000000
03EFEB900000
0029EFE00000
00004FE00000
00004FE00000
00004FE00000
00004FE00000
ENDCHAR
STARTCHAR uni0482
ENCODING 1154
SWIDTH 623 0
DWIDTH 15 0
BBX 13 16 1 0
BITMAP
0000000004FA00
000000000CF200
0000C7005F9000
0002DFC4DE1000
000018FFF70000
0000004FFE6000
0000009F9EFC30
010002FC018F50
4E700BF4000200
4DFD7FA0000000
018FFF40000000
0007FFE6000000
001EE6DFC20000
008F7018E10000
02ED0000100000
09F50000000000
ENDCHAR
STARTCHAR uni0483
ENCODING 1155
SWIDTH 0 0
DWIDTH 0 0
BBX 9 5 -11 13
BITMAP
0000004840
3444449F70
CFFFFFFF70
CF20000000
5710000000
ENDCHAR
STARTCHAR uni0484
ENCODING 1156
SWIDTH 0 0
DWIDTH 0 0
BBX 10 3 -11 15
BITMAP
0000367500
58AEFFFFC0
AEDA6208F2
ENDCHAR
STARTCHAR uni0485
ENCODING 1157
SWIDTH 0 0
DWIDTH 0 0
BBX 3 4 -8 15
BITMAP
CF40
BF50
2EA0
0590
ENDCHAR
STARTCHAR uni0486
ENCODING 1158
SWIDTH 0 0
DWIDTH 0 0
BBX 3 4 -7 15
BITMAP
6FB0
6FA0
BD10
A300
ENDCHAR
STARTCHAR uni0488
ENCODING 1160
SWIDTH 0 0
DWIDTH 0 0
BBX 23 22 -18 -5
BITMAP
0000000002CEC30000000000
000000000BA18D0000000000
000000000310130000000000
001AED60000000003CEC3000
007D24F300000000C91AC000
002200310000000031013000
000000000000000000000000
000000000000000000000000
000000000000000000000000
1AED600000000000002BED40
8D15F2000000000000AC17E0
220031000000000000220130
000000000000000000000000
000000000000000000000000
000000000000000000000000
001BED50000000004DEB2000
009C16F100000000E71BA000
002200310000000031022000
000000000000000000000000
0000000002BEC40000000000
000000000AB18E0000000000
000000000210130000000000
ENDCHAR
STARTCHAR uni0489
ENCODING 1161
SWIDTH 0 0
DWIDTH 0 0
BBX 23 22 -18 -5
BITMAP
00000000000A900000000000
00000000001E600000000000
0001A100005F300000000000
0000D80000BF000003A90000
00006F3000120003BFC20000
00001EA000000003D7000000
000005100000000000000000
000000000000000000000000
000000000000000000000000
7C9620000000000000B93000
28DF80000000000000AFFC20
000440000000000000014720
000000000000000000000000
000000000000000000000000
000000000000000000000000
000000000000000034000000
00001AC100000000EB000000
0004EF92000210007F300000
000C9200003F80000CA00000
00000000006F200003900000
00000000009C000000000000
0000000000C6000000000000
ENDCHAR
STARTCHAR uni048A
ENCODING 1162
SWIDTH 754 0
DWIDTH 18 0
BBX 16 25 2 -4
BITMAP
000CE000BF000000
0007FB69FA000000
00006DED81000000
0000000000000000
EF500000009FF000
EF50000004FFF000
EF5000000DFFF000
EF5000008FFFF000
EF500003FF9FF000
EF50000CFB4FF000
EF50007FE24FF000
EF5002EF604FF000
EF500BFC004FF000
EF505FF3004FF000
EF51EF80004FF000
EF5AFD00004FF000
EF9FF300004FF000
EFFF9000004FF000
EFFD1000004FF000
EFF50000004FF881
EFA00000004FFFF1
0000000000001FF1
0000000000004FC0
000000000000BF50
000000000000A900
ENDCHAR
STARTCHAR uni048B
ENCODING 1163
SWIDTH 615 0
DWIDTH 15 0
BBX 14 21 1 -4
BITMAP
007F4007F50000
002ED77ED10000
0003BEEA200000
00000000000000
3FF000007FF000
3FF00002EFF000
3FF0000AFFF000
3FF0005FEFF000
3FF001DF6FF000
3FF008F92FF000
3FF03FE12FF000
3FF0CF602FF000
3FF6FB002FF000
3FFEF3002FF000
3FFF80002FF000
3FFD10002FF981
3FF500002FFFF2
00000000000FF1
00000000004FC0
0000000000AF50
00000000009900
ENDCHAR
STARTCHAR uni048C
ENCODING 1164
SWIDTH 627 0
DWIDTH 15 0
BBX 16 17 -1 0
BITMAP
001FF20000000000
001FF20000000000
8FFFFFFE00000000
6CCFFCCB00000000
001FF20000000000
001FF20000000000
001FF20000000000
001FFFFFFFEB5000
001FFDDDDDFFFA00
001FF2000017FF70
001FF20000008FD0
001FF20000004FF1
001FF20000004FF0
001FF20000009FD0
001FF2000018FF60
001FFDDDDDFFF900
001FFFFFFFEA4000
ENDCHAR
STARTCHAR uni048D
ENCODING 1165
SWIDTH 541 0
DWIDTH 13 0
BBX 13 20 -1 0
BITMAP
00144000000000
003FF000000000
003FF000000000
6FFFFFFFC00000
5CCFFCCC900000
003FF000000000
003FF000000000
003FF000000000
003FF000000000
003FF000000000
003FF000000000
003FFFFFFD8100
003FFCCCDFFD10
003FF00002EF80
003FF000006FD0
003FF000004FE0
003FF000006FD0
003FF00002DF80
003FFCCCCFFC10
003FFFFFFD8100
ENDCHAR
STARTCHAR uni048E
ENCODING 1166
SWIDTH 638 0
DWIDTH 15 0
BBX 13 17 2 0
BITMAP
FFFFFFFDA40000
FFDDDDDFFF9000
FF4000018FF700
FF40000009FE00
FF40000003FF20
FF40000001FF30
FF400007B3FF20
FF40000BFDFE00
FF400003EFF700
FFFFFFFFFFF600
FFDDDDCB85EF40
FF400000003A10
FF400000000000
FF400000000000
FF400000000000
FF400000000000
FF400000000000
ENDCHAR
STARTCHAR uni048F
ENCODING 1167
SWIDTH 566 0
DWIDTH 14 0
BBX 12 18 1 -5
BITMAP
5FA2AEFD8100
5FDEFDEFFC00
5FFB2006FF70
5FD000008FE0
5FC000001FF3
5FC000000EF5
5FC000000DF5
5FC000000EF5
5FC000072FF3
5FD0008FDFE0
5FF9101DFF70
5FEEECDFFF70
5FC2AEFD8EF3
5FC000000360
5FC000000000
5FC000000000
5FC000000000
5FC000000000
ENDCHAR
STARTCHAR uni0490
ENCODING 1168
SWIDTH 548 0
DWIDTH 13 0
BBX 12 21 1 0
BITMAP
000000000BF6
000000000BF6
000000000BF6
000000000BF6
1FFFFFFFFFF6
1FFDDDDDDDD5
1FF200000000
1FF200000000
1FF200000000
1FF200000000
1FF200000000
1FF200000000
1FF200000000
1FF200000000
1FF200000000
1FF200000000
1FF200000000
1FF200000000
1FF200000000
1FF200000000
1FF200000000
ENDCHAR
STARTCHAR uni0491
ENCODING 1169
SWIDTH 445 0
DWIDTH 11 0
BBX 9 16 1 0
BITMAP
0000006FC0
0000006FC0
0000006FC0
4FFFFFFFC0
4FFCCCCC90
4FD0000000
4FD0000000
4FD0000000
4FD0000000
4FD0000000
4FD0000000
4FD0000000
4FD0000000
4FD0000000
4FD0000000
4FD0000000
ENDCHAR
STARTCHAR uni0492
ENCODING 1170
SWIDTH 556 0
DWIDTH 13 0
BBX 13 17 0 0
BITMAP
00EFFFFFFFFF80
00EFEDDDDDDD70
00EF5000000000
00EF5000000000
00EF5000000000
00EF5000000000
00EF5000000000
FFFFFFF7000000
BCFFDCC6000000
00EF5000000000
00EF5000000000
00EF5000000000
00EF5000000000
00EF5000000000
00EF5000000000
00EF5000000000
00EF5000000000
ENDCHAR
STARTCHAR uni0493
ENCODING 1171
SWIDTH 419 0
DWIDTH 10 0
BBX 11 13 -1 0
BITMAP
003FFFFFFFC0
003FFCCCCCA0
003FF0000000
003FF0000000
003FF0000000
1FFFFFFF6000
1CCFFCCC5000
003FF0000000
003FF0000000
003FF0000000
003FF0000000
003FF0000000
003FF0000000
ENDCHAR
STARTCHAR uni0494
ENCODING 1172
SWIDTH 606 0
DWIDTH 15 0
BBX 12 20 2 -3
BITMAP
EFFFFFFFFF80
EFEDDDDDDD70
EF5000000000
EF5000000000
EF5000000000
EF5000000000
EF5000000000
EFFFFEB71000
EFEEEFFFE400
EF50003BFF30
EF500000AFC0
EF5000002FF2
EF5000000DF5
EF5000000BF6
EF5000000BF6
EF5000000EF4
EF5000003FF1
00000002CF90
000001CFFC10
000001EC7100
ENDCHAR
STARTCHAR uni0495
ENCODING 1173
SWIDTH 502 0
DWIDTH 12 0
BBX 11 16 1 -3
BITMAP
4FFFFFFFB000
4FFCCCCC9000
4FD000000000
4FD000000000
4FD000000000
4FFFFDA30000
4FFEEFFF7000
4FD0029FF500
4FD00008FD00
4FD00001FF20
4FD00000EF30
4FD00001FF20
4FD00006FD00
0000005EF500
00000AFF8000
000007B50000
ENDCHAR
STARTCHAR uni0496
ENCODING 1174
SWIDTH 954 0
DWIDTH 23 0
BBX 23 21 0 -4
BITMAP
1DFB000002FF200000CFC000
03FF600002FF200007FF2000
008FE10002FF20002EF70000
000CFA0002FF2000BFB00000
0002EF5002FF2006FE200000
00006FE102FF201EF5000000
00000BF902FF20AFA0000000
000002FFFFFFFFFF10000000
000007FFDDFFDDFF60000000
00002EF902FF20AFE1000000
0000AFE102FF202EF9000000
0005FF6002FF2007FF400000
001DFC0002FF2000DFD00000
008FF30002FF20004FF70000
03FF900002FF20000AFE2000
0BFE100002FF200002EFFF80
6FF6000002FF2000007FFF80
00000000000000000000AF80
00000000000000000000AF80
00000000000000000000AF80
00000000000000000000AF80
ENDCHAR
STARTCHAR uni0497
ENCODING 1175
SWIDTH 797 0
DWIDTH 19 0
BBX 19 17 0 -4
BITMAP
1DFA0000EF40005FF400
04FF4000EF4001EF9000
009FD100EF400AFD1000
000DF900EF405FF30000
0003FF40EF41EF700000
00007FFFFFFFFC000000
00009FEEFFEEFD100000
0004FF30EF41DF800000
001DF900EF405FF30000
008FE100EF400BFC0000
03FF7000EF4003FF7000
0CFD0000EF40009FFFB0
7FF40000EF40001EFFB0
00000000000000007FB0
00000000000000007FB0
00000000000000007FB0
00000000000000007FB0
ENDCHAR
STARTCHAR uni0498
ENCODING 1176
SWIDTH 593 0
DWIDTH 14 0
BBX 13 22 1 -5
BITMAP
0028DEFDA50000
05EFFEEFFFA000
3FFA20017FF800
9FC0000008FD00
8B50000005FE00
0000000008FB00
000000028FE300
0000CFFFFC3000
0000BDDFFE7000
000000006EF700
0000000006FE10
0000000001FF30
EF40000001FF30
CF90000007FE10
5FF910018FF800
08FFFDEFFF9000
0039DFFFA40000
00000FF3000000
00000FF3000000
00000FF3000000
00000FF3000000
00000FF3000000
ENDCHAR
STARTCHAR uni0499
ENCODING 1177
SWIDTH 507 0
DWIDTH 12 0
BBX 10 18 1 -5
BITMAP
017CEED920
2DFFDCFFE3
9FC2001CFA
56300007FB
0000003CF7
000EFFFF70
000CCDFFB1
0000001BFA
00000004FE
DE400004FE
AFD2001CFB
2DFFCCEFE2
018DFFF910
0000FF3000
0000FF3000
0000FF3000
0000FF3000
0000FF3000
ENDCHAR
STARTCHAR uni049A
ENCODING 1178
SWIDTH 700 0
DWIDTH 17 0
BBX 14 21 2 -4
BITMAP
EF50000005FF70
EF5000004FF900
EF500002EFB000
EF50001DFD1000
EF5000BFE20000
EF5009FF400000
EF507FF6000000
EFFFFF90000000
EFEDEFD1000000
EF502EFA000000
EF5005FF600000
EF50009FF30000
EF50000CFD1000
EF500002EFA000
EF5000005FF700
EF50000008FFFC
EF50000000CFFD
000000000006FC
000000000006FC
000000000006FC
000000000006FC
ENDCHAR
STARTCHAR uni049B
ENCODING 1179
SWIDTH 589 0
DWIDTH 14 0
BBX 13 17 1 -4
BITMAP
3FF00000BFC100
3FF00009FD2000
3FF0007FE30000
3FF005FF400000
3FF03EF6000000
3FFFFF80000000
3FFEEFD1000000
3FF01EF9000000
3FF004FF600000
3FF0008FE20000
3FF0000CFC1000
3FF00002EFFF80
3FF000006FFF80
0000000000AF80
0000000000AF80
0000000000AF80
0000000000AF80
ENDCHAR
STARTCHAR uni049C
ENCODING 1180
SWIDTH 629 0
DWIDTH 15 0
BBX 14 17 1 0
BITMAP
1FF30000007FF3
1FF3000001EF80
1FF3000008FD10
1FF300002FF500
1FF39F209FA000
1FF39F23FE2000
1FF39F2BF70000
1FFFFFFFE00000
1FFEEFEFF40000
1FF39F29FC0000
1FF39F22FF6000
1FF37B109FE100
1FF300002FF700
1FF3000009FE10
1FF3000002FF90
1FF30000009FF2
1FF30000002FFB
ENDCHAR
STARTCHAR uni049D
ENCODING 1181
SWIDTH 561 0
DWIDTH 13 0
BBX 13 13 1 0
BITMAP
3FF000000DFB00
3FF000007FE100
3FF06702EF5000
3FF0CE0AF90000
3FF0CE5FD10000
3FFFFFFF400000
3FFEFFEF900000
3FF0CE3FF30000
3FF0CE0AFC0000
3FF02302FF6000
3FF000009FE100
3FF000002EF900
3FF0000008FF30
ENDCHAR
STARTCHAR uni049E
ENCODING 1182
SWIDTH 652 0
DWIDTH 16 0
BBX 17 17 -1 0
BITMAP
000AF90000003EFA00
000AF9000001DFC100
000AF900001CFD1000
2FFFFFFF50AFE30000
1CCEFECC48FF500000
000AF9006FF7000000
000AF904FF90000000
000AFFFFFC00000000
000AFEDEFE30000000
000AF901DFD1000000
000AF9002EFA000000
000AF90005FF600000
000AF900009FF30000
000AF900000CFD1000
000AF9000002EFA000
000AF90000005FF700
000AF900000008FF30
ENDCHAR
STARTCHAR uni049F
ENCODING 1183
SWIDTH 519 0
DWIDTH 12 0
BBX 14 18 -1 0
BITMAP
001FF200000000
001FF200000000
CFFFFFFA000000
9CCFFCC8000000
001FF200000000
001FF20002EF70
001FF2000CFB00
001FF2008FD100
001FF204FF3000
001FF22EF60000
001FFFFFA00000
001FFCDFD10000
001FF21DFA0000
001FF203FF5000
001FF2008FE200
001FF2000CFB00
001FF20002FF60
001FF200007FE2
ENDCHAR
STARTCHAR uni04A0
ENCODING 1184
SWIDTH 818 0
DWIDTH 20 0
BBX 20 17 0 0
BITMAP
3FFFFFFF90000002EFB0
2CCCCCEF9000001DFC10
000000AF900000BFE200
000000AF900009FF3000
000000AF90007FF50000
000000AF9005FF800000
000000AF903FFA000000
000000AFFFFFD0000000
000000AFEDEFF3000000
000000AF900CFD100000
000000AF9002EFB00000
000000AF90005FF70000
000000AF900008FF4000
000000AF900000CFD100
000000AF9000002EFB00
000000AF90000004FF70
000000AF900000008FF4
ENDCHAR
STARTCHAR uni04A1
ENCODING 1185
SWIDTH 688 0
DWIDTH 17 0
BBX 17 13 0 0
BITMAP
4FFFFFFB00002EF900
3CCCCDFB0001CFB000
000007FB000BFC1000
000007FB009FD10000
000007FB06FE200000
000007FFFFF4000000
000007FFEFF9000000
000007FB04FF500000
000007FB008FE20000
000007FB000CFC0000
000007FB0002EF9000
000007FB00006FF500
000007FB00000AFE20
ENDCHAR
STARTCHAR uni04A2
ENCODING 1186
SWIDTH 749 0
DWIDTH 18 0
BBX 15 21 2 -4
BITMAP
FF400000003FF100
FF400000003FF100
FF400000003FF100
FF400000003FF100
FF400000003FF100
FF400000003FF100
FF400000003FF100
FFFFFFFFFFFFF100
FFDDDDDDDDDFF100
FF400000003FF100
FF400000003FF100
FF400000003FF100
FF400000003FF100
FF400000003FF100
FF400000003FF100
FF400000003FFFF0
FF400000003FFFF0
0000000000003FF0
0000000000003FF0
0000000000003FF0
0000000000003FF0
ENDCHAR
STARTCHAR uni04A3
ENCODING 1187
SWIDTH 605 0
DWIDTH 15 0
BBX 13 17 1 -4
BITMAP
3FF000003FF000
3FF000003FF000
3FF000003FF000
3FF000003FF000
3FF000003FF000
3FFFFFFFFFF000
3FFCCCCCCFF000
3FF000003FF000
3FF000003FF000
3FF000003FF000
3FF000003FF000
3FF000003FFFE0
3FF000003FFFE0
00000000004FE0
00000000004FE0
00000000004FE0
00000000004FE0
ENDCHAR
STARTCHAR uni04A4
ENCODING 1188
SWIDTH 976 0
DWIDTH 23 0
BBX 21 17 2 0
BITMAP
FF400000003FFFFFFFFF80
FF400000003FFCCCCCCC60
FF400000003FF100000000
FF400000003FF100000000
FF400000003FF100000000
FF400000003FF100000000
FF400000003FF100000000
FFFFFFFFFFFFF100000000
FFDDDDDDDDDFF100000000
FF400000003FF100000000
FF400000003FF100000000
FF400000003FF100000000
FF400000003FF100000000
FF400000003FF100000000
FF400000003FF100000000
FF400000003FF100000000
FF400000003FF100000000
ENDCHAR
STARTCHAR uni04A5
ENCODING 1189
SWIDTH 712 0
DWIDTH 17 0
BBX 16 13 1 0
BITMAP
4FD000004FFFFFF4
4FD000004FFCCCC3
4FD000004FD00000
4FD000004FD00000
4FD000004FD00000
4FFFFFFFFFD00000
4FFCCCCCDFD00000
4FD000004FD00000
4FD000004FD00000
4FD000004FD00000
4FD000004FD00000
4FD000004FD00000
4FD000004FD00000
ENDCHAR
STARTCHAR uni04A6
ENCODING 1190
SWIDTH 1023 0
DWIDTH 25 0
BBX 22 20 2 -3
BITMAP
EFFFFFFFFFFFF000000000
EFEDDDDDDDDFF000000000
EF500000004FF000000000
EF500000004FF000000000
EF500000004FF000000000
EF500000004FF000000000
EF500000004FF000000000
EF500000004FFFFEB71000
EF500000004FFEEFFFE400
EF500000004FF0004BFE30
EF500000004FF00000AFB0
EF500000004FF000002FF2
EF500000004FF000000DF5
EF500000004FF000000CF6
EF500000004FF000000CF5
EF500000004FF000000EF4
EF500000004FF000004FE1
000000000000000002DF80
0000000000000002CFFB10
0000000000000002EC7000
ENDCHAR
STARTCHAR uni04A7
ENCODING 1191
SWIDTH 869 0
DWIDTH 21 0
BBX 20 16 1 -3
BITMAP
4FFFFFFFFFD000000000
4FFCCCCCDFD000000000
4FD000004FD000000000
4FD000004FD000000000
4FD000004FD000000000
4FD000004FFFFEC82000
4FD000004FFEEFFFE500
4FD000004FD0003BFF30
4FD000004FD00000BFA0
4FD000004FD000004FE0
4FD000004FD000002FF1
4FD000004FD000003FE0
4FD000004FD000009FA0
0000000000000007FF20
00000000000000CFF600
000000000000009B4000
ENDCHAR
STARTCHAR uni04A8
ENCODING 1192
SWIDTH 741 0
DWIDTH 18 0
BBX 16 17 1 0
BITMAP
0006CA003BEEA300
00AFFB05FFFFFE30
06FE501EF901AFD0
0EF6007FD0001EF5
4FE000BF80000AF9
8FB000DF600008FB
9F9000DF500007FB
AF9000DF500007FC
AF9000DF500007FB
9F9000CF700008FB
8FB000AF90000AF9
5FE0005FE1001FF5
1EF6000CFA009FD0
08FE2003EFB8FF40
00CFE6104FFFFA10
001BFFFEFFFFFFFD
00004ADFDB526BDD
ENDCHAR
STARTCHAR uni04A9
ENCODING 1193
SWIDTH 603 0
DWIDTH 14 0
BBX 13 13 1 0
BITMAP
006D604CFC4000
07FF63FFEFF400
2FF50BF908FC00
7FC00FF201FF10
AF802FF000EF30
BF702FF000EF40
AF702FF100EF40
9F900FF401FF30
6FD00AFB05FE00
1FF503FF9DF900
07FE406FFFE200
009FFEEFFFFEB0
0005BEEB539DC0
ENDCHAR
STARTCHAR uni04AA
ENCODING 1194
SWIDTH 650 0
DWIDTH 16 0
BBX 14 22 1 -5
BITMAP
00016CEFDA4000
002DFFEEFFF800
01EFC30017FF60
0AFC1000007FE0
1FF40000001FF5
5FE000000009B5
7FB00000000000
9FA00000000000
9FA00000000000
9FA00000000000
8FB00000000000
6FE000000008A5
2FF30000001FF4
0AFC0000007FE0
02EFB20017FF60
003EFFEEFFF800
00018EFFEA3000
000002FF100000
000002FF100000
000002FF100000
000002FF100000
000002FF100000
ENDCHAR
STARTCHAR uni04AB
ENCODING 1195
SWIDTH 523 0
DWIDTH 13 0
BBX 11 18 1 -5
BITMAP
0028DEEB4000
03EFECEFF700
1DF91006FF30
6FC000009F90
BF7000003960
DF4000000000
EF4000000000
DF5000000000
BF7000001430
6FD000008F90
1DF91005FF30
03EFECDFF600
0029FFFA3000
0000CF500000
0000CF500000
0000CF500000
0000CF500000
0000CF500000
ENDCHAR
STARTCHAR uni04AC
ENCODING 1196
SWIDTH 596 0
DWIDTH 14 0
BBX 14 21 0 -4
BITMAP
6FFFFFFFFFFFFC
5DDDDDFFEDDDDA
000000EF400000
000000EF400000
000000EF400000
000000EF400000
000000EF400000
000000EF400000
000000EF400000
000000EF400000
000000EF400000
000000EF400000
000000EF400000
000000EF400000
000000EF400000
000000EFFF2000
000000EFFF2000
00000001FF2000
00000001FF2000
00000001FF2000
00000001FF2000
ENDCHAR
STARTCHAR uni04AD
ENCODING 1197
SWIDTH 480 0
DWIDTH 12 0
BBX 12 17 0 -4
BITMAP
8FFFFFFFFFF1
6CCCDFECCCC1
00005FC00000
00005FC00000
00005FC00000
00005FC00000
00005FC00000
00005FC00000
00005FC00000
00005FC00000
00005FC00000
00005FFFB000
00005FFFB000
0000007FB000
0000007FB000
0000007FB000
0000007FB000
ENDCHAR
STARTCHAR uni04AE
ENCODING 1198
SWIDTH 600 0
DWIDTH 14 0
BBX 14 17 0 0
BITMAP
8FE100000009FD
1EF80000002FF5
07FE100000AFC0
00DF900003FF40
005FF2000BFB00
000CF9003FF200
0004FF20BF9000
0000AFA4FE1000
00002FFDF70000
000009FFE10000
000001FF600000
000000EF500000
000000EF500000
000000EF500000
000000EF500000
000000EF500000
000000EF500000
ENDCHAR
STARTCHAR uni04AF
ENCODING 1199
SWIDTH 500 0
DWIDTH 12 0
BBX 12 18 0 -5
BITMAP
4FE000000BF6
0DF400002FF1
08F900007FB0
03FE0000CF50
00CF5002FE10
007FA007F900
001FE10CF400
000BF52FD000
0005FB7F8000
0001EFDF3000
0000AFFC0000
00004FF70000
00000FF30000
00000FF30000
00000FF30000
00000FF30000
00000FF30000
00000FF30000
ENDCHAR
STARTCHAR uni04B0
ENCODING 1200
SWIDTH 600 0
DWIDTH 14 0
BBX 14 17 0 0
BITMAP
8FE100000009FD
1EF80000002FF5
06FE100000AFC0
00DF900003FF30
004FF2000BFA00
000BF9003FF200
0003FF20BF8000
00009FA4FE1000
00001EFDF60000
0008FFFFFFE000
0006CCFFDCB000
000000EF500000
000000EF500000
000000EF500000
000000EF500000
000000EF500000
000000EF500000
ENDCHAR
STARTCHAR uni04B1
ENCODING 1201
SWIDTH 500 0
DWIDTH 12 0
BBX 12 18 0 -5
BITMAP
4FE000000CF6
0DF400002FF1
08F900007FB0
03FE0000CF50
00CF5002FE00
007FA007F900
001FF10CF400
000BF62FD000
0005FB8F8000
0001EFDF2000
00009FFC0000
007CDFFECA00
009FFFFFFD00
00000FF30000
00000FF30000
00000FF30000
00000FF30000
00000FF30000
ENDCHAR
STARTCHAR uni04B2
ENCODING 1202
SWIDTH 636 0
DWIDTH 15 0
BBX 15 21 0 -4
BITMAP
0DFB0000000AFE10
04FF6000005FF500
009FE10001DFA000
001EFA0008FE2000
0005FF403FF60000
0000AFD1CFB00000
00001EFDFF200000
000006FFF7000000
000000EFF1000000
000007FFF9000000
00002FFBFF300000
0000CFC0BFD00000
0006FF302FF80000
002EF80007FF3000
00BFD10000CFC000
05FF4000003FFFE0
1EFA00000009FFF0
0000000000004FE0
0000000000004FE0
0000000000004FE0
0000000000004FE0
ENDCHAR
STARTCHAR uni04B3
ENCODING 1203
SWIDTH 520 0
DWIDTH 13 0
BBX 13 17 0 -4
BITMAP
2EF600009FD100
06FE1003FF4000
00CF900CF90000
002FF36FE10000
0007FBEF500000
0000CFFA000000
00006FF4000000
0001DFFC000000
0009FBCF700000
004FF24FE20000
00DF800AFB0000
08FD1001EFFF10
3FF500007FFF10
0000000002FF10
0000000002FF10
0000000002FF10
0000000002FF10
ENDCHAR
STARTCHAR uni04B4
ENCODING 1204
SWIDTH 896 0
DWIDTH 22 0
BBX 20 21 0 -4
BITMAP
6FFFFFFFFFFC0005FE00
4CCCCFFCCCC90005FE00
00000FF400000005FE00
00000FF400000005FE00
00000FF400000005FE00
00000FF400000005FE00
00000FF400000005FE00
00000FF400000005FE00
00000FF400000005FE00
00000FF400000005FE00
00000FF400000005FE00
00000FF400000005FE00
00000FF400000005FE00
00000FF400000005FE00
00000FF400000005FE00
00000FFDDDDDDDDDFFD9
00000FFFFFFFFFFFFFFA
000000000000000008FA
000000000000000008F9
000000000000000008F8
000000000000000008F8
ENDCHAR
ENDFONT
